<svg width="134" height="171" viewBox="0 0 134 171" fill="none" xmlns="http://www.w3.org/2000/svg">
<g clip-path="url(#clip0_434_302)">
<path d="M75.68 123.17C75.68 123.17 74.39 118.89 74.72 116.74C74.74 108.58 76.08 96.48 83.95 89.07C91.35 82.2 95.45 74.73 95.41 69.23C95.41 68.77 95.38 68.33 95.33 67.9C94.97 65.13 93.58 63.1 91.12 61.72C90.35 61.29 89.6 60.9 88.86 60.51L88.8 60.48C85.5 58.75 82.41 57.17 80.23 53.72C77.13 50.14 76.79 36.79 76.79 36.79C75.9 25.46 77.67 10.5 77.67 10.5C77.67 10.5 79.76 22.67 93.49 31.96C103.12 37.6 109.14 46.15 109.78 55.48C109.82 56.03 109.84 56.59 109.84 57.15C109.82 68.25 102.49 79.54 89.03 90.12C88.91 90.21 88.77 90.33 88.6 90.5C90.62 88.97 96.69 84.98 96.69 84.98C101.38 81.98 105.18 77.84 107.66 73.25C113.28 59.76 114.03 47.98 114.03 47.98C114.03 47.98 118.05 61.69 117.62 74.05C117.62 79.6 117.15 85.17 115.82 90.03C114.49 94.85 112.29 99.04 108.68 101.62C107.51 102.67 98.85 110.43 87.17 111.19C84.44 111.36 82.41 112.76 80.78 114.65C78.96 115.97 75.69 123.14 75.69 123.14" fill="#1E407C"/>
<path d="M61.86 110.3C50.42 109.59 41.69 101.36 41.61 101.28C29 92.39 33.81 60.64 35.82 50.05C36.12 68.73 41.08 79.77 52.09 86.63C61 92.17 64.57 96.34 64.57 96.34C63.06 90.92 55.83 85.83 54.05 84.21C44.37 75.37 40.21 66.39 40.82 57.34C41.41 48.7 46.99 40.66 56.13 35.29C63.09 31.2 66.94 25.88 69.07 21.06C28.01 33.58 15.46 62.69 15.46 62.69C27.42 113.45 72.69 121.99 72.69 121.99C71.61 118.04 68.53 110.71 61.86 110.29" fill="#1E407C"/>
<path d="M68.33 115.58C66.71 113.38 64.62 111.76 61.77 111.58C55.76 111.2 50.54 108.88 46.81 106.66C43.41 104.63 41.28 102.73 40.79 102.28C37.23 99.73 35.05 95.63 33.73 90.91C32.4 86.14 31.94 80.68 31.94 75.24C31.94 65.08 36.3 44.29 36.3 44.29C36.3 44.29 38.56 66.53 41.11 72.25C43.67 77.98 47.46 82.22 52.77 85.54C54.23 86.45 55.55 87.32 56.73 88.14C55.23 86.83 53.9 85.81 53.18 85.16C43.95 76.74 39.47 67.98 39.47 59.06C39.47 58.46 39.49 57.85 39.53 57.25C40.15 48.09 46.05 39.71 55.48 34.18C65.14 28.5 68.52 20.44 69.74 14.85L72.28 15.11C72.3 17.27 72.31 19.87 72.31 22.87C72.31 27.46 72.28 32.96 72.2 39.17C72.08 47.48 70.95 52.4 68.81 55.78C66.66 59.17 63.64 60.72 60.37 62.43C59.64 62.81 58.9 63.2 58.13 63.62C55.85 64.89 54.57 66.77 54.24 69.33C54.19 69.73 54.17 70.15 54.17 70.59C54.13 75.81 58.06 82.94 65.15 89.53C72.9 96.83 74.16 108.83 74.19 116.67C74.19 118.86 74.08 120.74 73.97 122.11L72.69 122L71.45 122.34C70.94 120.47 69.94 117.77 68.33 115.59" fill="white"/>
<path d="M42.59 100.44C42.65 100.5 42.75 100.59 42.88 100.7C43.13 100.92 43.51 101.24 44 101.62C44.97 102.39 46.38 103.41 48.14 104.46C51.65 106.55 56.52 108.69 61.95 109.03C65.77 109.26 68.56 111.52 70.42 114.08C70.87 114.69 71.27 115.33 71.63 115.97C71.56 108.42 70.03 97.58 63.46 91.46C64.5 92.86 65.36 94.38 65.82 96.01L63.61 97.19C63.61 97.19 63.57 97.15 63.47 97.04C63.37 96.93 63.2 96.75 62.98 96.53C62.53 96.08 61.83 95.4 60.85 94.56C58.89 92.87 55.83 90.48 51.43 87.75C45.73 84.21 41.53 79.5 38.78 73.33C37.21 69.8 36.1 65.81 35.41 61.28C34.9 65.58 34.52 70.44 34.52 75.27C34.52 80.56 34.99 85.83 36.22 90.25C37.46 94.69 39.45 98.22 42.36 100.27L42.53 100.41C42.53 100.41 42.57 100.45 42.6 100.47" fill="white"/>
<path d="M56.79 36.4C47.92 41.61 42.66 49.3 42.11 57.42C42.07 57.96 42.06 58.51 42.06 59.06C42.06 67.07 46.03 75.12 54.93 83.26C55.53 83.81 57.02 84.95 58.7 86.44C54.2 81.03 51.63 75.51 51.6 70.59C51.6 70.06 51.63 69.53 51.7 69.01C52.09 65.71 53.97 62.96 56.91 61.37C57.71 60.93 58.47 60.54 59.2 60.15C62.51 58.42 64.93 57.12 66.65 54.41C68.39 51.69 69.53 47.26 69.64 39.14C69.72 32.94 69.75 27.45 69.75 22.87V22.67C67.44 27.4 63.49 32.48 56.79 36.4Z" fill="white"/>
<path d="M72.69 122C71.61 118.05 68.53 110.72 61.86 110.3C50.42 109.59 41.69 101.36 41.61 101.28C29 92.39 33.81 60.64 35.82 50.05C36.12 68.73 41.08 79.77 52.09 86.63C61 92.17 64.57 96.34 64.57 96.34C63.06 90.92 55.83 85.83 54.05 84.21C44.37 75.36 40.21 66.39 40.82 57.34C41.41 48.7 46.99 40.66 56.13 35.29C66.16 29.4 69.74 20.94 70.99 15.12C71.03 20.57 71.05 28.89 70.91 39.15C70.69 55.58 66.35 57.85 59.78 61.28C59.04 61.66 58.29 62.06 57.51 62.48C54.9 63.91 53.33 66.22 52.96 69.16C52.21 75.19 56.44 83.15 64.27 90.45C73.59 99.16 73.19 115.85 72.68 121.99" fill="#FCAF1B"/>
<path d="M76.16 120.26C75.77 112.61 76.31 98.05 84.87 90.05C93.05 82.42 97.46 74.08 96.67 67.73C96.27 64.57 94.58 62.08 91.77 60.54C90.98 60.11 90.22 59.71 89.48 59.32L89.42 59.29C82.76 55.81 78.35 53.51 78.13 36.78C78.01 27.71 78 20.22 78.02 14.9C79.85 20.77 83.91 27.91 92.8 33.13C102.14 38.6 107.83 46.79 108.42 55.59C109.16 66.52 102.16 78.1 88.17 89.09C87.09 89.94 84.14 93.71 83.6 94.82C83.06 95.92 83.27 97.26 83.27 97.26C83.27 97.26 83.49 96.54 84.48 95.71C85.47 94.88 88.33 91.77 97.37 86.14C108.21 79.4 113.36 69 114.24 51.77C116.36 64.56 119.42 92.42 107.82 100.6L107.8 100.62L107.77 100.65C106.83 101.52 98.27 109.2 87.06 109.89C80.71 110.28 77.51 116.53 76.15 120.28" fill="#FCAF1B"/>
<path d="M26.51 133.77C25.99 134.63 26.06 135.85 26.06 136.99C26.06 139.71 25.95 142.54 26.24 145.25C26.35 146.27 26.44 147.31 26.94 148.22H23.61C24.02 147.09 24.02 145.41 24.02 144.14V136.62C24.02 136.39 24.02 136.12 23.86 136.12C23.7 136.12 23.63 136.28 23.57 136.46L18.5 148.44L14.2 137.32C13.95 136.66 13.79 136.12 13.59 136.12C13.39 136.12 13.39 136.53 13.39 136.87L13.37 144.23C13.37 146 13.37 147.47 13.87 148.22H11.16L11.37 147.93C12.21 146.73 12.3 143.15 12.3 140.71V135.05C12.3 134.44 12.28 134.12 11.73 133.78H14.54C14.81 133.78 15.15 133.83 15.24 134.12L18.59 143.99C18.7 144.33 18.77 144.71 18.95 144.71C19.15 144.71 19.22 144.48 19.36 144.17L23.28 134.73C23.48 134.26 23.64 133.78 24.21 133.78H26.52L26.51 133.77Z" fill="#1E407C"/>
<path d="M31.24 147.31H33.84C35.24 147.31 36.69 146.97 37.76 146.02L37.35 148.1C36.74 148.14 35.99 148.21 35.18 148.21H28.64C29.14 147.44 29.21 146.26 29.21 145.24V136.73C29.21 135.71 29.21 134.53 28.71 133.76H36.61L36.7 135.5C35.91 134.82 34.68 134.66 33.35 134.66H31.24V140.07C32.98 140.07 34.82 140.07 36.56 139.91C35.77 141.2 33.21 141.2 31.8 141.2H31.23V147.29L31.24 147.31Z" fill="#1E407C"/>
<path d="M42.38 148.21C42.88 147.44 42.88 146.26 42.88 145.24V134.89H39.87C39.35 134.89 38.83 134.96 38.26 135.39L38.71 133.76H50.1C49.71 134.73 48.33 134.89 47.4 134.89H44.91V145.24C44.91 146.26 44.91 147.44 45.41 148.21H42.38Z" fill="#1E407C"/>
<path d="M60.71 136.73C60.71 135.71 60.69 134.67 60.19 133.76H63.27C62.77 134.67 62.75 135.71 62.75 136.73V145.24C62.75 146.26 62.77 147.3 63.27 148.21H60.19C60.69 147.31 60.71 146.26 60.71 145.24V140.87H54.01V145.24C54.01 146.26 54.03 147.3 54.53 148.21H51.45C51.95 147.31 51.97 146.26 51.97 145.24V136.73C51.97 135.71 51.95 134.67 51.45 133.76H54.53C54.03 134.67 54.01 135.71 54.01 136.73V139.97H60.71V136.73Z" fill="#1E407C"/>
<path d="M71.8 148.58C67.05 148.58 64.96 145.32 64.96 141.29C64.96 136.99 67.45 133.41 72.16 133.41C76.87 133.41 79 136.67 79 140.7C79 145 76.51 148.58 71.8 148.58ZM71.98 134.4C68.72 134.4 67.32 137.39 67.32 140.65C67.32 143.64 68.34 147.58 71.98 147.58C75.24 147.58 76.64 144.59 76.64 141.33C76.64 138.34 75.62 134.4 71.98 134.4Z" fill="#1E407C"/>
<path d="M80.97 136.73C80.97 135.71 80.97 134.53 80.47 133.76C82.76 133.76 85.04 133.53 87.35 133.53C91.13 133.53 93.71 136.38 93.71 140.44C93.71 145.49 90.22 148.3 85.92 148.3C83.63 148.3 82.05 148.21 80.46 148.21C80.96 147.44 80.96 146.26 80.96 145.24V136.73H80.97ZM83.01 145.67C83.01 147.3 83.46 147.39 85.91 147.39C89.94 147.39 91.37 144.54 91.37 140.82C91.37 136.9 89.24 134.44 85.19 134.44C84.35 134.44 83.54 134.53 83.04 134.62C83.04 134.96 83.02 135.32 83.02 135.69V145.68L83.01 145.67Z" fill="#1E407C"/>
<path d="M96.34 136.73C96.34 135.71 96.34 134.53 95.84 133.76H98.87C98.37 134.53 98.37 135.71 98.37 136.73V145.24C98.37 146.26 98.37 147.44 98.87 148.21H95.84C96.34 147.44 96.34 146.26 96.34 145.24V136.73Z" fill="#1E407C"/>
<path d="M100.5 145.38C101.18 146.33 102.15 147.67 104.53 147.67C106.25 147.67 107.54 146.65 107.54 144.84C107.54 141.04 101.06 141.51 101.06 137.32C101.06 134.69 103.21 133.4 105.61 133.4C106.79 133.4 107.94 133.54 109.1 133.54V135.65C108.08 134.59 107.47 134.31 105.95 134.31C104.43 134.31 103.19 135.1 103.19 136.8C103.19 140.29 109.67 139.86 109.67 144.18C109.67 146.99 106.93 148.57 104.39 148.57C103.28 148.57 101.54 148.21 100.49 147.78V145.38H100.5Z" fill="#1E407C"/>
<path d="M114.82 148.21C115.32 147.44 115.32 146.26 115.32 145.24V134.89H112.31C111.79 134.89 111.27 134.96 110.7 135.39L111.15 133.76H122.54C122.15 134.73 120.77 134.89 119.84 134.89H117.35V145.24C117.35 146.26 117.35 147.44 117.85 148.21H114.82Z" fill="#1E407C"/>
<path d="M15.04 154.48H15.01C14.76 154.04 14.41 153.55 13.34 153.55C11.72 153.55 11.07 154.88 11.07 156.35C11.07 157.97 11.9 159.24 13.59 159.24C14.48 159.24 15.08 158.86 15.38 158.53V158.59C15.38 159.06 14.63 160.03 13.02 160.03C11.15 160.02 9.99 158.53 10 156.64C10 154.52 11.25 153.09 13.35 153.09C13.95 153.09 14.39 153.17 15.08 153.17L15.04 154.47V154.48Z" fill="#1E407C"/>
<path d="M19.14 160.02C16.97 160.02 16.02 158.53 16.02 156.69C16.02 154.72 17.16 153.09 19.31 153.09C21.46 153.09 22.43 154.58 22.43 156.42C22.43 158.39 21.29 160.02 19.14 160.02ZM19.22 153.54C17.73 153.54 17.09 154.91 17.09 156.4C17.09 157.77 17.56 159.57 19.22 159.57C20.71 159.57 21.35 158.2 21.35 156.71C21.35 155.34 20.88 153.54 19.22 153.54Z" fill="#1E407C"/>
<path d="M23.66 154.61C23.66 154.14 23.66 153.61 23.43 153.26H24.82C24.59 153.61 24.59 154.15 24.59 154.61V159.44H25.38C25.96 159.44 26.49 159.36 27 158.85L26.8 159.82C26.59 159.84 26.38 159.85 26.17 159.85H23.3C23.61 159.45 23.65 157.99 23.65 157.5V154.6L23.66 154.61Z" fill="#1E407C"/>
<path d="M28.07 154.61C28.07 154.14 28.07 153.61 27.84 153.26H29.23C29 153.61 29 154.15 29 154.61V159.44H29.79C30.37 159.44 30.9 159.36 31.41 158.85L31.21 159.82C31 159.84 30.79 159.85 30.58 159.85H27.71C28.02 159.45 28.06 157.99 28.06 157.5V154.6L28.07 154.61Z" fill="#1E407C"/>
<path d="M33.31 159.44H34.5C35.14 159.44 35.8 159.29 36.29 158.85L36.1 159.8C35.82 159.82 35.48 159.85 35.11 159.85H32.12C32.35 159.5 32.38 158.96 32.38 158.5V154.61C32.38 154.14 32.38 153.61 32.15 153.25H35.76L35.8 154.05C35.44 153.74 34.88 153.67 34.27 153.67H33.31V156.14C34.11 156.14 34.94 156.14 35.74 156.07C35.38 156.66 34.21 156.66 33.57 156.66H33.31V159.44Z" fill="#1E407C"/>
<path d="M42.52 154.32C41.82 153.75 41.23 153.55 40.43 153.55C38.83 153.55 37.9 154.9 37.9 156.42C37.9 158.33 38.81 159.57 40.81 159.57C41.08 159.57 41.32 159.54 41.57 159.5C41.67 159.15 41.67 158.79 41.67 158.43V157.92C41.67 157.45 41.67 156.92 41.44 156.56H42.83C42.6 156.91 42.6 157.45 42.6 157.92V158.95C42.6 159.22 42.63 159.59 42.67 159.85C42.04 159.95 41.19 160.02 40.47 160.02C38.29 160.02 36.82 159.06 36.82 156.73C36.82 154.23 38.64 153.09 40.96 153.09C41.48 153.09 41.99 153.16 42.52 153.2V154.32Z" fill="#1E407C"/>
<path d="M45.04 159.44H46.23C46.87 159.44 47.53 159.29 48.02 158.85L47.83 159.8C47.55 159.82 47.21 159.85 46.84 159.85H43.85C44.08 159.5 44.11 158.96 44.11 158.5V154.61C44.11 154.14 44.11 153.61 43.88 153.25H47.49L47.53 154.05C47.17 153.74 46.61 153.67 46 153.67H45.04V156.14C45.84 156.14 46.67 156.14 47.47 156.07C47.11 156.66 45.94 156.66 45.3 156.66H45.04V159.44Z" fill="#1E407C"/>
<path d="M54.61 154.61C54.61 154.14 54.61 153.61 54.38 153.26H55.77C55.54 153.61 55.54 154.15 55.54 154.61V156.22C56.03 156.13 56.65 155.38 57.16 154.77C57.72 154.12 58.08 153.7 58.08 153.45C58.08 153.37 58.08 153.3 58.07 153.25H59.35C58.86 153.67 58.47 153.98 58.01 154.48L56.41 156.22L58.13 158.67C58.41 159.07 58.76 159.49 59.07 159.85H57.98C57.79 159.85 57.7 159.74 57.59 159.57L55.73 156.75C55.69 156.68 55.62 156.59 55.58 156.59C55.54 156.59 55.54 156.64 55.54 156.68V158.49C55.54 158.95 55.54 159.49 55.77 159.84H54.38C54.61 159.49 54.61 158.95 54.61 158.49V154.6V154.61Z" fill="#1E407C"/>
<path d="M65.6 153.26C65.37 153.62 65.37 154.16 65.37 154.63V158.52C65.37 158.99 65.37 159.52 65.6 159.87L64.37 159.93L64.41 159.25C64.41 159.25 64.39 159.21 64.36 159.21C64.34 159.21 64.3 159.27 64.24 159.33C63.84 159.67 63.2 160.04 62.24 160.04C61.04 160.04 60.24 159.55 60.21 158.28V154.64C60.21 154.17 60.21 153.64 59.98 153.27H61.37C61.14 153.63 61.14 154.17 61.14 154.64V157.66C61.17 158.77 61.63 159.44 62.8 159.44C63.97 159.44 64.37 158.69 64.4 157.45C64.41 157.06 64.44 156.65 64.44 156.26V154.64C64.44 154.17 64.44 153.64 64.21 153.27H65.6V153.26Z" fill="#1E407C"/>
<path d="M71.77 159.86L70.64 156.96H68.31C67.87 157.86 67.4 158.87 67.4 159.46C67.4 159.59 67.41 159.72 67.43 159.85H66.14L66.37 159.56C66.96 158.82 69.09 154.38 69.09 153.53V153.25H70.32C70.98 155.31 71.64 157.55 72.68 159.47L72.89 159.85H71.77V159.86ZM69.74 154.34C69.72 154.27 69.66 154.09 69.56 154.09C69.46 154.09 69.41 154.29 69.38 154.34L68.48 156.55H70.46L69.74 154.34Z" fill="#1E407C"/>
<path d="M73.94 154.61C73.94 154.14 73.94 153.61 73.71 153.26H75.1C74.87 153.61 74.87 154.15 74.87 154.61V159.44H75.66C76.24 159.44 76.77 159.36 77.28 158.85L77.08 159.82C76.87 159.84 76.66 159.85 76.45 159.85H73.58C73.89 159.45 73.93 157.99 73.93 157.5V154.6L73.94 154.61Z" fill="#1E407C"/>
<path d="M83.16 159.86L82.03 156.96H79.7C79.25 157.86 78.79 158.87 78.79 159.46C78.79 159.59 78.8 159.72 78.82 159.85H77.53L77.76 159.56C78.35 158.82 80.48 154.38 80.48 153.53V153.25H81.71C82.37 155.31 83.03 157.55 84.07 159.47L84.28 159.85H83.16V159.86ZM81.13 154.34C81.11 154.27 81.05 154.09 80.95 154.09C80.85 154.09 80.8 154.29 80.77 154.34L79.87 156.55H81.85L81.13 154.34Z" fill="#1E407C"/>
<path d="M87.91 154.61C87.91 154.14 87.91 153.61 87.68 153.26H89.07C88.84 153.61 88.84 154.15 88.84 154.61V159.44H89.63C90.21 159.44 90.74 159.36 91.25 158.85L91.05 159.82C90.84 159.84 90.63 159.85 90.42 159.85H87.55C87.86 159.45 87.9 157.99 87.9 157.5V154.6L87.91 154.61Z" fill="#1E407C"/>
<path d="M97.52 153.26C97.29 153.62 97.29 154.16 97.29 154.63V158.52C97.29 158.99 97.29 159.52 97.52 159.87L96.29 159.93L96.33 159.25C96.33 159.25 96.31 159.21 96.28 159.21C96.26 159.21 96.22 159.27 96.16 159.33C95.76 159.67 95.13 160.04 94.16 160.04C92.96 160.04 92.16 159.55 92.13 158.28V154.64C92.13 154.17 92.13 153.64 91.9 153.27H93.29C93.06 153.63 93.06 154.17 93.06 154.64V157.66C93.09 158.77 93.55 159.44 94.71 159.44C95.87 159.44 96.28 158.69 96.31 157.45C96.32 157.06 96.35 156.65 96.35 156.26V154.64C96.35 154.17 96.35 153.64 96.12 153.27H97.51L97.52 153.26Z" fill="#1E407C"/>
<path d="M105.46 153.26C105.22 153.65 105.25 154.21 105.25 154.73C105.25 155.97 105.2 157.27 105.33 158.51C105.38 158.98 105.42 159.45 105.65 159.87H104.13C104.32 159.35 104.32 158.59 104.32 158.01V154.58C104.32 154.48 104.32 154.35 104.25 154.35C104.18 154.35 104.15 154.42 104.12 154.5L101.8 159.97L99.83 154.89C99.72 154.59 99.64 154.34 99.55 154.34C99.46 154.34 99.46 154.53 99.46 154.68V158.04C99.45 158.85 99.45 159.52 99.68 159.86H98.45L98.54 159.72C98.92 159.17 98.97 157.54 98.97 156.42V153.83C98.97 153.55 98.96 153.41 98.71 153.25H99.99C100.11 153.25 100.27 153.27 100.31 153.41L101.84 157.92C101.89 158.08 101.92 158.25 102.01 158.25C102.1 158.25 102.13 158.15 102.19 158L103.98 153.69C104.07 153.47 104.15 153.25 104.4 153.25H105.46V153.26Z" fill="#1E407C"/>
<path d="M106.82 154.61C106.82 154.14 106.82 153.61 106.59 153.26C107.42 153.26 108.21 153.16 109.02 153.16C110.34 153.16 110.94 153.89 110.94 154.9C110.94 156.09 110.21 156.97 108.98 156.97C108.43 156.97 108.28 156.87 108.08 156.74C108.88 156.64 109.87 156.5 109.87 155C109.87 154.19 109.63 153.57 108.58 153.57H107.75V158.51C107.75 158.92 107.78 159.5 108.02 159.86H106.59C106.83 159.5 106.82 158.92 106.82 158.51V154.62V154.61Z" fill="#1E407C"/>
<path d="M117.33 153.26C117.1 153.62 117.1 154.16 117.1 154.63V158.52C117.1 158.99 117.1 159.52 117.33 159.87L116.1 159.93L116.14 159.25C116.14 159.25 116.12 159.21 116.09 159.21C116.07 159.21 116.03 159.27 115.97 159.33C115.57 159.67 114.94 160.04 113.97 160.04C112.77 160.04 111.97 159.55 111.94 158.28V154.64C111.94 154.17 111.94 153.64 111.71 153.27H113.1C112.87 153.63 112.87 154.17 112.87 154.64V157.66C112.9 158.77 113.36 159.44 114.52 159.44C115.68 159.44 116.09 158.69 116.12 157.45C116.13 157.06 116.16 156.65 116.16 156.26V154.64C116.16 154.17 116.16 153.64 115.93 153.27H117.32L117.33 153.26Z" fill="#1E407C"/>
<path d="M122.84 158.89C123.14 159.29 123.29 159.46 123.71 159.85H122.86C122.42 159.85 122.22 159.61 121.99 159.28L120.73 157.48C120.3 156.86 120.22 156.68 119.62 156.63V158.49C119.62 158.95 119.62 159.49 119.85 159.84H118.41C118.71 159.37 118.69 158.87 118.69 158.42V154.59C118.69 154.12 118.69 153.59 118.46 153.24C119.33 153.24 120.16 153.14 120.96 153.14C122.01 153.14 122.56 153.72 122.56 154.53C122.56 155.48 121.77 156.1 121.03 156.4L122.83 158.88L122.84 158.89ZM119.62 156.23C119.77 156.25 119.93 156.26 120.09 156.26C121.09 156.26 121.64 155.72 121.64 154.74C121.64 153.71 121.05 153.58 120.13 153.56H119.64C119.63 153.71 119.62 153.89 119.62 154.06V156.23Z" fill="#1E407C"/>
<path d="M51.84 153.21H51.01V159.95H51.84V153.21Z" fill="#FCAF1B"/>
</g>
<defs>
<clipPath id="clip0_434_302">
<rect width="113.71" height="149.51" fill="white" transform="translate(10 10.51)"/>
</clipPath>
</defs>
</svg>
