<svg xmlns="http://www.w3.org/2000/svg" width="104.871" height="104.871" viewBox="0 0 104.871 104.871"><g transform="translate(16.756 13.109)"><path d="M675.133,363.054a5.557,5.557,0,0,1,2.647,2.488L688.36,385.15a6.9,6.9,0,0,1,.4.951c.144.411.264.824.342,1.13l7.355,29.074a3.96,3.96,0,0,1-1.527,4.366,4.5,4.5,0,0,1-3.214.812,3.955,3.955,0,0,1-3.4-3.007c-.006-.017-.011-.035-.016-.052h0l-.015-.059h0l-5.049-17.422-7.187,16.939q-.014.042-.029.083l-.005,0-.02.048h0a3.96,3.96,0,0,1-3.749,2.642,4.53,4.53,0,0,1-3.1-1.193,3.943,3.943,0,0,1-1.062-4.341,1.686,1.686,0,0,1,.059-.184l1.529.591-1.523-.589,9.766-25.273-5.55-10.284-.967,3.241a4.217,4.217,0,0,1-2.962,2.869l-.037.012v0l-.049.012-11.745,3.6a3.962,3.962,0,0,1-4.441-1.3,4.549,4.549,0,0,1-.978-3.167,3.967,3.967,0,0,1,2.944-3.578l9.827-3.012,3.281-10.973a5.544,5.544,0,0,1,1.726-3.044,5.766,5.766,0,0,1,2.937-1.39,5.7,5.7,0,0,1,3.223.412Zm-15.674-9.148a6.976,6.976,0,1,1,.544,5.306A6.957,6.957,0,0,1,659.459,353.905ZM644.6,356.144a1.639,1.639,0,0,0-3.277,0v58.148a1.639,1.639,0,1,0,3.277,0Z" transform="translate(-625.242 -344.168)" fill="#023676"/><path d="M331.332,332.222a1.633,1.633,0,1,0,2.855,1.587l10.755-19.394L355.7,333.809a1.633,1.633,0,0,0,2.855-1.587l-12.116-21.85a1.639,1.639,0,0,0-2.926-.12l0,0-12.181,21.967Zm.526-76.074,24.108,8.767-.557,1.536.56-1.54a1.639,1.639,0,0,1,.98,2.1l-.01.027-.991,3.423.006,0a1.639,1.639,0,0,1-1.992,1.128L328.846,266.1l.346-1.6-.35,1.6a1.639,1.639,0,0,1-1.246-1.226,8.08,8.08,0,0,1-.138-4.374l1.581.41-1.585-.416q.016-.062.037-.122a8.3,8.3,0,0,1,2.6-3.958v0a1.639,1.639,0,0,1,1.769-.269Z" transform="translate(-327.219 -256.001)" fill="#023676"/></g><path d="M0,0H104.871V104.871H0Z" fill="none" fill-rule="evenodd"/></svg>