<svg xmlns="http://www.w3.org/2000/svg" viewBox="0 0 183.97 170.75"><defs><style>.cls-1{fill:#033676;}</style></defs><g id="Layer_2" data-name="Layer 2"><g id="Layer_1-2" data-name="Layer 1"><path class="cls-1" d="M78.84,101.67H75.53c0-2.92.09-5.73,0-8.54,0-1.13-.28-2.94-1-3.24-2.85-1.28-2.27-3.61-2.27-5.81,0-5.14-.05-10.28,0-15.42.08-7.61,5.18-12.77,12.79-12.81,10.39-.07,20.78.1,31.16-.13a9.39,9.39,0,0,0,5.68-2.37c5.36-5,10.45-10.26,15.6-15.47,1.87-1.88,3.93-3.2,6.22-1,2.13,2.07,1,4.12-.68,6-5.33,6.09-10.7,12.14-15.86,18.37a11.05,11.05,0,0,1-9.62,4.44c-9.48-.33-9.26-.41-9.19,9,.06,8.84,0,17.69,0,26.79h-23V91.13q0-9,0-18c0-2.26-.83-4-3.29-4s-3.27,1.77-3.27,4C78.85,82.5,78.84,91.89,78.84,101.67Z"/><path class="cls-1" d="M52.49,170.56H45.93c0-5.36,0-10.58,0-15.79,0-4.16,0-8.32.07-12.47,0-3-1.3-4.44-4.34-4.41q-7.06.08-14.12,0c-8.41-.1-14.3-5.88-14.36-14.23-.08-10,0-19.91,0-29.87a11,11,0,0,1,6.48-10.56c4.24-2.07,8.32-1.38,12,1.46s6.89,5.77,10.58,8.3a12.53,12.53,0,0,0,6.2,2.13c6.66.26,13.33.1,20.27.1v6.58c-5.4,0-10.85-.26-16.26.07-6.09.37-11.69-.64-16.84-4a28.07,28.07,0,0,0-4.11-2c-3-1.26-5.1,0-5.15,3.15-.11,7.33-.05,14.66,0,22,0,2.56,1.44,3.76,3.95,3.77,4.15,0,8.31-.07,12.47,0,5.08.12,9.54,3.66,9.65,8.51C52.68,145.63,52.49,158,52.49,170.56Z"/><path class="cls-1" d="M115.15,95.22c7,0,13.88.14,20.74-.09a11.07,11.07,0,0,0,5.6-2c3.67-2.57,7-5.55,10.57-8.32,3.77-3,7.92-3.72,12.28-1.57s6.41,5.79,6.42,10.6c0,10,.06,19.92,0,29.87-.07,8.19-5.94,14-14.12,14.15-4.48.07-9,0-13.46,0s-5.22.85-5.22,5.12c0,9.07,0,18.14,0,27.45h-6.43c0-1-.15-2.08-.15-3.13q0-15.6,0-31.18c0-7.66,3.8-11.39,11.55-11.41,3.5,0,7,0,10.5,0,2.86,0,4.23-1.33,4.22-4.19,0-7.11,0-14.23,0-21.34,0-3.42-2.13-4.68-5.24-3.37L152,96c-4,1.93-7.94,5.06-12.14,5.52-8.09.88-16.34.25-24.75.25Z"/><path class="cls-1" d="M85.4,23.92a7.7,7.7,0,0,1-1.84-.6c-5.12-3.65-10.93-3.82-16.9-3.62-5.56.18-11.14.08-16.71,0-6.11,0-10.47-4.15-10.51-9.76S43.76.09,49.8.05Q62.42,0,75,.05c6.21,0,10.26,4.08,10.35,10.25C85.45,14.75,85.4,19.2,85.4,23.92ZM53,10.72V9.34c-1.16-.9-2.45-2.63-3.45-2.48a4.82,4.82,0,0,0-3.26,3c-.2.81,1.7,2.93,2.79,3S51.68,11.52,53,10.72Zm13.17-.18-.07-1.39c-1.2-.83-2.57-2.49-3.57-2.29-1.27.26-2.24,2-3.34,3.12,1.06,1,2.08,2.87,3.17,2.92S64.89,11.4,66.16,10.54Zm13.1.16V9.31c-1.17-.88-2.46-2.6-3.47-2.45a4.81,4.81,0,0,0-3.24,3c-.19.81,1.72,2.92,2.82,3S78,11.5,79.26,10.7Z"/><path class="cls-1" d="M16.33,157.3c0-.76,0-1.31.11-1.84.67-4.33-.59-7.12-4.72-9.7C3.89,140.87.31,133.05,0,123.81,0,121,0,118.13,0,115.28c0-2.14.92-3.68,3.24-3.7s3.28,1.48,3.31,3.63c0,3.07,0,6.13,0,9.19a20.42,20.42,0,0,0,19.92,20c4.13.12,8.28,0,12.64,0v6.38h-16v6.38a11.08,11.08,0,0,1,9.42,9.49A4.14,4.14,0,0,1,31,170.13c-.91.5-2.55-.14-3.79-.54-.47-.15-.86-1-1-1.6-.94-3.32-3.17-3.93-6.41-4s-5.52.77-6.67,4.11c-.71,2.07-2.38,3.31-4.65,2.18s-2.28-3-1.22-5c.45-.87.87-1.77,1.32-2.64C11,157.94,11,157.94,16.33,157.3Z"/><path class="cls-1" d="M160.71,150.91h-16v-6.46c3.78,0,7.47,0,11.16,0,12.71-.08,21.33-8.75,21.4-21.52,0-2.74-.29-5.53.17-8.18a4.6,4.6,0,0,1,3-3c.92-.17,3.08,1.45,3.15,2.38.62,9,.95,18.11-5.21,25.66a34.19,34.19,0,0,1-8,7.17c-2.38,1.51-3.38,3-3,5.68a33.54,33.54,0,0,1,0,4.48c5.17,1,8.84,4.48,9.6,9.51a4.47,4.47,0,0,1-1.84,3.63c-.8.47-2.49-.41-3.71-.88-.4-.15-.69-.85-.84-1.36-.95-3.25-3.08-4-6.37-4s-5.55.7-6.7,4.07c-.7,2-2.35,3.33-4.64,2.19s-2.31-3-1.24-5c.4-.78.84-1.54,1.16-2.35,1.39-3.45,3.11-6.42,7.81-5.21Z"/><path class="cls-1" d="M137.77,108.59v6.15H46.16v-6.15Z"/><path class="cls-1" d="M134.8,31V6.78h19.29V33.5c-2.49-.85-4.87-1.26-6.83-2.4-3.27-1.88-6.49-2.43-10-1.08C136.47,30.32,135.7,30.64,134.8,31Z"/><path class="cls-1" d="M78.62,121.66h9.62c-1.92,16.34-3.81,32.46-5.72,48.81H75.75C76.71,154.19,77.66,138.08,78.62,121.66Z"/><path class="cls-1" d="M105.3,121.66c1,16.41,1.91,32.52,2.87,48.86h-6.75c-1.91-16.22-3.81-32.42-5.75-48.86Z"/><path class="cls-1" d="M105.08,39.38a9.84,9.84,0,1,1-9.8-9.79A9.88,9.88,0,0,1,105.08,39.38Z"/><path class="cls-1" d="M13.17,65.71A9.84,9.84,0,1,1,23,75.52,9.89,9.89,0,0,1,13.17,65.71Z"/><path class="cls-1" d="M170.74,65.81a9.84,9.84,0,1,1-9.62-10A9.87,9.87,0,0,1,170.74,65.81Z"/></g></g></svg>