<svg width="512" height="512" viewBox="0 0 512 512" fill="none" xmlns="http://www.w3.org/2000/svg">
<path d="M144.8 258.7C144.6 258.7 144.4 258.7 144.3 258.7C143.8 258.6 143.3 258.6 142.9 258.7C141.9 258.7 141 258.7 140 258.7C139.5 258.6 138.9 258.6 138.4 258.7C138.2 258.7 138 258.7 137.9 258.7C137.6 258.5 137.3 258.7 137 258.6C136.7 258.6 136.4 258.6 136.2 258.6C128 258.6 120 257.1 112.2 254.9C105.7 253.1 99.4 250.6 93.3 247.6C84.8 243.4 77.2 238.2 70.2 232.1C61.3 224.3 53.9 215.2 48 204.9C41.1 192.9 36.7 180 34.8 166.3C34.4 163.2 34.1 160 34.1 156.9C34.1 156.6 34.1 156.3 34.1 156.1C34.1 155.8 34.2 155.5 34 155.2C34 155 34 154.8 34 154.7C34.2 154 34.2 153.3 34 152.6C34 152.2 34 151.9 34 151.5C34.3 151.3 34.6 151.2 34.9 151.2C39.2 151.2 43.6 151.1 47.9 151.2C48.2 151.2 48.5 151.1 48.8 151.1C57.5 151.1 66.3 151.1 75 151.1C75.3 151.1 75.5 151.1 75.8 151.1C80 151.1 84.3 151.1 88.5 151.1C89.7 151.1 89.7 151.1 89.7 149.9C89.7 140.5 89.7 131.1 89.7 121.6C89.7 121 89.4 120.2 90 119.9C90.7 119.6 91 120.4 91.5 120.9C101.2 130.6 110.9 140.3 120.6 150C121.4 150.8 122.2 151.1 123.3 151.1C128.8 151.1 134.3 151.1 139.8 151.1C140.2 151.1 140.7 151.3 141 150.8C141 146.6 141 142.5 141 138.4C141.1 136.4 141 134.4 141 132.4C141 132 140.8 131.6 140.5 131.3C140.2 131 140 130.8 139.7 130.5C130 120.8 120.4 111.2 110.7 101.5C110.3 101.1 109.6 100.7 109.8 100.2C110 99.6 110.8 99.8 111.4 99.8C120.8 99.8 130.2 99.8 139.6 99.8C141 99.8 141 99.8 141 98.4C141 94.2 141 90.1 141 85.9C140.9 85.5 141 85 141 84.6C141 76.1 141 67.7 141 59.2C141 58.8 141 58.4 141.1 58C141 54.1 141.1 50.2 141.1 46.4C141.1 46 141.1 45.5 141.1 45.1C141.1 44.7 141.2 44.4 141.4 44.1C141.9 44.1 142.4 44.1 142.8 44.1C143.3 44.3 143.9 44.1 144.4 44.2C144.8 44.2 145.2 44.2 145.6 44.2C146 44.2 146.4 44.2 146.8 44.2C154.4 44.2 161.9 45.6 169.2 47.5C176.5 49.4 183.4 52.1 190.1 55.5C197.5 59.3 204.4 63.8 210.8 69.2C213.7 71.7 216.5 74.2 219.1 77C225.3 83.6 230.7 90.8 235.2 98.7C238.7 105 241.6 111.5 243.8 118.4C246 125.3 247.5 132.3 248.3 139.4C248.5 141.7 248.6 144 248.6 146.3C248.6 146.7 248.6 147.1 248.6 147.5C248.6 147.8 248.6 148.1 248.6 148.4C248.6 149.1 248.5 149.7 248.7 150.4C248.7 151.1 248.7 151.8 248.7 152.5C248.6 153.2 248.6 153.9 248.7 154.6C248.7 154.8 248.7 155 248.7 155.1C248.5 155.4 248.7 155.7 248.6 156C248.6 156.3 248.6 156.6 248.6 156.8C248.6 164.8 247.1 172.7 244.9 180.4C243.1 187.1 240.5 193.5 237.4 199.7C233.2 207.9 228.1 215.5 222 222.4C214.2 231.3 205.1 238.7 194.8 244.6C184.1 250.8 172.6 254.9 160.4 257.1C155.8 257.9 151.2 258.5 146.6 258.5C146.3 258.5 146 258.5 145.8 258.5C145.5 258.7 145.1 258.6 144.8 258.7Z" fill="#3055A5"/>
<path d="M88.6001 58C91.8001 56 95.3001 54.4 98.7001 52.9C106.4 49.5 114.3 47.2 122.5 45.7C126.8 44.9 131.1 44.4 135.5 44.2C135.7 44.2 135.9 44.3 135.9 44C136.4 44 137 44 137.5 44C138 44.2 138.5 44 139 44.1C139.6 44 140.2 44.2 140.8 44C141 44 141.2 44 141.3 44C141.3 48.7 141.3 53.3 141.3 58C140.8 58.4 140.3 58.3 139.8 58.3C134.3 58.3 128.8 58.3 123.3 58.3C112.3 58.3 101.3 58.3 90.3001 58.3C89.7001 58.3 89.1001 58.5 88.6001 58Z" fill="#F1F0F0"/>
<path d="M34.2 145.8C35.1 129.3 39.5 113.8 47.5 99.4C47.7 99.1 47.8 98.9 48 98.6C48.3 98.8 48.3 99.2 48.3 99.5C48.3 99.8 48.3 100.2 48.3 100.5C48.3 116.9 48.3 133.2 48.3 149.6C48.3 150.2 48.4 150.9 48 151.4C43.3 151.4 38.7 151.4 34 151.4C34 151 34 150.7 34 150.3C34.2 149.7 34 149 34.1 148.4C34.1 148 34.2 147.6 34 147.3C34 147.1 34 146.9 34 146.8C34.2 146.5 34 146.1 34.2 145.8Z" fill="#F1F0F0"/>
<path d="M248.7 154.6C248.4 153.9 248.4 153.2 248.7 152.5C248.7 153.2 248.7 153.9 248.7 154.6Z" fill="#204899"/>
<path d="M34 152.5C34.3 153.2 34.3 153.9 34 154.6C34 153.9 34 153.2 34 152.5Z" fill="#214898"/>
<path d="M248.7 150.3C248.3 149.7 248.6 149 248.5 148.3C248.6 148.2 248.6 148.2 248.7 148.3C248.7 149 248.7 149.7 248.7 150.3Z" fill="#204899"/>
<path d="M34.2 148.3C34.2 149 34.4 149.7 34 150.3C34 149.6 34 149 34 148.3C34.1 148.3 34.1 148.3 34.2 148.3Z" fill="#D1D0D0"/>
<path d="M140.8 44.1C140.2 44.5 139.6 44.2 139 44.3C139 44.3 138.9 44.2 139 44.2C139 44.2 139 44.2 139.1 44.2C139.6 44.1 140.2 44.1 140.8 44.1Z" fill="#D8D8D8"/>
<path d="M144.4 44.2C143.9 44.2 143.3 44.4 142.8 44C143.3 44 143.9 44 144.4 44C144.5 44.1 144.5 44.1 144.4 44.2C144.5 44.2 144.5 44.2 144.4 44.2Z" fill="#224A9A"/>
<path d="M138.3 258.7C138.8 258.4 139.4 258.4 139.9 258.7C139.4 258.7 138.9 258.7 138.3 258.7Z" fill="#1F4796"/>
<path d="M139 44.1C139 44.2 139 44.2 139 44.3C138.5 44.2 138 44.5 137.6 44.1C138.1 44.1 138.6 44.1 139 44.1Z" fill="#B6B5B5"/>
<path d="M142.8 258.7C143.3 258.4 143.8 258.4 144.2 258.7C143.8 258.7 143.3 258.7 142.8 258.7Z" fill="#1F4796"/>
<path d="M248.6 146.2H248.7C248.7 146.6 248.7 147 248.7 147.5C248.6 147.6 248.6 147.6 248.5 147.5C248.6 147 248.6 146.6 248.6 146.2Z" fill="#16244B"/>
<path d="M146.9 44.1C146.9 44.2 146.9 44.2 146.9 44.3C146.5 44.3 146.1 44.3 145.7 44.3C145.6 44.3 145.6 44.2 145.6 44.2C145.6 44.2 145.6 44.1 145.7 44.1C146.1 44.1 146.5 44.1 146.9 44.1Z" fill="#101E40"/>
<path d="M145.7 44.1C145.7 44.2 145.7 44.2 145.7 44.3C145.3 44.3 144.9 44.3 144.5 44.3C144.5 44.2 144.5 44.2 144.5 44.1C144.8 44.1 145.3 44.1 145.7 44.1Z" fill="#23366E"/>
<path d="M34.2 148.3C34.1 148.3 34.1 148.3 34 148.3C34 147.9 34 147.6 34 147.2C34.4 147.6 34.1 148 34.2 148.3Z" fill="#9E9E9E"/>
<path d="M144.8 258.7C145.1 258.4 145.5 258.6 145.9 258.5C146 258.5 146 258.6 146 258.6C146 258.6 146 258.6 145.9 258.6C145.5 258.7 145.1 258.7 144.8 258.7Z" fill="#202F5F"/>
<path d="M248.6 147.4C248.7 147.4 248.7 147.4 248.8 147.4C248.8 147.7 248.8 148 248.8 148.3H248.7H248.6C248.5 148 248.6 147.7 248.6 147.4Z" fill="#243A76"/>
<path d="M34 155.2C34.3 155.5 34.2 155.8 34.2 156.1C34.1 156.2 34.1 156.2 34 156.1C34 155.8 34 155.5 34 155.2Z" fill="#1E2C5A"/>
<path d="M248.6 156.1C248.6 155.8 248.5 155.5 248.8 155.2C248.8 155.5 248.8 155.8 248.8 156.1C248.7 156.1 248.6 156.1 248.6 156.1Z" fill="#1C2955"/>
<path d="M34 156.1C34.1 156.1 34.1 156.1 34.2 156.1C34.2 156.4 34.2 156.7 34.2 157H34.1C34 156.6 34 156.3 34 156.1Z" fill="#0D1B3A"/>
<path d="M248.6 156.1C248.7 156.1 248.7 156.1 248.8 156.1C248.8 156.4 248.8 156.7 248.8 157H248.7C248.6 156.7 248.6 156.4 248.6 156.1Z" fill="#0C1A37"/>
<path d="M34.2001 145.8C34.2001 146.1 34.4001 146.4 34.1001 146.7C34.1001 146.4 34.1001 146.1 34.2001 145.8C34.1001 145.9 34.1001 145.8 34.2001 145.8Z" fill="#494949"/>
<path d="M136 258.7V258.6C136.3 258.6 136.6 258.6 136.9 258.6C137 258.6 137 258.7 137 258.7C137 258.7 137 258.8 136.9 258.8C136.6 258.7 136.3 258.7 136 258.7Z" fill="#101E41"/>
<path d="M136.9 258.7C136.9 258.6 136.9 258.6 136.9 258.5C137.2 258.5 137.5 258.4 137.8 258.7C137.5 258.7 137.2 258.7 136.9 258.7Z" fill="#202F5F"/>
<path d="M145.8 258.7C145.8 258.6 145.8 258.6 145.8 258.5C146.1 258.5 146.4 258.5 146.7 258.5V258.6C146.4 258.7 146.1 258.7 145.8 258.7Z" fill="#101E41"/>
<path d="M48 151.4C48 134.1 48 116.8 48 99.5C48 99.2 48 98.9 48 98.6C48.3 97.6 49 96.7 49.5 95.8C53.2 89.7 57.5 84.1 62.3 78.8C69.8 70.6 78.4 63.8 87.9 58.2C88.1 58.1 88.3 58 88.6 57.9C88.9 57.9 89.2 57.9 89.5 57.9C106.8 57.9 124.1 57.9 141.4 57.9C141.4 58.2 141.4 58.5 141.4 58.8C141.4 67.6 141.4 76.3 141.4 85.1C141.4 85.4 141.4 85.7 141.4 86C141.1 86.3 140.8 86.3 140.4 86.3C140 86.3 139.6 86.3 139.1 86.3C118.8 86.3 98.5 86.3 78.2 86.3C76.3 86.3 76.4 86.2 76.4 88.1C76.4 108.5 76.4 128.9 76.4 149.4C76.4 150 76.6 150.7 76.1 151.3C75.6 151.3 75.1 151.3 74.6 151.3C66.1 151.3 57.6 151.3 49.1 151.3C48.7 151.4 48.4 151.4 48 151.4Z" fill="#D12227"/>
<path d="M76.1001 151.4C76.1001 129.9 76.1001 108.5 76.1001 87C76.1001 86.3 76.3001 86.1 77.0001 86.1C98.5001 86.1 119.9 86.1 141.4 86.1C141.4 90.6 141.4 95 141.4 99.5C141.4 100 141.2 100.1 140.8 100.1C140.6 100.1 140.4 100.1 140.2 100.1C130.5 100.1 120.8 100.1 111.1 100.1C110.8 100.1 110.5 100.1 110.1 100.1C110.2 100.5 110.5 100.7 110.7 100.9C120.7 110.9 130.7 121 140.8 131C141.3 131.5 141.5 131.9 141.4 132.6C141.3 134.5 141.4 136.4 141.3 138.2C140.7 138.3 140.5 137.8 140.2 137.5C136.3 133.7 132.5 129.8 128.6 125.9C120.4 117.7 112.1 109.5 103.9 101.2C103.2 100.5 102.6 100.2 101.6 100.3C98.0001 100.3 94.4001 100.3 90.7001 100.3C90.9001 100.7 91.1001 100.8 91.3001 101.1C107.6 117.4 123.9 133.7 140.2 150C140.6 150.4 141.1 150.7 141.2 151.4C140.9 151.6 140.6 151.5 140.2 151.5C134.2 151.5 128.2 151.5 122.2 151.5C121.6 151.5 121.2 151.3 120.8 150.9C110.8 140.8 100.7 130.8 90.7001 120.7C90.5001 120.5 90.2001 120.3 89.9001 119.9C89.9001 120.4 89.9001 120.7 89.9001 121C89.9001 130.8 89.9001 140.6 89.9001 150.4C89.9001 151.1 89.8001 151.4 89.0001 151.4C84.8001 151.4 80.4001 151.4 76.1001 151.4Z" fill="#F1F0F0"/>
<path d="M74.8999 200C78.0999 197.5 81.0999 195.1 84.0999 192.7C85.4999 191.6 85.4999 191.6 84.7999 190C83.1999 186.8 81.6999 183.5 80.0999 180.3C79.9999 180 79.7999 179.7 79.5999 179.3C82.0999 179.9 84.5999 180.4 86.9999 181C88.6999 181.4 90.4999 181.8 92.1999 182.2C92.7999 182.4 92.9999 182.2 93.1999 181.7C94.8999 178.2 96.5999 174.6 98.2999 171.1C98.3999 170.8 98.5999 170.5 98.6999 170.2C98.9999 170.3 98.9999 170.6 99.1999 170.9C100.9 174.5 102.7 178.1 104.3 181.7C104.6 182.3 104.8 182.4 105.4 182.2C109.5 181.2 113.6 180.3 117.9 179.3C117.7 179.7 117.6 180 117.5 180.3C115.8 183.8 114.1 187.4 112.4 190.9C112.1 191.4 112.2 191.7 112.7 192C116 194.6 119.3 197.2 122.7 199.9C121.9 200.3 121.1 200.4 120.3 200.5C116.9 201.3 113.6 202 110.2 202.8C109.6 202.9 109.5 203.2 109.5 203.8C109.5 207.7 109.5 211.6 109.5 215.5C109.5 215.8 109.5 216.1 109.5 216.6C107.7 215.2 106.1 213.9 104.4 212.5C102.7 211.2 101.1 209.9 99.4999 208.5C98.9999 208.1 98.6999 208.1 98.1999 208.5C95.0999 211 91.9999 213.5 88.8999 216C88.6999 216.1 88.5999 216.4 88.1999 216.4C88.1999 216.1 88.1999 215.8 88.1999 215.6C88.1999 211.7 88.1999 207.8 88.2999 203.9C88.2999 203.2 88.1999 202.9 87.3999 202.8C83.3999 202 79.4999 201 75.5999 200.2C75.2999 200.2 75.1999 200.1 74.8999 200Z" fill="#F1F0F0"/>
<path d="M141.3 151.3C141.1 151.1 140.9 150.9 140.7 150.8C124.1 134.2 107.4 117.5 90.8001 100.9C90.6001 100.7 90.3001 100.5 90.1001 100.3C90.4001 100 90.7001 100.1 90.9001 100.1C94.6001 100.1 98.2001 100.1 101.9 100.1C102.8 100.1 103.4 100.4 104.1 101C116.3 113.2 128.5 125.4 140.7 137.6C140.9 137.8 141.1 138 141.3 138.1C141.4 142.5 141.4 146.9 141.3 151.3Z" fill="#D12227"/>
<path d="M224 142.1C222.4 140.8 220.9 139.7 219.5 138.5C218.9 138 218.5 137.9 217.9 138.5C216.5 139.7 215 140.9 213.5 142C213.2 141.7 213.3 141.3 213.3 141C213.3 139.4 213.3 137.7 213.3 136.1C213.3 135.5 213.2 135.2 212.5 135.1C210.6 134.7 208.7 134.3 206.9 133.8C206.8 133.5 207.1 133.4 207.2 133.3C208.6 132.2 209.9 131.1 211.3 130C211.8 129.6 211.9 129.3 211.6 128.7C210.7 127 209.9 125.2 209 123.3C210.4 123.6 211.7 123.9 213 124.2C213.9 124.4 214.9 125 215.6 124.6C216.2 124.3 216.5 123.1 216.9 122.3C217.4 121.2 218 120 218.5 118.9C218.5 118.9 218.6 118.8 218.7 118.7C219.4 120.2 220.1 121.6 220.8 123.1C221.6 124.8 221.6 124.8 223.4 124.3C225 123.9 226.5 123.6 228.3 123.2C227.4 125 226.7 126.6 225.9 128.1C225.3 129.3 225.3 129.3 226.4 130.1C227.8 131.2 229.1 132.3 230.7 133.5C229.4 133.8 228.3 134.1 227.1 134.3C226.3 134.5 225.5 134.7 224.7 134.8C224.1 134.9 224 135.2 224 135.7C224 138 224 139.9 224 142.1Z" fill="#F1F0F0"/>
<path d="M162 151.2C162 149.3 162 147.3 162 145.4C162 144.7 161.8 144.5 161.2 144.3C159.3 143.9 157.5 143.5 155.4 143C157 141.7 158.4 140.5 159.9 139.4C160.6 138.9 160.7 138.5 160.3 137.8C159.4 136.2 158.7 134.5 157.8 132.8C158.4 132.7 158.9 132.9 159.4 133C160.8 133.3 162.2 133.6 163.7 134C164.2 134.1 164.5 134.1 164.8 133.5C165.5 131.9 166.3 130.4 167 128.8C167.1 128.6 167.1 128.3 167.5 128.1C168.4 129.9 169.2 131.7 170.1 133.5C170.3 134 170.6 134.1 171.1 134C173 133.5 174.9 133.1 176.9 132.7C176.7 133.4 176.4 134 176.1 134.5C175.5 135.7 175 136.9 174.3 138.1C174.1 138.6 174.1 138.8 174.5 139.2C176.1 140.4 177.6 141.7 179.3 143C177.3 143.5 175.4 144 173.6 144.3C172.8 144.4 172.7 144.8 172.7 145.5C172.7 147.4 172.7 149.3 172.7 151.4C171 150.1 169.5 148.9 168 147.6C167.5 147.2 167.2 147.2 166.7 147.6C165.4 148.7 164.1 149.7 162.8 150.7C162.6 150.9 162.4 151.2 162 151.2Z" fill="#F1F0F0"/>
<path d="M195 216.7C193.3 215.4 191.8 214.1 190.3 212.9C189.9 212.5 189.6 212.5 189.2 212.9C187.7 214.2 186.1 215.4 184.4 216.7C184.4 215.9 184.4 215.2 184.4 214.5C184.4 213.2 184.4 211.9 184.4 210.6C184.4 210 184.2 209.8 183.7 209.7C182 209.3 180.4 209 178.7 208.6C178.4 208.5 178.1 208.5 177.7 208.4C179.3 207.1 180.8 205.9 182.3 204.7C182.9 204.3 182.9 204 182.6 203.3C181.7 201.6 180.9 199.9 180 198C182.1 198.5 184 198.9 186 199.4C186.6 199.6 186.8 199.4 187 198.9C187.8 197.1 188.7 195.3 189.6 193.4C190.5 195.3 191.4 197.1 192.2 198.9C192.4 199.4 192.7 199.6 193.3 199.4C195.2 198.9 197.1 198.5 199.2 198C198.5 199.5 197.9 200.8 197.2 202.1C196.2 204.1 196.2 204.1 197.9 205.5C199.1 206.4 200.2 207.3 201.5 208.4C199.5 208.9 197.6 209.3 195.7 209.7C195 209.8 194.7 210.1 194.8 210.8C195 212.7 195 214.6 195 216.7Z" fill="#F1F0F0"/>
<path d="M179 89.2C181.1 89.7 183 90.1 184.9 90.6C185.6 90.8 185.8 90.6 186 90C186.8 88.2 187.7 86.5 188.6 84.6C189.5 86.5 190.4 88.2 191.1 89.9C191.4 90.5 191.6 90.7 192.4 90.5C194.3 90 196.1 89.6 198.2 89.2C197.3 91 196.5 92.7 195.7 94.4C195.4 95.1 195.3 95.4 196 95.9C197.5 97 199 98.2 200.6 99.5C198.6 100 196.8 100.4 194.9 100.8C194.1 100.9 193.8 101.2 193.9 102C194 103.9 193.9 105.7 193.9 107.8C192.6 106.7 191.4 105.8 190.1 104.8C188.6 103.6 188.6 103.6 187 104.8C185.8 105.8 184.6 106.7 183.3 107.8C183.1 107.4 183.2 106.9 183.2 106.6C183.2 105 183.2 103.4 183.2 101.9C183.2 101.3 183 101.1 182.4 101C180.5 100.6 178.6 100.2 176.5 99.7C177.9 98.6 179.2 97.6 180.5 96.5C181.9 95.4 181.9 95.4 181.1 93.9C180.5 92.3 179.8 90.8 179 89.2Z" fill="#F1F0F0"/>
<path d="M377.7 44.1C378.1 44.1 378.5 44.1 379 44.1C382.5 44.6 386.2 44.4 389.7 45.1C394.2 45.9 398.6 47.1 403 48.4C403.9 48.7 404.9 48.9 405.4 49.9C405.8 51 405.7 52.1 405.7 53.2C405.7 118.7 405.7 184.1 405.7 249.6C405.7 250.7 405.8 251.8 405.4 252.9C404.8 254.1 403.6 254.3 402.5 254.6C395 256.8 387.5 258.6 379.6 258.5C379.4 258.5 379.2 258.6 379 258.7C378.7 258.7 378.4 258.7 378.2 258.7C377.9 258.4 377.6 258.4 377.4 258.7C376.4 258.7 375.4 258.7 374.5 258.7C373.7 258.4 372.8 258.4 372 258.7C371.4 258.7 370.9 258.7 370.3 258.7C369.3 258.4 368.3 258.4 367.4 258.7C365.7 258.7 364 258.7 362.4 258.7C358.4 258.1 354.3 258.2 350.3 257.3C346.5 256.4 342.7 255.5 339 254.4C338.1 254.1 337.3 253.8 336.8 252.9C336.4 251.8 336.5 250.7 336.5 249.6C336.5 184.2 336.5 118.7 336.5 53.3C336.5 52.2 336.4 51.1 336.8 50C337.2 49 338.2 48.8 339.1 48.5C346.5 46.2 354 44.5 361.8 44.4C362 44.4 362.2 44.3 362.4 44.2C363.1 44.2 363.8 44.2 364.5 44.2C364.8 44.5 365.1 44.5 365.3 44.2C366 44.2 366.7 44.2 367.4 44.2C368.4 44.5 369.4 44.5 370.3 44.2C370.9 44.2 371.4 44.2 372 44.2C373 44.5 374 44.5 374.9 44.2C375.6 44.2 376.3 44.2 377 44.2C377.2 44.3 377.5 44.3 377.7 44.1Z" fill="#F8F9FA"/>
<path d="M337 49.6999C337 50.1999 337 50.6999 337 51.1999C337 118 337 184.8 337 251.7C337 252.2 337 252.7 337 253.2C336.1 253.8 335.4 253.2 334.6 252.9C322.2 248.5 310.9 242 300.9 233.3C289.2 223.2 280 211.2 273.4 197.3C268.7 187.3 265.6 176.8 264.2 165.9C264 164.1 264.2 162.2 263.7 160.3C263.7 159.6 263.7 158.9 263.7 158.2C264 157.9 264 157.6 263.7 157.4C263.7 156.7 263.7 156 263.7 155.3C264 154.5 264 153.6 263.7 152.8C263.7 152 263.7 151.1 263.7 150.3C264 149.5 264 148.6 263.7 147.8C263.7 147.2 263.7 146.7 263.7 146.1C264 145.7 264 145.3 263.7 144.8C263.7 144.1 263.7 143.4 263.7 142.7C264.1 136.9 265 131.1 266.4 125.4C270.5 109.1 278 94.4999 289 81.5999C300.7 67.8999 315 57.6999 331.7 51.0999C333.3 50.3999 335 49.2999 337 49.6999Z" fill="#66B946"/>
<path d="M405.1 253.1C405.1 252.6 405.1 252.1 405.1 251.6C405.1 184.8 405.1 118 405.1 51.1C405.1 50.6 405.1 50.1 405.1 49.6C405.9 49 406.6 49.5 407.3 49.7C424.6 55.8 439.3 65.8 451.5 79.4C466.1 95.8 475 114.9 477.9 136.7C478.2 138.7 477.9 140.9 478.4 142.9C478.4 144 478.4 145.1 478.4 146.3C477.9 147.1 478.3 147.9 478.2 148.8C478.3 149.5 478 150.3 478.4 150.9C478.4 151.2 478.4 151.5 478.4 151.7C478 152.4 478.3 153.1 478.2 153.8C478.3 154.6 478 155.5 478.4 156.3C478.4 157.6 478.4 158.8 478.4 160.1C478 166.6 476.9 172.9 475.2 179.2C471 194.7 463.8 208.6 453.4 220.8C440.9 235.5 425.6 246.2 407.4 252.8C406.7 253.2 405.9 253.7 405.1 253.1Z" fill="#F79421"/>
<path d="M370.2 44.1C369.2 44.7 368.2 44.8 367.3 44.1C368.2 44.1 369.2 44.1 370.2 44.1Z" fill="#E0E0E0"/>
<path d="M374.8 44.1C373.8 44.8 372.8 44.7 371.9 44.1C372.8 44.1 373.8 44.1 374.8 44.1Z" fill="#E0E0E0"/>
<path d="M367.3 258.7C368.3 258 369.3 258.1 370.2 258.7C369.2 258.7 368.2 258.7 367.3 258.7Z" fill="#E0E0DF"/>
<path d="M478 148.9C478.1 148.1 477.6 147.1 478.4 146.4C478.4 147.2 478.4 148.1 478.4 148.9C478.2 149.1 478.1 149.1 478 148.9Z" fill="#C87929"/>
<path d="M263.7 147.6C264.4 148.4 264.3 149.3 263.7 150.1C263.7 149.3 263.7 148.5 263.7 147.6Z" fill="#59A545"/>
<path d="M263.7 152.7C264.3 153.5 264.4 154.4 263.7 155.2C263.7 154.3 263.7 153.5 263.7 152.7Z" fill="#59A545"/>
<path d="M478.4 156.4C477.6 155.7 478.1 154.7 478 153.9C478.1 153.7 478.3 153.7 478.4 153.9C478.4 154.8 478.4 155.6 478.4 156.4Z" fill="#C87929"/>
<path d="M371.9 258.7C372.7 258.1 373.6 258 374.4 258.7C373.5 258.7 372.7 258.7 371.9 258.7Z" fill="#E0E0DF"/>
<path d="M478 148.9C478.1 148.9 478.3 148.9 478.4 148.9C478.4 149.6 478.4 150.3 478.4 151C477.7 150.4 478 149.6 478 148.9Z" fill="#E38726"/>
<path d="M478.4 153.9C478.3 153.9 478.1 153.9 478 153.9C478.1 153.2 477.7 152.4 478.4 151.8C478.4 152.5 478.4 153.2 478.4 153.9Z" fill="#E38726"/>
<path d="M263.7 144.7C264.3 145.1 264.2 145.5 263.7 146C263.7 145.5 263.7 145.1 263.7 144.7Z" fill="#396631"/>
<path d="M365.2 44.1C364.9 44.6 364.6 44.7 364.4 44.1C364.6 44.1 364.9 44.1 365.2 44.1Z" fill="#807F80"/>
<path d="M377.7 44.1C377.4 44.7 377.1 44.6 376.9 44.1C377.2 44.1 377.5 44.1 377.7 44.1Z" fill="#807F80"/>
<path d="M263.7 157.3C264.2 157.6 264.2 157.9 263.7 158.1C263.7 157.8 263.7 157.5 263.7 157.3Z" fill="#36602F"/>
<path d="M377.3 258.7C377.6 258.1 377.9 258.1 378.1 258.7C377.9 258.7 377.6 258.7 377.3 258.7Z" fill="#6F6E6F"/>
<path d="M363.8 360.404C363.8 367.721 363.059 374.898 361.719 381.881C360.838 385.972 359.762 389.992 358.422 393.96C355.548 402.811 351.51 411.134 346.537 418.805C344.527 421.943 342.376 424.906 340.031 427.797C338.161 430.213 336.134 432.488 334 434.71C330.174 438.589 326.136 442.292 321.851 445.572C310.567 454.3 297.478 460.754 283.246 464.439C278.884 465.515 274.388 466.379 269.822 466.996C265.393 467.525 260.962 467.79 256.398 467.79C251.833 467.79 247.403 467.525 242.972 466.996C238.409 466.379 233.911 465.515 229.548 464.439C215.318 460.754 202.229 454.3 190.953 445.572C188.133 443.421 185.448 441.146 182.829 438.66C180.548 436.508 178.333 434.234 176.252 431.888C172.56 427.797 169.204 423.424 166.251 418.805C161.283 411.134 157.256 402.811 154.369 393.96C153.027 389.992 151.954 385.972 151.081 381.881C149.739 374.898 149 367.721 149 360.404C149 353.086 149.739 345.891 151.081 338.926C151.954 334.818 153.027 330.798 154.369 326.83C157.256 317.978 161.283 309.655 166.251 302.003C168.264 298.846 170.412 295.902 172.761 293.01C174.64 290.594 176.654 288.302 178.804 286.098C182.628 282.201 186.656 278.498 190.953 275.218C202.229 266.489 215.318 260.053 229.548 256.35C233.911 255.275 238.409 254.411 242.972 253.864C247.403 253.265 251.833 253 256.398 253C260.962 253 265.393 253.265 269.822 253.864C274.388 254.411 278.884 255.275 283.246 256.35C297.478 260.053 310.567 266.489 321.851 275.218C324.531 277.228 327.141 279.45 329.627 281.795C331.849 283.876 334 286.027 336.081 288.302C339.907 292.534 343.451 297.171 346.537 302.003C351.51 309.655 355.548 317.978 358.422 326.83C359.762 330.798 360.838 334.818 361.719 338.926C363.059 345.891 363.8 353.086 363.8 360.404Z" fill="#062982"/>
<path d="M363.8 360.404C363.8 367.722 363.059 374.898 361.719 381.881C360.838 385.972 359.762 389.992 358.422 393.96H154.369C153.027 389.992 151.954 385.972 151.081 381.881C149.739 374.898 149 367.722 149 360.404C149 353.086 149.739 345.892 151.081 338.926C151.954 334.818 153.027 330.798 154.369 326.83H358.422C359.762 330.798 360.838 334.818 361.719 338.926C363.059 345.892 363.8 353.086 363.8 360.404Z" fill="white"/>
<path d="M346.538 302.003L329.839 317.432L319.629 326.83L306.473 338.926L283.247 360.404L269.823 372.888L260.022 381.881L256.399 385.09L246.866 393.96L242.973 397.592L236.664 403.358L229.549 410.006L190.953 445.572C188.134 443.421 185.448 441.146 182.83 438.66C180.548 436.508 178.333 434.234 176.252 431.888C172.56 427.797 169.205 423.424 166.251 418.805L182.965 403.358L193.168 393.96L206.324 381.881L229.549 360.404L242.973 347.919L249.686 341.73L252.773 338.926L256.399 335.7L265.929 326.83L269.823 323.215L276.132 317.432L283.247 310.801L321.851 275.218C324.531 277.228 327.141 279.45 329.627 281.795C331.849 283.876 334 286.027 336.081 288.302C339.907 292.534 343.452 297.171 346.538 302.003Z" fill="white"/>
<path d="M336.081 288.302L296.672 326.83H283.247L329.627 281.795C331.849 283.876 334 286.027 336.081 288.302Z" fill="#D0081A"/>
<path d="M229.549 393.96L182.83 438.66C180.548 436.508 178.333 434.234 176.252 431.888L215.989 393.96H229.549Z" fill="#D0081A"/>
<path d="M346.538 418.805C344.527 421.943 342.376 424.906 340.031 427.797C338.162 430.213 336.134 432.488 334 434.71C330.174 438.589 326.136 442.292 321.851 445.572L283.247 410.006L276.132 403.358L269.823 397.592L265.929 393.96L256.399 385.09L252.773 381.881L242.973 372.888L229.549 360.404L206.324 338.926L193.168 326.83L182.965 317.432L166.251 302.003C168.265 298.846 170.412 295.902 172.761 293.01C174.641 290.594 176.655 288.302 178.804 286.098C182.629 282.201 186.656 278.498 190.953 275.218L229.549 310.801L236.664 317.432L242.973 323.215L246.866 326.83L256.399 335.7L260.022 338.926L263.11 341.73L269.823 347.919L283.247 360.404L306.473 381.881L319.629 393.96L329.839 403.358L346.538 418.805Z" fill="white"/>
<path d="M340.03 427.797C338.161 430.213 336.134 432.488 334 434.71L290.361 393.959H303.921L340.03 427.797Z" fill="#D0081A"/>
<path d="M224.916 326.83H211.492L172.761 293.01C174.64 290.594 176.654 288.302 178.804 286.098L224.916 326.83Z" fill="#D0081A"/>
<path d="M283.247 256.35V464.439C278.884 465.515 274.388 466.379 269.823 466.996C265.393 467.525 260.962 467.79 256.398 467.79C251.833 467.79 247.404 467.525 242.972 466.996C238.409 466.379 233.911 465.515 229.548 464.439V256.35C233.911 255.275 238.409 254.411 242.972 253.864C247.404 253.265 251.833 253 256.398 253C260.962 253 265.393 253.265 269.823 253.864C274.388 254.411 278.884 255.275 283.247 256.35Z" fill="white"/>
<path d="M363.8 360.404C363.8 367.721 363.059 374.898 361.719 381.881H151.081C149.739 374.898 149 367.721 149 360.404C149 353.086 149.739 345.892 151.081 338.926H361.719C363.059 345.892 363.8 353.086 363.8 360.404Z" fill="#D0081A"/>
<path d="M269.823 253.864V466.996C265.393 467.525 260.962 467.79 256.399 467.79C251.833 467.79 247.404 467.525 242.973 466.996V253.864C247.404 253.265 251.833 253 256.399 253C260.962 253 265.393 253.265 269.823 253.864Z" fill="#D0081A"/>
</svg>
