<svg xmlns="http://www.w3.org/2000/svg" viewBox="0 0 112.44 150.34"><defs><style>.cls-1{fill:#033676;}</style></defs><g id="Layer_2" data-name="Layer 2"><g id="Layer_1-2" data-name="Layer 1"><path class="cls-1" d="M50.3,100.46l9.26,13.26a19.16,19.16,0,0,0,3,4c.82.68,2.31.54,3.5.76.08-1.16.66-2.62.18-3.45-2.93-5-6.12-9.88-9.19-14.82a16.46,16.46,0,0,1-1-2.23L57,97c2.21,2.12,4.51,4.16,6.62,6.38,2.75,2.89,5.23,6.06,8.1,8.82.93.9,2.75.87,4.16,1.26-.14-1.45.25-3.31-.51-4.28-3.7-4.69-7.75-9.11-11.59-13.71a11,11,0,0,1-2.2-4.65c7.72,1.49,13.41,8.49,21.55,8-7-10.2-21.38-11.65-25.38-24.36,5.64-3.52,13.49,1.07,18.62-6.79-4.84-.32-8.78-.6-12.71-.85-1.82-.12-3.64-.2-5.46-.3-4-.23-8.08-.8-12.1-.59-3.19.16-5,.11-6-3.78C36.54,48.47,32.42,35,28.48,21.45c-.91-3.11-1.39-6.11,2.58-7.34,3.81-1.18,5.52,1.38,6.6,4.39C41.47,29.12,45.12,39.79,49,50.4c1.26,3.45,2,8.68,6.8,7.78,4.33-.81,2.77-5.74,2.8-9.06.16-14.32.15-28.65.31-43,0-3.06.41-6.34,4.73-6.13,3.84.19,4.9,2.88,5,6.21.33,9.32.63,18.64,1,28,.24,5.49.54,11,1,16.45.15,1.68,1,3.3,1.54,4.94l1.6.27c.83-1.9,2.1-3.73,2.43-5.71,1.84-11.32,3.46-22.68,5.16-34,.35-2.3.31-4.77,1.19-6.85.64-1.51,2.73-3.69,3.77-3.49,1.87.36,4.67,2.09,4.91,3.59.59,3.7.13,7.61-.23,11.41C90,31.84,88.8,42.92,87.76,54a34.67,34.67,0,0,0,.35,5.64l1.66.43A74.13,74.13,0,0,0,93.36,53c3-7.91,5.8-15.9,8.68-23.85.34-.93.44-2.17,1.1-2.73,2-1.65,4.47-4.53,6.25-4.2,3.65.69,3.4,4.18,2.42,7.35-3.52,11.41-7.26,22.76-10.32,34.3A53.29,53.29,0,0,0,99.68,80c.54,10.7.88,21.14-2.75,31.56-1.24,3.54-.52,8.18.49,12,2.35,8.94,5.42,17.68,8.3,26.8H64.83a21.4,21.4,0,0,1-.9-4.57c.22-10-6.07-15.71-13.47-20.71-2.48-1.67-4.84-3.62-7.53-4.88A32.66,32.66,0,0,1,26.72,104c-1.42-3-4.43-5.26-6.89-7.68-2.94-2.89-6-5.64-9.12-8.33C8,85.64,5,83.48,2.22,81.14c-3.33-2.8-2.93-6,1.3-6.76,3.17-.54,7.34-.19,9.89,1.51A185.52,185.52,0,0,1,35.87,93.13c4,3.65,6.59,8.9,9.44,13.65,1.86,3.11,2.89,6.72,4.64,9.91.64,1.17,2.3,1.78,3.5,2.65.27-1.52,1.08-3.2.69-4.52C53,111,51.39,107.36,50,103.63a21.94,21.94,0,0,1-.64-2.69Z"/></g></g></svg>