<svg xmlns="http://www.w3.org/2000/svg" viewBox="0 0 177.42 163.78"><defs><style>.cls-1{fill:#033676;}</style></defs><g id="Layer_2" data-name="Layer 2"><g id="Layer_1-2" data-name="Layer 1"><path class="cls-1" d="M66.81,67.44c.78-4.7,1.47-8.85,2.17-13,.48-2.82.88-5.66,1.52-8.45A4.71,4.71,0,0,0,69,41.11c-5-5.06-9.73-10.33-14.53-15.47,3.91-.59,8.5-1.79,13.11-1.85,7.49-.11,12.24-3,14.62-10.37C83.64,8.94,86.31,4.85,88.72,0c1.74,3.48,3.21,6.4,4.67,9.33a68.2,68.2,0,0,1,4,8.22c1.32,3.92,3.93,5.18,7.79,5.53,5.51.49,11,1.47,16.45,2.27a8,8,0,0,1,1.43.37c-4.58,4.9-9.19,10.06-14.09,14.92a5.86,5.86,0,0,0-1.88,6.06c1.21,5.88,2.14,11.81,3.15,17.72.14.8.12,1.62.21,2.89-1.12-.54-1.92-.9-2.69-1.31-5.57-2.91-11.15-5.77-16.66-8.78a4.22,4.22,0,0,0-4.6,0c-5.5,3-11.09,5.87-16.65,8.78C69,66.39,68.2,66.76,66.81,67.44Z"/><path class="cls-1" d="M88.68,163.72c-10.62,0-21.23-.07-31.85.05-2.34,0-3-.69-2.85-3,.92-13.56,7.33-23.55,19.35-29.85a5.66,5.66,0,0,1,4.09-.2,31.31,31.31,0,0,0,22.72,0,5.27,5.27,0,0,1,3.85.16c12.06,6.24,18.47,16.23,19.5,29.76.18,2.37-.42,3.21-3,3.18C109.91,163.63,99.29,163.72,88.68,163.72Z"/><path class="cls-1" d="M.28,163.41C-.51,153.73,0,144.46,7.17,137a37.57,37.57,0,0,1,3.74-3.27c2.63-2.07,5.25-3.13,8.85-1.78,4.61,1.73,9.42,1,14.15-.29,1.33-.37,3.33-.36,4.32.4a83.21,83.21,0,0,1,9,8.05,3.89,3.89,0,0,1,.32,3.42,45.34,45.34,0,0,0-3.81,17.72c0,1.38,0,2.53-2,2.52-13.56-.07-27.12-.06-40.68-.09A3.58,3.58,0,0,1,.28,163.41Z"/><path class="cls-1" d="M155.22,163.72c-6.27,0-12.54-.08-18.81,0-2.09,0-2.7-.66-2.67-2.69a44,44,0,0,0-4-18,3.73,3.73,0,0,1,.33-3.17,45.32,45.32,0,0,1,5.71-6c2.73-2.35,5.58-3.57,9.53-2,4.57,1.77,9.42,1,14.13-.35a5.51,5.51,0,0,1,3.86.32c7.87,4.33,12.51,11,13.51,20,.35,3.11.1,6.27.29,9.4.13,2-.71,2.49-2.57,2.47C168.12,163.66,161.67,163.72,155.22,163.72Z"/><path class="cls-1" d="M88.75,122.44a19.84,19.84,0,1,1,19.87-19.92A19.89,19.89,0,0,1,88.75,122.44Z"/><path class="cls-1" d="M136,79.67c1.67-4.72,3-8.73,4.52-12.67a4.1,4.1,0,0,0-.59-4.53c-2.65-3.4-5.09-7-7.76-10.66,4.36,0,8.36-.19,12.32.07A5.5,5.5,0,0,0,150.14,49c2.13-3.31,4.6-6.4,7.34-10.15,1.2,4,2.49,7.29,3.17,10.74S163,55,166.54,55.82s6.83,2.17,10.88,3.51c-3.71,2.56-6.89,5-10.3,7a5.58,5.58,0,0,0-3.06,5.81c.26,3.85.07,7.72.07,12.42-2.36-1.79-4.46-3-6-4.64-4.39-4.76-9.19-5.58-14.92-2.58C141.23,78.4,138.89,78.77,136,79.67Z"/><path class="cls-1" d="M45.52,51.53C42.7,55.44,40.26,59,37.64,62.37A4.27,4.27,0,0,0,37,67.14C38.56,71,39.84,75,41.46,79.67c-4.66-1.48-8.7-2.6-12.62-4.07a4.48,4.48,0,0,0-5,.91c-3.19,2.63-6.53,5.08-10.5,8.13,0-3.36-.34-6.11.06-8.74.86-5.54-1-9.25-6.13-11.68-2.44-1.16-4.53-3.06-7.16-4.9,4.51-1.48,8.5-2.88,12.55-4.07a4.57,4.57,0,0,0,3.55-3.65c1-4,2.31-8,3.68-12.54,1.18,1.5,2.11,2.65,3,3.82,2.23,2.92,3.88,7,6.83,8.47s7.19.22,10.87.18C42,51.51,43.47,51.53,45.52,51.53Z"/><path class="cls-1" d="M151.51,122.43a14.17,14.17,0,1,1,14.18-14.06A14.12,14.12,0,0,1,151.51,122.43Z"/><path class="cls-1" d="M26.05,94.12a14.18,14.18,0,1,1-14.27,14.27A14.15,14.15,0,0,1,26.05,94.12Z"/></g></g></svg>