<svg xmlns="http://www.w3.org/2000/svg" viewBox="0 0 110.4 110.4"><defs><style>.cls-1{fill:#fff;}</style></defs><g id="Layer_2" data-name="Layer 2"><g id="Layer_1-2" data-name="Layer 1"><path class="cls-1" d="M75.86,70.17c0,2.19,0,4.37,0,6.56,0,1.23-.14,2.5-1.68,2.48s-1.62-1.34-1.62-2.54c0-4.14,0-8.28,0-12.42,0-3.44-1-4.83-4.2-6.12a2.22,2.22,0,0,1-.32-.14c-2.2-1.2-3.77-1.32-5.82,1-4.15,4.69-11.51,3.87-15.3-1.27a1.59,1.59,0,0,0-2.24-.67c-6.67,2.54-6.86,2.79-6.86,10,0,3.27,0,6.55,0,9.82,0,1.18-.22,2.36-1.67,2.33S34.53,78,34.53,76.84c0-4.37,0-8.74,0-13.1a8.57,8.57,0,0,1,5.87-8.48c2.08-.82,4.17-1.65,6.27-2.43a2.36,2.36,0,0,0,1.69-2.47A7.88,7.88,0,0,0,47,45.62a25.68,25.68,0,0,1-3.66-12.31c-.31-4.72,3.37-8.45,8.1-9a31.06,31.06,0,0,1,8.06.1,9.26,9.26,0,0,1,6.71,13.25,8.36,8.36,0,0,0-.74,2.59,11.34,11.34,0,0,1-2.68,6.23,4.24,4.24,0,0,0,1.61,6.57c2,.78,4,1.51,5.93,2.33a8.41,8.41,0,0,1,5.5,8c.08,2.24,0,4.48,0,6.72ZM63.73,34.51c.41-3.77-1.79-6.68-5.26-6.95a45.54,45.54,0,0,0-6.71,0,5.75,5.75,0,0,0-5.08,4.48c-.23,1.07-.6,2.23.85,3,.4.2.57,1.07.64,1.66.11.91,0,1.83,0,2.75.15,4.22,3,7.17,7,7.16s6.83-3,7-7.19c0-1.22-.26-1.69-1.58-2-3.15-.82-6.21-2-9.27-3.09-1-.34-1.63-1.21-1-2.15a2.87,2.87,0,0,1,2.11-.76c.62,0,1.25.5,1.89.76A27.64,27.64,0,0,0,63.73,34.51ZM49.21,55.26c3.17,4.65,9.11,4.59,11.95,0-2.11-1.31-2.44-3.53-2.49-5.55h-7C51.71,51.77,51.29,53.88,49.21,55.26Z"/><path class="cls-1" d="M8.72,41.27c1.31-3,2.34-5.91,3.77-8.58A47.72,47.72,0,0,1,40,9.34c1.12-.38,2.25-.67,2.75.72s-.61,2-1.77,2.38Q19.93,19.88,12.45,41c-.13.38-.18.91-.45,1.09-.56.37-1.31.85-1.85.73S9.23,41.84,8.72,41.27Z"/><path class="cls-1" d="M101.53,41.6c-.41.38-.88,1.15-1.42,1.21a2.19,2.19,0,0,1-1.75-.91A26.64,26.64,0,0,1,97,38.54c-5.24-12.72-14.4-21.34-27.32-26-.32-.12-.65-.21-1-.33-1-.39-1.55-1.08-1.16-2.15a1.55,1.55,0,0,1,2.26-.88,80.46,80.46,0,0,1,7.76,3.27,47.54,47.54,0,0,1,23.46,27.67C101.2,40.49,101.31,40.88,101.53,41.6Z"/><path class="cls-1" d="M41.26,101.69c-3.07-1.34-5.95-2.37-8.61-3.8A47.75,47.75,0,0,1,9.33,70.31c-.39-1.14-.62-2.24.77-2.72s1.92.57,2.31,1.67Q19.85,90.56,41.16,98c1,.36,2.08.85,1.66,2.15C42.63,100.74,41.84,101.15,41.26,101.69Z"/><path class="cls-1" d="M101.69,69.14c-1.34,3.07-2.37,6-3.8,8.61a47.75,47.75,0,0,1-27.58,23.32c-1.14.39-2.23.64-2.72-.77s.56-1.92,1.66-2.31Q90.57,90.55,98,69.24c.36-1,.84-2.07,2.14-1.66C100.74,67.76,101.14,68.56,101.69,69.14Z"/><path class="cls-1" d="M54.94,17a8.53,8.53,0,0,1-8.27-8.65,8.53,8.53,0,0,1,17.06.34A8.53,8.53,0,0,1,54.94,17Zm5.49-8.24A5.24,5.24,0,1,0,50,8.29a5.24,5.24,0,1,0,10.46.47Z"/><path class="cls-1" d="M17,55.25a8.54,8.54,0,0,1-8.45,8.48,8.54,8.54,0,0,1-.08-17.07A8.54,8.54,0,0,1,17,55.25ZM8.57,60.43a5.24,5.24,0,1,0-5.32-5.19A5.23,5.23,0,0,0,8.57,60.43Z"/><path class="cls-1" d="M93.39,55.27a8.54,8.54,0,0,1,8.5-8.61,8.54,8.54,0,0,1,0,17.07A8.53,8.53,0,0,1,93.39,55.27Zm8.49,5.16a5.24,5.24,0,1,0-5.27-5.22A5.22,5.22,0,0,0,101.88,60.43Z"/><path class="cls-1" d="M55.21,93.39a8.51,8.51,0,1,1-8.54,8.39A8.54,8.54,0,0,1,55.21,93.39Zm5.23,8.55a5.24,5.24,0,1,0-5.3,5.2A5.22,5.22,0,0,0,60.44,101.94Z"/><path class="cls-1" d="M44.74,75.15c0,2.35,0,4.71,0,7.06,0,1.13-.29,2.19-1.63,2.2s-1.66-1-1.66-2.16V68c0-1.13.28-2.16,1.63-2.18s1.65,1,1.66,2.15C44.75,70.33,44.74,72.74,44.74,75.15Z"/><path class="cls-1" d="M65.66,75c0-2.3,0-4.6,0-6.89,0-1.15.13-2.36,1.6-2.37S69,67,69,68.24Q69,75.13,69,82c0,1.18-.2,2.35-1.62,2.39s-1.68-1.13-1.68-2.31C65.65,79.75,65.66,77.39,65.66,75Z"/></g></g></svg>