<svg xmlns="http://www.w3.org/2000/svg" viewBox="0 0 192.14 192.04"><defs><style>.cls-1{fill:#033676;}</style></defs><g id="Layer_2" data-name="Layer 2"><g id="Layer_1-2" data-name="Layer 1"><path class="cls-1" d="M192.14,86.56c0,12.25,0,24-.07,35.65a3,3,0,0,1-1.46,2.21c-17.5,8.83-35.05,17.54-52.55,26.37-1.7.86-2.55.08-3.63-.89Q121.73,138.46,109,127c-6.24-5.58-11.34-6-18.54-1.76-3.27,2-6.5,3.94-9.78,5.86-3.12,1.83-5.9,1.33-7.23-1.22s-.44-5.43,2.57-7q8.67-4.44,17.43-8.74a14.88,14.88,0,0,1,11.08-1c5.56,1.63,11.2,3,16.72,4.79a16.09,16.09,0,0,0,13.45-1.2c18-9.77,36.22-19.19,54.37-28.74C189.92,87.59,190.81,87.19,192.14,86.56Z"/><path class="cls-1" d="M45.32,149.08c-3.26-1.94-6.08-3.45-8.68-5.27a3.34,3.34,0,0,1-1.06-2.88q3.73-13.74,7.84-27.37a3.8,3.8,0,0,1,2.29-2.23q10.78-2.56,21.65-4.79c7.07-1.44,13.91-.3,21,2.46-1,.62-1.66,1.13-2.4,1.5-4.28,2.17-8.59,4.28-12.86,6.46-6.47,3.3-8.8,10.13-5.55,16.15,3.16,5.86,10,7.47,16.29,3.79,3.45-2,6.85-4.14,10.29-6.17,4.07-2.39,6.59-2.21,10.07.91,8.73,7.79,17.4,15.65,26.1,23.47,1.82,1.63,2.91,3.42,1.25,5.72-1.34,1.85-4,1.76-6.38-.16-4.86-4-9.68-8.07-14.53-12.1-.76-.63-1.54-1.23-2.61-2.07l-4.15,5,15.64,13.07c.54.45,1.39.82,1.55,1.38.42,1.48,1.27,3.69.62,4.43-.92,1-3,1.27-4.65,1.28-.89,0-1.83-1.09-2.67-1.79-5.31-4.39-10.6-8.81-16.19-13.46l-4.26,5,14,11.67c.92.77,1.85,1.53,2.76,2.31,1.69,1.45,2.65,3.18,1.13,5.21s-3.67,1.85-5.36.57a59.94,59.94,0,0,1-8.79-7.63c-2.19-2.45-5.08-3.32-7.56-5-2.27-1.51-2.68-5.94-5-7.28-3.58-2.1-6.24-4.27-8-8.12-.77-1.69-3.26-2.89-5.23-3.63-1.59-.59-2.4-1.14-2.87-2.83a10.12,10.12,0,0,0-16.73-4.94C49.85,144,47.75,146.52,45.32,149.08Z"/><path class="cls-1" d="M63.17,100.41c-.28-5.32,2.46-9.09,7.49-10.44,5.41-1.44,10.84-2.81,16.29-4,1.93-.44,2.76-1.3,2.47-3.25a7.23,7.23,0,0,1,0-1.8c.44-3.78-.27-6.61-4-8.92-8.38-5.16-8-26.24,0-31.82,5.07-3.51,10.27-4.9,16.08-2.73a16.11,16.11,0,0,1,10.74,13.34,44.48,44.48,0,0,1,.1,11.06A14.84,14.84,0,0,1,105,73.28a4.59,4.59,0,0,0-2.41,4.6c.11,7.39,0,7.38,7.2,9.15,3.88,1,7.76,1.89,11.62,2.94a9.8,9.8,0,0,1,7.68,9.83c.07,3.2,0,6.4,0,9.6s-.58,3.69-3.77,2.82c-6.07-1.65-12.11-3.44-18.17-5.13-7.49-2.1-15-4.16-22.49-6.24A41.51,41.51,0,0,0,66,100.07C65.14,100.23,64.25,100.29,63.17,100.41Z"/><path class="cls-1" d="M172.16,89.45l-36.3,19.11c-.32-7.3,1.08-14.49-5-20.41,3.22-.79,5.78-1.53,8.38-2,2.32-.44,3.66-1.41,3.14-4a3.39,3.39,0,0,1,0-.9c.49-4-.33-7-4.17-9.47s-5.51-6.57-5.62-11.12c-.09-3.79-.33-7.67.34-11.36a16.13,16.13,0,0,1,14.43-12.83c7.65-.51,14.45,3.63,16.93,10.76a28.81,28.81,0,0,1,.38,17.43,14.66,14.66,0,0,1-6.86,8.79,4.08,4.08,0,0,0-2.26,4.08c.05,7.7,0,7.69,7.48,9.57C165.86,87.79,168.64,88.53,172.16,89.45Z"/><path class="cls-1" d="M60.87,88.16a19,19,0,0,0-4.62,12.75c0,.51-.84,1.34-1.44,1.5-2.69.72-5.42,1.24-8.08,1.82-.21-.32-.43-.51-.41-.64,1.08-5.11-1.49-7.79-5.89-9.79-3.62-1.65-6.92-4-10.36-6-.14-.08-.2-.32-.39-.64.36-.15.69-.29,1-.41,1.86-.65,5-.94,5.31-2,.77-2.89.43-6.12.28-9.21,0-.64-1.06-1.35-1.78-1.81a16.85,16.85,0,0,1-8.07-15.16,59.27,59.27,0,0,1,.27-7.78A16.26,16.26,0,0,1,43.82,36.41c8,.32,15,7.19,15.57,15.5a60.35,60.35,0,0,1,0,9.88A14.75,14.75,0,0,1,52.26,73.1a5.11,5.11,0,0,0-2.65,5.09c.14,7.11,0,7.1,7,8.79C57.89,87.3,59.2,87.7,60.87,88.16Z"/><path class="cls-1" d="M135.93,79.58c-9,4.23-17.71,4.22-26.93-.08a21,21,0,0,1,2.37-2.64c11-8.77,10.76-33-1.13-42.17C97,24.47,77,31.05,73.71,47.47c-1.12,5.64-.65,11.75,0,17.54.58,5.08,3.81,9.13,7.75,12.47,2,1.65,1.77,2.43-.64,3.09C77.45,81.49,74,83.12,70.67,83c-4.6-.2-9.14-1.78-13.71-2.76.25-.94.18-2.23.79-2.77,3.46-3.06,6.22-6.65,7.34-11.11a36.69,36.69,0,0,0-.47-21,5.16,5.16,0,0,1,.44-5c14.14-23.08,48.29-23,62,.3a5.73,5.73,0,0,1,.34,3.81c-2.69,12.29-3.47,24.1,7.48,33.33A6.49,6.49,0,0,1,135.93,79.58Z"/><path class="cls-1" d="M132.4,36.25C114.55,9.9,77.19,10,59.6,36.35c-4.92-2.64-9.22-5.86-10.36-11.77a4,4,0,0,1,.57-3.07,100.25,100.25,0,0,1,7.85-7.85c.62-.56,2.43-.79,2.9-.34,5,4.78,10,4.75,15.55.87,2.22-1.53,5.16-2.16,7.87-2.8A3.55,3.55,0,0,0,87.08,8c.43-2.66,1.11-5.27,1.71-8h14.49c.6,2.73,1.28,5.51,1.79,8.33.3,1.68,1.11,2.41,2.77,3,4.68,1.68,9.3,3.59,13.79,5.72,1.69.8,2.86.9,4.33-.2s3.42-2.1,5-3.33,2.7-1,4,.48c2.22,2.43,4.56,4.78,7,7,1.46,1.31,1.2,2.44.78,4.17C141.38,30.85,137,33.45,132.4,36.25Z"/><path class="cls-1" d="M13.84,141.24c-4.31-1.43-8.58-2.8-12.79-4.31a2.36,2.36,0,0,1-1-1.82q0-29.1.08-58.2c0-.06.11-.13.39-.46,2.69,1.73,5.43,3.49,8.15,5.27,5.27,3.45,10.56,6.86,15.75,10.44A3.38,3.38,0,0,1,25.7,94.9c-3.68,15.15-7.51,30.26-11.31,45.37A7.53,7.53,0,0,1,13.84,141.24Z"/><path class="cls-1" d="M32.18,96.77c2.44,1.42,4.49,2.45,6.33,3.76a2.87,2.87,0,0,1,.92,2.43c-4,14.11-8,28.19-12.15,42.64a29.06,29.06,0,0,1-5.43-1.8c-.61-.33-.91-2-.69-2.93C23.69,130.39,26.35,120,29,109.49Z"/><path class="cls-1" d="M49.34,155.44a14.57,14.57,0,0,1,1.54-2.92c1.81-2,3.71-3.88,5.68-5.7a3.45,3.45,0,0,1,5.09-.1,3.34,3.34,0,0,1,.23,5.06,46.78,46.78,0,0,1-6.15,6,5.09,5.09,0,0,1-4,.4C50.71,157.9,50.12,156.43,49.34,155.44Z"/><path class="cls-1" d="M73.12,159.06A13.93,13.93,0,0,1,71.59,162c-1.74,1.92-3.59,3.76-5.49,5.52-1.69,1.57-3.67,1.79-5.35.1a3.44,3.44,0,0,1,0-5.12,44.64,44.64,0,0,1,6-5.83,5.11,5.11,0,0,1,4.09-.42C71.81,156.56,72.37,158.07,73.12,159.06Z"/><path class="cls-1" d="M83.07,169a13.63,13.63,0,0,1-1.49,2.91c-1.81,2-3.7,3.9-5.68,5.7-1.72,1.55-3.67,1.63-5.3-.11s-1.34-3.49.15-5.07a48.77,48.77,0,0,1,6-5.8,5.11,5.11,0,0,1,4-.44C81.73,166.47,82.31,168,83.07,169Z"/><path class="cls-1" d="M83.32,188.59c-3.1,0-4.91-3.23-3.06-5.58a38.11,38.11,0,0,1,6.79-6.7c.9-.68,3.24-.45,4.24.29s1.5,3.18,1,3.85a90.25,90.25,0,0,1-7.67,7.86C84.28,188.6,83.63,188.53,83.32,188.59Z"/><path class="cls-1" d="M99.16,183c1.31,2.34,2.62,4.14,3.26,6.14.19.61-1.29,2.27-2.3,2.65-2.59,1-4.24-.84-6-2.74C95.56,187.28,97,185.57,99.16,183Z"/></g></g></svg>