<svg xmlns="http://www.w3.org/2000/svg" viewBox="0 0 168.88 168.98"><defs><style>.cls-1{fill:#033676;}</style></defs><g id="Layer_2" data-name="Layer 2"><g id="Layer_1-2" data-name="Layer 1"><path class="cls-1" d="M84.38,109.26c-8.7,0-17.41.1-26.11,0a13.16,13.16,0,0,1-9.2-22.75,12.51,12.51,0,0,1,3.47-2.35c2.79-1.18,3.92-3.16,4-6.16.15-9.59,6.43-16.71,15.89-18a16.58,16.58,0,0,1,14.3,4.61c2.42,2.31,4.65,3.06,8,2.22,7.74-1.93,15,3.25,16,11.26a6.09,6.09,0,0,0,4.38,5.57,13.19,13.19,0,0,1-4.59,25.67C101.79,109.33,93.08,109.26,84.38,109.26Z"/><path class="cls-1" d="M114.14,62.61l-9.29-5.41c.65-.7,1.27-1.4,1.93-2.07Q125,36.94,143.15,18.78a4,4,0,0,0,1.3-4.14,12.1,12.1,0,0,1,6.39-13.25,12.37,12.37,0,0,1,16.59,16.79,12.06,12.06,0,0,1-13.06,6.29A4.19,4.19,0,0,0,150,25.84C138.7,37.28,127.29,48.62,116,60A16.36,16.36,0,0,0,114.14,62.61Z"/><path class="cls-1" d="M56.34,119.51c-.7.73-1.32,1.43-2,2.09Q40.1,135.88,25.81,150.13a4,4,0,0,0-1.37,4.13,12.06,12.06,0,0,1-6.32,13.28A12.37,12.37,0,0,1,1.47,150.8a12.11,12.11,0,0,1,13.3-6.28,3.77,3.77,0,0,0,3.93-1.2c8.52-8.64,17.15-17.17,25.67-25.81a2.88,2.88,0,0,1,3.85-.73C50.68,117.87,53.33,118.52,56.34,119.51Z"/><path class="cls-1" d="M89.38,53.57c-3.23-1.12-6.08-2-8.78-3.16-.61-.27-1-1.69-1-2.59q-.12-10.68,0-21.34a3.9,3.9,0,0,0-1.92-3.88A12.08,12.08,0,0,1,72.71,8.53a12.36,12.36,0,0,1,23.51.05,12.16,12.16,0,0,1-5,14.07,3.73,3.73,0,0,0-1.89,3.62c.08,8.08,0,16.16,0,24.24Z"/><path class="cls-1" d="M60.57,53.36c-1.67,1.29-3,2.2-4.15,3.21s-2.18,2-4.11,3.85c-1.41-1.78-2.7-3.67-4.25-5.3-3.71-3.87-7.59-7.58-11.32-11.43a3.43,3.43,0,0,0-3.67-1.1,12.27,12.27,0,0,1-14.58-9.36,12.33,12.33,0,0,1,24-5.73,9.9,9.9,0,0,1,.18,4.94c-.72,2.32.26,3.54,1.74,5C49.76,42.6,55,47.88,60.57,53.36Z"/><path class="cls-1" d="M89.38,132.5c0,3.34.07,6.68,0,10a3.81,3.81,0,0,0,2,3.85A12.15,12.15,0,0,1,96,161a12.33,12.33,0,0,1-23.85-3.48,11.51,11.51,0,0,1,5.35-11,4.09,4.09,0,0,0,2.06-4.06c-.09-6.94,0-13.88-.06-20.81,0-1.81.52-2.42,2.38-2.45,7.49-.12,7.49-.18,7.49,7.33Z"/><path class="cls-1" d="M112.66,119.56c3.25-1.13,6.09-2.23,9-3.08a3,3,0,0,1,2.41.7c2.69,2.52,5.29,5.14,7.84,7.8a3.81,3.81,0,0,0,4.08,1.37,12.16,12.16,0,0,1,14.44,9.5,12.39,12.39,0,0,1-9.05,14.57,12.26,12.26,0,0,1-15-9.07c-.42-1.82,0-3.83-.14-5.73a5.49,5.49,0,0,0-1-3.14c-3.55-3.77-7.27-7.38-10.93-11C113.79,120.83,113.23,120.18,112.66,119.56Z"/><path class="cls-1" d="M41,79.8c-1.6,2.91-3,5.7-4.67,8.36a3.21,3.21,0,0,1-2.27,1.18,74.88,74.88,0,0,1-7.64,0,3.8,3.8,0,0,0-3.84,2A12.14,12.14,0,0,1,8,96,12.51,12.51,0,0,1,.15,82.53,12.37,12.37,0,0,1,11.53,72.18a11.63,11.63,0,0,1,11.19,5.59,3.43,3.43,0,0,0,3.4,1.81c4.83-.06,9.66,0,14.48,0C40.76,79.62,40.91,79.75,41,79.8Z"/><path class="cls-1" d="M127.31,79.55c5.34,0,10.05-.08,14.75,0a4.49,4.49,0,0,0,4.48-2.29,12,12,0,0,1,13.75-4.6,12.37,12.37,0,0,1,.05,23.53,12,12,0,0,1-13.77-4.55,4.35,4.35,0,0,0-4.73-2.28c-.17,0-.35,0-.53,0-5.18.7-9.6.08-11.27-6C129.71,82.22,128.56,81.27,127.31,79.55Z"/></g></g></svg>