<svg xmlns="http://www.w3.org/2000/svg" viewBox="0 0 104.63 104.56"><defs><style>.cls-1{fill:#fff;}</style></defs><g id="Layer_2" data-name="Layer 2"><g id="Layer_1-2" data-name="Layer 1"><path class="cls-1" d="M15.31,26.44c0,3.65,0,7,0,10.29,0,.35.5.78.87,1a6.63,6.63,0,0,1,3.42,6.1c0,2.56,0,5.13,0,7.69,0,2.12-.72,2.84-2.86,2.87-2.46,0-4.91,0-7.37,0-2.15,0-2.85-.74-2.87-2.85,0-2.57,0-5.13,0-7.7a6.8,6.8,0,0,1,3.39-6.13,2.31,2.31,0,0,0,.92-1.63c.09-3.33,0-6.66.06-10a1.54,1.54,0,0,0-1.28-1.74q-3.81-1.25-7.56-2.63c-1-.38-2.09-.81-2.07-2.21s1-2,2.12-2.36Q26.67,8.64,51.24.15a5,5,0,0,1,3,.21Q72.07,6.5,89.88,12.73c4.17,1.45,8.34,2.92,12.51,4.35,1.14.4,2.2.91,2.24,2.27s-1,2-2.25,2.43c-7.15,2.48-14.29,5-21.47,7.43-1.25.42-1.57.94-1.41,2.2,1,7.63,2.33,15.23,2.8,22.89.3,4.8,2,9.19,2.62,13.86,2,16.27-9.31,32.26-25.41,35.65a32.7,32.7,0,0,1-39.83-33.2,22.15,22.15,0,0,1,1-6.76C22,60.3,22.11,56.63,22.55,53q1.26-10.32,2.57-20.62c.32-2.42.36-2.42-1.91-3.2Zm59.79,5c-.85.27-1.41.44-2,.63-6.28,2.18-12.57,4.34-18.84,6.57a5.24,5.24,0,0,1-3.78,0c-5.29-1.89-10.6-3.71-15.91-5.55C33,32.54,31.44,32,29.93,31.51c-.2.26-.32.33-.33.42Q28.07,44,26.53,56.11c-.12.93.27,1.26,1.12,1.42,4.44.85,8.84,2,13.31,2.56a92.74,92.74,0,0,0,35.37-2.28c1.76-.45,2-1.21,1.79-2.83-.62-4-1.05-8.12-1.56-12.17C76.09,39.09,75.61,35.37,75.1,31.4ZM9.35,19.28v.66c1.78.35,3.6,1.12,5.34,1,9.83-.8,19.64-1.84,29.47-2.76a2.55,2.55,0,0,0,2.47-1.61,6.3,6.3,0,0,1,6.95-3.43,6.54,6.54,0,0,1,1.27,12.5,6.38,6.38,0,0,1-7.61-2.11A2.2,2.2,0,0,0,45,22.42c-4.82.5-9.66.92-14.49,1.38l-6.81.69c.74.33,1.07.51,1.41.63,8.75,3,17.5,6.1,26.27,9.08a4.13,4.13,0,0,0,2.48-.1Q73.91,27.18,94,20.17c.48-.16.94-.39,1.68-.7-.7-.31-1.12-.52-1.56-.67q-20.24-7-40.47-14a4.41,4.41,0,0,0-2.64,0Q33.9,10.69,16.84,16.64C14.34,17.51,11.85,18.4,9.35,19.28ZM80.57,68.34c-2.24,1.56-3.74,3-3.67,5.6a66.55,66.55,0,0,1,0,8,8.48,8.48,0,0,1-6.78,7.66c-3.19.69-5.53-.9-5.87-4.18a15.41,15.41,0,0,1,.27-3.88c.17-1,.65-2,.86-3,.46-2.2-.46-3.49-2.67-3.79-1.19-.16-2.39-.22-3.58-.34a5.89,5.89,0,0,1-5.52-4.16c-.51-1.57-.75-3.23-1.2-5.26-3.1.16-6.44.29-9.78.53-1.38.1-3.19,0-4,.75s-.64,2.63-.88,4C37,74.82,33.29,77.08,29,75.5a16.52,16.52,0,0,1-3.68-2.33,4.21,4.21,0,0,1-.8-1.11l-.47.41c.46,10,4.73,18.13,13.39,23.41C47.55,102.05,58,102,68,95.45,77.46,89.24,81.34,80,80.57,68.34Zm-1.89-6.55c-.05,0-.1-.06-.15,0A116.93,116.93,0,0,1,58.25,65a1.45,1.45,0,0,0-1,.86,3.29,3.29,0,0,0,2.83,4.24c.6,0,1.2,0,1.8,0,6.18.26,9.35,4.84,7.39,10.7a12.57,12.57,0,0,0-.69,2,17.27,17.27,0,0,0,0,2.5c2.69-.53,4-2,4.13-4.67.1-2.12,0-4.25-.12-6.37a10,10,0,0,1,5.3-9.46C79.74,63.79,79.72,63.77,78.68,61.79Zm-53.17-.23c.06,1.37-.19,2.58.22,3.48a23.24,23.24,0,0,0,3.45,5.79,2.37,2.37,0,0,0,4.19-1c.39-2.06.69-4.13,1-6.26ZM11,50c1.22,0,2.3.06,3.37,0,.32,0,.86-.54.87-.84.06-2,.07-3.91,0-5.86a1.92,1.92,0,0,0-2.06-1.9A1.88,1.88,0,0,0,11,43.18C10.9,45.39,11,47.61,11,50ZM54.5,19.48a2.06,2.06,0,0,0-2.16-2.14,2,2,0,0,0-2.09,2,2.13,2.13,0,1,0,4.25.1Z"/><path class="cls-1" d="M40.86,76.1a10.18,10.18,0,0,1,6.79,3.73,4.55,4.55,0,0,0,3.81,2,4.43,4.43,0,0,1,4.48,3c1.13,3-.08,5.62-3.41,6.63-2.09.63-3.31,1.54-3.88,3.77-.65,2.52-4.07,3-5.81.9a7.27,7.27,0,0,1-1.47-2.53,7.2,7.2,0,0,0-3.72-4.34A7.43,7.43,0,0,1,34,84.77,6.8,6.8,0,0,1,40.86,76.1ZM52.17,86.86c-.59-.47-.7-.63-.84-.66a5.23,5.23,0,0,0-1-.1,6.22,6.22,0,0,1-5.57-2.74c-.86-1.17-2.47-1.87-3.86-2.55a1.8,1.8,0,0,0-2.52.85A2.28,2.28,0,0,0,39,84.77c2.51,1.71,5,3.37,6.36,6.85C46.57,88.2,49.5,88,52.17,86.86Z"/></g></g></svg>