<svg xmlns="http://www.w3.org/2000/svg" viewBox="0 0 106.1 106.08"><defs><style>.cls-1{fill:#fff;}</style></defs><g id="Layer_2" data-name="Layer 2"><g id="Layer_1-2" data-name="Layer 1"><path class="cls-1" d="M20.64,80.76c-1,2.1-2.77,1.52-4,1.17C11.08,80.26,5.56,78.33,0,76.49V41c2.62.15,5.24-.64,7.64,1.14a45.17,45.17,0,0,0,4.56,2.7A6.26,6.26,0,0,0,19,44.25c-5.37-3.92-6.16-9.5-5.14-15.41,1.13-6.59,5.58-9.7,12.22-10.22-.45-1.12-.8-2.15-1.28-3.12a1.5,1.5,0,0,1,.42-2q3.68-3.57,7.27-7.26c.65-.67,1.22-.89,2-.22C37.06,8.38,39.71,9,43,7c1.43-.86,2.57-1.38,2.7-3.2A27.49,27.49,0,0,1,46.49,0h13c.35,1.61.6,3.24,1.09,4.8a3.91,3.91,0,0,0,1.45,1.69c.51.37,1.31.37,1.83.73,2.46,1.74,4.66,1.37,6.74-.63,1.36-1.3,2.42-1,3.65.36,1.95,2.18,4.06,4.23,6.21,6.21A2,2,0,0,1,81,16a20.84,20.84,0,0,0-1.09,2.59c6.58.5,10.92,3.78,12.17,10.22,1.14,5.92.34,11.49-5.52,15.72,2,.53,3.34.9,4.7,1.25a10.49,10.49,0,0,1,2.55.66c2.22,1.23,4.11.51,6-.76A8.06,8.06,0,0,1,106,44.51c0,.54.09,1,.09,1.5,0,7.35,0,14.7,0,22.05a1.91,1.91,0,0,1-1.24,2c-9.4,4.65-18.77,9.37-28.17,14a2.42,2.42,0,0,0-1.54,2.06,5.15,5.15,0,0,1-3.87,4.3A2.41,2.41,0,0,0,70,91.81a5.26,5.26,0,0,1-3.83,3.77A1.54,1.54,0,0,0,64.8,96.9a5.12,5.12,0,0,1-3.9,3.88,1.91,1.91,0,0,0-1.16,1.1c-1.34,4.22-5.62,5.55-9,2.65A2.41,2.41,0,0,0,48,104a5.09,5.09,0,0,1-6.63-3.54,1.94,1.94,0,0,0-1.57-1.57,5.22,5.22,0,0,1-3.69-3.71,2.44,2.44,0,0,0-1.31-1.31,5.73,5.73,0,0,1-3.81-3.83,2.41,2.41,0,0,0-1.35-1.31A5.09,5.09,0,0,1,26,85.2a3.61,3.61,0,0,0-2.09-2.54C22.8,82.11,21.78,81.44,20.64,80.76Zm82-32.6c-.81.38-1.31.59-1.78.84-9.48,5-19,9.94-28.43,15a7,7,0,0,1-5.55.61c-3.19-.92-6.34-2-9.58-2.65a9.63,9.63,0,0,0-5.14.34c-3.32,1.32-6.47,3.08-9.66,4.73a2.46,2.46,0,0,0-1.18,3.49c.66,1.26,2.06,1.57,3.57.71,1.77-1,3.5-2.1,5.26-3.14,3.69-2.17,6.35-1.92,9.51.91q6.54,5.88,13.05,11.77c.67.61,1.2.94,2.16.45,8.93-4.5,17.88-8.94,26.8-13.46a2.22,2.22,0,0,0,.93-1.5,19.75,19.75,0,0,0,0-3ZM51.9,86.79l2.25-2.57,7.52,6.25a19.13,19.13,0,0,0,2,1.53,1.84,1.84,0,0,0,2.65-.43,1.72,1.72,0,0,0-.39-2.5c-.49-.45-1-.86-1.52-1.29l-7.32-6.12,2.25-2.58c3,2.52,5.85,4.9,8.7,7.25,1.27,1,2.7,1.11,3.37.14.86-1.23.22-2.16-.73-3-4.44-4-8.86-8-13.31-12-1.87-1.67-3.19-1.76-5.4-.47-2,1.15-3.84,2.41-5.84,3.46a5.66,5.66,0,0,1-8.44-4.92,5.72,5.72,0,0,1,3.46-5.72l8-4a18,18,0,0,0-10.78-1.39c-3.8.7-7.56,1.61-11.32,2.51A1.91,1.91,0,0,0,25.83,62c-1.42,4.76-2.77,9.54-4.09,14.33a1.39,1.39,0,0,0,.38,1.2c1.46,1,3,1.83,4.7,2.85,1.19-1.28,2.25-2.57,3.46-3.68A5.24,5.24,0,0,1,39,79.11a2.19,2.19,0,0,0,1.61,1.57,4.83,4.83,0,0,1,2.51,1.72,9.58,9.58,0,0,0,4.34,4.42c1.13.59,1.29,2.93,2.42,3.67,1.28.84,3,1.13,3.88,2.58,0,0,.05.1.09.13,1.51,1.29,3,2.64,4.56,3.82a1.81,1.81,0,0,0,2.77-.4c.7-1,.19-1.88-.65-2.59l-1.14-1Zm-15.81-32c2.45,0,4.94-.4,7.24.08,5.6,1.17,11.12,2.72,16.66,4.17,2.78.72,5.52,1.56,8.28,2.34,1.2.34,1.93.15,1.86-1.35s0-3.31,0-5a5.08,5.08,0,0,0-4.18-5.24c-2-.53-3.95-1-5.94-1.49-3.58-.86-3.52-.86-3.6-4.53a3.19,3.19,0,0,1,1.4-2.7A11.71,11.71,0,0,0,61,36.87a13.13,13.13,0,0,0-.1-9.1,8.38,8.38,0,0,0-8.56-5.53,8.16,8.16,0,0,0-7.51,6.42,30.36,30.36,0,0,0-.12,7.07,6.39,6.39,0,0,0,3.09,5.07,3.52,3.52,0,0,1,1.84,4,2.09,2.09,0,0,0,0,.66c.33,1.69-.53,2.28-2.07,2.59-2.65.55-5.27,1.23-7.87,2S35.83,52.68,36.09,54.81ZM91.8,49.89l-.1-.43c-1.48-.38-3-.77-4.44-1.13-3.46-.84-3.42-.83-3.48-4.45a2.64,2.64,0,0,1,1.36-2.7,6.6,6.6,0,0,0,3.43-4.86,23.32,23.32,0,0,0-.11-7.69c-1.47-6.23-8.74-8.28-13.68-4.4-3.84,3-4.16,13.79.19,16.43A3.89,3.89,0,0,1,77,45a5.83,5.83,0,0,0,0,1.32c.08.89-.33,1.25-1.19,1.43-1.49.31-3,.75-4.19,1.08a31.16,31.16,0,0,1,1.77,5,34.69,34.69,0,0,1,.07,5.65Zm-57.6-1.1c-.22-.06-.84-.26-1.47-.41-3.72-.91-3.68-.91-3.71-4.77a3,3,0,0,1,1.28-2.42c1.31-1.26,2.86-2.73,3.28-4.38a20,20,0,0,0,.3-7.52,8.41,8.41,0,0,0-16.7.76,35.71,35.71,0,0,0-.08,4.14,8.48,8.48,0,0,0,4,7.21c.39.26,1,.65,1,1A15.44,15.44,0,0,1,22,47.16c-.15.56-1.79.72-2.75,1.07a4.69,4.69,0,0,0-.6.38c2.05,1.2,3.93,2.45,5.94,3.44s3.3,2.11,2.73,4.53c0,.16.12.38.21.66,1.37-.3,2.68-.51,3.93-.92a1.92,1.92,0,0,0,1-1.17C33.05,53.14,33.57,51.1,34.2,48.79ZM73.93,44.6A37.78,37.78,0,0,1,71,41.55c-3.43-4.59-3.2-9.69-1.85-14.87a2.9,2.9,0,0,0-.3-2.58,18.86,18.86,0,0,0-31.38-.61A3.54,3.54,0,0,0,37,27.43a8.42,8.42,0,0,1,.58,2.9c.45,5.11-.26,9.84-4.61,13.3a4,4,0,0,0-.6.93,5.27,5.27,0,0,0,.49.27A16.6,16.6,0,0,0,45.38,45c1.17-.46.62-.92.12-1.56-1.27-1.64-3-3.18-3.56-5.06a25.66,25.66,0,0,1-.86-7.65,11.87,11.87,0,0,1,23.53-2.34A30.13,30.13,0,0,1,65,34.46,11.64,11.64,0,0,1,62,42c-.7.84-1.32,1.73-2,2.6,1.09.34,2.22.59,3.27,1C66.93,47.19,70.17,45.54,73.93,44.6ZM34.14,22.18a22.55,22.55,0,0,1,37.78,0c1.33-1,3.07-1.78,3.91-3.11,2.2-3.52,2-3.62-.9-6.57l-.58-.59c-2.2-2.21-2.2-2.21-4.88-.46a9.12,9.12,0,0,0-1.1.73,1.61,1.61,0,0,1-2.07.08,25.54,25.54,0,0,0-5.73-2.53,3.74,3.74,0,0,1-3.28-3.57c-.45-2.87-.59-2.85-3.49-2.85-4.49,0-4.51,0-5.43,4.38-.19,1-.69,1.28-1.57,1.6-2.42.9-4.76,2-7.17,2.94a2.56,2.56,0,0,1-1.87-.05c-1.34-.71-2.58-1.61-4-2.53-1.66,1.72-3.23,3.27-4.69,4.92a2.12,2.12,0,0,0-.22,1.57C29.42,19.12,31.6,20.73,34.14,22.18ZM10.43,76.33c.21-.23.27-.27.28-.31,2-7.9,4-15.8,6-23.71a1.22,1.22,0,0,0-.45-1.05C12.53,49,8.77,46.82,5,44.67c-.83-.48-1.63-.51-1.63.86,0,9.15,0,18.31,0,27.47a1.57,1.57,0,0,0,.79,1.19C6.23,75,8.33,75.62,10.43,76.33Zm6.83,2.16c.15-.11.22-.14.23-.18,2.1-7.24,4.21-14.48,6.26-21.73a1.43,1.43,0,0,0-.46-1.22c-1-.68-2.05-1.22-3.2-1.89-.23.73-.41,1.24-.54,1.76q-2.43,9.69-4.84,19.39C13.93,77.73,13.92,77.73,17.26,78.49ZM36,80.35c-.4-.49-.72-1.21-1.22-1.38a2.44,2.44,0,0,0-2,.21,27.61,27.61,0,0,0-3.2,3.11,1.74,1.74,0,0,0,0,2.54,1.78,1.78,0,0,0,2.67.07c1.06-1,2.07-2,3-3A6,6,0,0,0,36,80.35Zm5.21,5.17c-.44-.51-.77-1.23-1.28-1.41a2.43,2.43,0,0,0-2,.18,15.12,15.12,0,0,0-3.14,3.15,2.8,2.8,0,0,0,0,2.49c.6,1,1.75.86,2.61.1,1.06-1,2.06-2,3-3A6.71,6.71,0,0,0,41.21,85.52Zm5.08,5.22c-.37-.51-.67-1.32-1.14-1.44a3,3,0,0,0-2.26.29,20.06,20.06,0,0,0-3,2.88,1.8,1.8,0,0,0,0,2.68,1.74,1.74,0,0,0,2.65,0c1-.94,2-1.92,2.92-2.93A7,7,0,0,0,46.29,90.74Zm.26,10.07c.11,0,.4,0,.53-.14,1.36-1.34,2.77-2.66,4-4.12a1.84,1.84,0,0,0-.34-1.75c-.43-.42-1.56-.8-1.86-.55a25.93,25.93,0,0,0-4.18,4.13C43.92,99.41,45.1,100.86,46.55,100.81Zm5.45.24c.9.89,1.69,1.92,3.08,1.39.51-.2,1.28-1,1.18-1.3A20.62,20.62,0,0,0,54.64,98Z"/></g></g></svg>