<svg xmlns="http://www.w3.org/2000/svg" viewBox="0 0 180.06 160.58"><defs><style>.cls-1{fill:#033676;}</style></defs><g id="Layer_2" data-name="Layer 2"><g id="Layer_1-2" data-name="Layer 1"><path class="cls-1" d="M34,63.74c-4.72,3.58-8.53,6.32-12.16,9.29-1.78,1.46-3.24,1.74-4.76-.07s-5.72-2.3-4-6.48c4.55-11.33,8.91-22.74,13.57-34a5.1,5.1,0,0,1,3.76-2.58q19.61-.28,39.22,0a5.07,5.07,0,0,1,3.72,2.57q7,16.92,13.44,34.06c.43,1.14-.29,3.17-1.15,4.23-1.23,1.51-3.09,2.5-5,4L65.91,63.82c.29,5.48.31,9.85.92,14.13.11.77,2.65,1.7,4.07,1.71,20.83.11,41.67.07,62.5.07h43.33c1.87,0,3.36.15,3.33,2.73s-1.36,2.79-3.31,2.78c-9.62,0-45.34,0-55,0H.27L0,79.73H11.37c6.18,0,12.36.14,18.53-.12C31.07,79.56,33,78,33.16,77,33.74,73,33.72,69,34,63.74Zm26.86-5.27c2.38-2.15,5.82-3.75,6.2-5.9.88-5,.28-10.16.28-16-5.37,1.64-10,3-14.6,4.52a2.59,2.59,0,0,0-1.57,1.75c-.11,7.22-.07,14.44-.07,22.21l11.65-3.51ZM48.93,65c0-7.64,0-14.62-.07-21.6a3,3,0,0,0-1.59-2.2c-4.68-1.58-9.43-2.95-14.9-4.63,1.12,8.43-3.83,17.5,7,21.57L37.27,61.7Z"/><path class="cls-1" d="M53.93,160.55h-46c2-9.17,3.89-18.09,5.72-27,.45-2.17,1.36-3.13,3.74-3.1,9.18.12,18.37,0,27.55.12,1,0,2.85.83,3,1.57C50,141.43,51.91,150.81,53.93,160.55Z"/><path class="cls-1" d="M117.94,160.38c2-9.39,3.73-18.38,5.79-27.31a4.23,4.23,0,0,1,3.12-2.49c9.34-.2,18.69-.23,28,0,1.17,0,3,1.95,3.31,3.28,2,8.64,3.77,17.36,5.69,26.48Z"/><path class="cls-1" d="M109.07,160.58H63.21c2-9.56,3.8-18.79,5.89-28,.21-.9,2-2,3.08-2.05q14-.24,28,0a3.92,3.92,0,0,1,3,2.15C105.21,141.78,107,150.89,109.07,160.58Z"/><path class="cls-1" d="M50,0C57.18,0,62,4.67,62,11.57A12.2,12.2,0,0,1,49.94,23.63a12.41,12.41,0,0,1-12.1-12.08C37.81,4.82,42.88,0,50,0Z"/><path class="cls-1" d="M141,124.15A12.07,12.07,0,1,1,152.91,112,12.08,12.08,0,0,1,141,124.15Z"/><path class="cls-1" d="M43.28,112.14a12.05,12.05,0,1,1-12-12.13A12.11,12.11,0,0,1,43.28,112.14Z"/><path class="cls-1" d="M98.24,112.27A12.09,12.09,0,1,1,86.3,100,12.2,12.2,0,0,1,98.24,112.27Z"/><path class="cls-1" d="M135.48,17.21a23.36,23.36,0,1,1-23.37,23.24A23.39,23.39,0,0,1,135.48,17.21ZM123,55.67c-.05,1.54.86,2.09,2.1,1.45,3-1.58,6-3.15,9-4.81a2.37,2.37,0,0,1,2.66,0c3,1.67,6,3.24,9,4.81,1.36.71,2.26.1,2.14-1.39,0-.37-.1-.72-.16-1.08-.54-3.24-1.05-6.48-1.65-9.7a1.78,1.78,0,0,1,.62-1.8q3.78-3.69,7.51-7.44c.91-.9.9-1.84,0-2.3a4.69,4.69,0,0,0-1.29-.32c-3.25-.48-6.49-1-9.74-1.4a2.05,2.05,0,0,1-1.82-1.3c-1.42-3.09-2.92-6.14-4.46-9.17-.28-.53-.94-1.18-1.43-1.19s-1.17.63-1.44,1.15q-2.32,4.55-4.47,9.17a2.07,2.07,0,0,1-1.79,1.35c-3.29.43-6.57.89-9.85,1.44-.64.1-1.54.48-1.73,1s.3,1.34.74,1.8c2.13,2.22,4.28,4.44,6.57,6.5a3.41,3.41,0,0,1,1.16,3.69C124,49.31,123.52,52.61,123,55.67Z"/><path class="cls-1" d="M146.73,64.33c2.37-1.84,4.83-3.61,7.11-5.58a39.49,39.49,0,0,0,3.06-3.6,1.74,1.74,0,0,1,1.29-.53c3,.35,6,.77,9,1.21a5.48,5.48,0,0,1,1.34.59c-.25.38-.48.79-.76,1.14-1.78,2.22-4,2.55-6.6,1.67a22.91,22.91,0,0,0-2.48-.58c-.82-.18-1.49,0-1.73.88A1.21,1.21,0,0,0,158,61.14c1.69.39,3.4.76,5.11,1a1.7,1.7,0,0,1,1.57,1.24c.61,1.8,1.34,3.56,2,5.35.29.78.13,1.34-.85,1.17a82.19,82.19,0,0,1-19.17-5.66C146.63,64.25,146.59,64.17,146.73,64.33Z"/><path class="cls-1" d="M124.82,64.23c-3.39,1.19-6.39,2.39-9.49,3.28-3.26.94-6.6,1.62-9.92,2.35-1.28.29-1.56-.09-1.11-1.32.64-1.75,1.25-3.52,2-5.22a2.32,2.32,0,0,1,1.37-1.07c1.56-.41,3.17-.63,4.76-1,1.25-.28,1.81-.94,1.52-1.76-.38-1.06-1.2-1-2.1-.78-.71.19-1.42.33-2.13.48-3.87.84-4.06.79-6.87-1.91-.23-.22-.49-.64-.43-.89s.51-.48.82-.53q4.88-.7,9.75-1.32a1,1,0,0,1,.83.29A27.26,27.26,0,0,0,124.82,64.23Z"/><path class="cls-1" d="M101.1,41.86H98.19c-.88,0-1.57-.28-1.62-1.24s.64-1.34,1.51-1.35q3,0,6.07,0c.82,0,1.45.39,1.43,1.3s-.59,1.28-1.44,1.28Z"/><path class="cls-1" d="M169.77,41.86h-3a1.24,1.24,0,0,1-1.4-1.21c-.06-.9.52-1.35,1.36-1.36,2.1,0,4.21,0,6.31,0a1.23,1.23,0,0,1,1.35,1.27c0,.88-.58,1.29-1.43,1.3C171.88,41.87,170.83,41.86,169.77,41.86Z"/><path class="cls-1" d="M108.79,12.46a8.7,8.7,0,0,1,1.21.81c1.39,1.35,2.75,2.74,4.13,4.11.61.62.91,1.32.24,2s-1.39.51-2-.12c-1.44-1.43-2.91-2.83-4.26-4.33a2.09,2.09,0,0,1-.35-1.59C107.8,13,108.39,12.78,108.79,12.46Z"/><path class="cls-1" d="M157.32,19.92c-.31-.25-.79-.45-.92-.8a1.54,1.54,0,0,1,.08-1.32c1.58-1.68,3.2-3.33,4.91-4.87a1.6,1.6,0,0,1,1.57.15,1.61,1.61,0,0,1,.12,1.57c-1.55,1.7-3.21,3.3-4.86,4.91A3,3,0,0,1,157.32,19.92Z"/><path class="cls-1" d="M136.74,6.21v3c0,.85-.4,1.44-1.28,1.44s-1.27-.59-1.27-1.44q0-3.09,0-6.18c0-.86.43-1.4,1.33-1.37s1.2.57,1.21,1.37C136.74,4.11,136.73,5.16,136.74,6.21Z"/><path class="cls-1" d="M120,6.85c.38-.41.67-1,1-1.07a1.66,1.66,0,0,1,1.44.45,25.15,25.15,0,0,1,1.7,4.12,1.59,1.59,0,0,1-.68,1.33,1.4,1.4,0,0,1-1.36-.22C121.41,10,120.78,8.49,120,6.85Z"/><path class="cls-1" d="M150.85,6.93c-.73,1.61-1.34,3.11-2.11,4.53a1.43,1.43,0,0,1-1.36.22,1.6,1.6,0,0,1-.69-1.33,24.05,24.05,0,0,1,1.66-4,1.69,1.69,0,0,1,1.44-.46C150.17,5.94,150.46,6.52,150.85,6.93Z"/><path class="cls-1" d="M165.39,29.61c-.41-.35-1-.62-1.09-1s.08-1.28.4-1.45a25.44,25.44,0,0,1,4.1-1.73c.35-.11,1.09.33,1.31.72a1.42,1.42,0,0,1-.23,1.37C168.48,28.28,167,28.89,165.39,29.61Z"/><path class="cls-1" d="M105.55,29.61c-1.61-.72-3.07-1.29-4.44-2a1.53,1.53,0,0,1-.28-1.46,1.55,1.55,0,0,1,1.33-.68,23.69,23.69,0,0,1,4,1.68,1.59,1.59,0,0,1,.5,1.41C106.56,28.94,106,29.23,105.55,29.61Z"/><path class="cls-1" d="M150.76,35.78c-.64.53-1.31,1-1.91,1.62-1.52,1.46-3,3-4.51,4.42a2.69,2.69,0,0,0-.94,2.79c.52,2.67.93,5.35,1.38,8,.05.27.06.54.11,1l-2.37-1.22c-1.9-1-3.82-2-5.68-3a2.45,2.45,0,0,0-2.71,0c-2.25,1.28-4.57,2.46-6.86,3.67-.35.18-.71.34-1.29.61.37-2.26.71-4.31,1-6.36a5.56,5.56,0,0,1,.2-1.08c.92-2.41,0-4.09-1.88-5.66s-3.32-3.3-5.17-5.17l5.51-.84c1.29-.19,2.57-.4,3.85-.56a2,2,0,0,0,1.73-1.3c1.32-2.78,2.69-5.54,4.15-8.55.29.52.49.84.65,1.17,1.14,2.33,2.33,4.64,3.38,7a2.78,2.78,0,0,0,2.48,1.78c2.85.36,5.69.81,8.53,1.22Z"/></g></g></svg>