<svg xmlns="http://www.w3.org/2000/svg" width="65.73" height="74.478" viewBox="0 0 65.73 74.478"><path d="M34.229,153.91l-10.748-6.143-.007,11.549a1.543,1.543,0,0,0,.777,1.34l9.97,5.7Z" transform="translate(-22.859 -104.389)" fill="#e0ebfc"/><path d="M34.238,113.783,23.5,107.644v12.38l10.748,6.143Zm.007,12.384,10.748,6.143-.007,12.436L34.238,138.61Z" transform="translate(-22.874 -76.645)" fill="#023676"/><path d="M69.056,133.683,58.308,127.54l.007,12.383,10.748,6.143Z" transform="translate(-46.944 -90.403)" fill="#4671c6"/><path d="M69.056,93.6,58.308,87.467V99.831l10.748,6.143Z" transform="translate(-46.944 -62.694)" fill="#023676"/><path d="M103.89,153.569l-10.748-6.143.007,12.384,10.748,6.143Z" transform="translate(-71.031 -104.153)" fill="#e0ebfc"/><path d="M103.89,113.482l-10.748-6.129v12.364l10.748,6.143Z" transform="translate(-71.031 -77.678)" fill="#f9ab20"/><path d="M197.657,153.91l10.748-6.143.007,11.549a1.543,1.543,0,0,1-.777,1.34l-9.97,5.7Z" transform="translate(-143.299 -104.389)" fill="#023676"/><path d="M197.664,113.783l10.74-6.139v12.38l-10.748,6.143Z" transform="translate(-143.299 -76.645)" fill="#e0ebfc"/><path d="M173.571,167.676l-10.748,6.143.007,12.436,10.748-6.135Z" transform="translate(-119.212 -119.389)" fill="#f9ab20"/><path d="M162.83,133.683l10.748-6.143-.007,12.384-10.748,6.143Z" transform="translate(-119.212 -90.403)" fill="#4671c6"/><path d="M162.846,93.6l10.748-6.129V99.831l-10.748,6.143Z" transform="translate(-119.228 -62.694)" fill="#f9ab20"/><path d="M128,153.569l10.748-6.143-.007,12.384-10.748,6.143Z" transform="translate(-95.125 -104.153)" fill="#a4c9ff"/><path d="M128.012,113.482l10.748-6.129v12.364l-10.748,6.143Z" transform="translate(-95.142 -76.444)" fill="#023676"/><path d="M102.679,205.444a2.467,2.467,0,0,0,1.213.323l0-12.061-10.744-6.143-.006,12.444Z" transform="translate(-71.033 -133.14)" fill="#f9ab20"/><path d="M129.212,205.444a2.467,2.467,0,0,1-1.213.323l0-12.061,10.744-6.143.006,12.444Z" transform="translate(-95.131 -131.906)" fill="#023676"/><path d="M93.166,14.923l10.748,6.129,10.741-6.129-9.518-5.431a2.468,2.468,0,0,0-2.446,0l-9.525,5.431Z" transform="translate(-71.047 -8.553)" fill="#e0ebfc"/><path d="M69.079,27.821,58.331,33.95,69.061,40.1,79.827,33.95Zm10.758,18.4L69.072,52.36,79.83,58.488,90.578,52.36Z" transform="translate(-46.96 -21.451)" fill="#4671c6"/><path d="M55.751,73.692l10.741-6.147L77.24,73.692,66.492,79.827ZM23.5,68.458V79.917l10.741,6.139V73.692L23.706,67.683a1.544,1.544,0,0,0-.209.776Z" transform="translate(-22.874 -48.918)" fill="#a4c9ff"/><path d="M34.713,47.684l-9.971,5.7a1.541,1.541,0,0,0-.568.564l10.531,6.009L45.444,53.83Z" transform="translate(-23.343 -35.185)" fill="#e0ebfc"/><path d="M208.212,67.991,197.681,74V86.364l10.741-6.139V68.767A1.544,1.544,0,0,0,208.212,67.991Z" transform="translate(-143.315 -49.227)" fill="#023676"/><path d="M184.125,53.949a1.543,1.543,0,0,0-.568-.564l-9.974-5.7-10.737,6.128,10.748,6.147Z" transform="translate(-119.228 -35.185)" fill="#f9ab20"/><path d="M69.045,67.6l10.776,6.129L69.056,79.868,58.308,73.733Z" transform="translate(-46.944 -48.959)" fill="#a4c9ff"/><path d="M103.874,47.684,93.108,53.83l10.776,6.129,10.741-6.147Z" transform="translate(-71.007 -35.185)" fill="#023676"/><path d="M138.741,27.821l10.748,6.129-10.737,6.128L128,33.95Z" transform="translate(-95.133 -21.451)" fill="#4671c6"/><path d="M32.841,165.587a.614.614,0,0,1-.306-.081l-9.97-5.7a2.164,2.164,0,0,1-1.088-1.876l.006-11.549a.616.616,0,0,1,.923-.535l10.748,6.143a.617.617,0,0,1,.311.536l-.007,12.444a.616.616,0,0,1-.617.617ZM22.717,147.446l-.006,10.486a.927.927,0,0,0,.466.8l9.047,5.17.006-11.023Z" transform="translate(-21.477 -103.005)" fill="#3762cc"/><path d="M32.862,125.4a.615.615,0,0,1-.306-.081l-10.748-6.143a.617.617,0,0,1-.311-.536v-12.38a.618.618,0,0,1,.923-.536l10.741,6.139a.617.617,0,0,1,.311.535l.007,12.384a.616.616,0,0,1-.617.617Zm-10.131-7.118,9.513,5.437-.006-10.961-9.507-5.433v10.958Z" transform="translate(-21.491 -75.264)" fill="#3762cc"/><path d="M67.673,185.488a.613.613,0,0,1-.306-.081l-10.748-6.135a.617.617,0,0,1-.311-.536l.007-12.444a.616.616,0,0,1,.923-.535L67.986,171.9a.617.617,0,0,1,.311.536l-.007,12.436A.617.617,0,0,1,67.673,185.488Zm-10.13-7.11,9.514,5.431.006-11.015-9.514-5.438-.006,11.023Z" transform="translate(-45.561 -116.772)" fill="#3762cc"/><path d="M67.68,145.3a.615.615,0,0,1-.306-.081l-10.748-6.143a.617.617,0,0,1-.311-.535l-.007-12.384a.616.616,0,0,1,.923-.536l10.748,6.143a.617.617,0,0,1,.311.535l.007,12.384a.616.616,0,0,1-.617.618Zm-10.131-7.118,9.513,5.437-.006-10.961-9.513-5.437.006,10.961Z" transform="translate(-45.561 -89.018)" fill="#3762cc"/><path d="M67.673,105.208a.615.615,0,0,1-.306-.081L56.619,98.984a.617.617,0,0,1-.311-.536V86.084a.617.617,0,0,1,.923-.536l10.748,6.129a.617.617,0,0,1,.312.536v12.379a.618.618,0,0,1-.617.617ZM57.542,98.09l9.513,5.437V92.571l-9.513-5.424Z" transform="translate(-45.561 -61.311)" fill="#3762cc"/><path d="M102.514,165.187a.615.615,0,0,1-.306-.081L91.46,158.963a.617.617,0,0,1-.311-.535l-.007-12.384a.616.616,0,0,1,.923-.536l10.748,6.143a.617.617,0,0,1,.311.535l.007,12.384a.616.616,0,0,1-.617.617Zm-10.131-7.118,9.513,5.437-.006-10.961-9.513-5.437Z" transform="translate(-69.648 -102.77)" fill="#3762cc"/><path d="M54.35,97.877a.615.615,0,0,1-.306-.081L43.3,91.652a.617.617,0,0,1-.311-.536V78.753a.617.617,0,0,1,.923-.536l10.748,6.128a.617.617,0,0,1,.312.536V97.259A.618.618,0,0,1,54.35,97.877ZM44.219,90.759,53.733,96.2V85.24l-9.514-5.425Zm10.132,31.563h0a3.087,3.087,0,0,1-1.517-.4L43.3,116.481a.617.617,0,0,1-.312-.536l.006-12.444a.617.617,0,0,1,.923-.535l10.744,6.143a.617.617,0,0,1,.311.536l0,12.061a.617.617,0,0,1-.617.617Zm-.908-1.477a1.864,1.864,0,0,0,.291.134l0-10.978-9.51-5.437-.006,11.023ZM32.855,85.6a.615.615,0,0,1-.306-.081L21.808,79.378a.617.617,0,0,1-.311-.536V67.384A2.16,2.16,0,0,1,21.79,66.3a.617.617,0,0,1,.839-.225L33.16,72.081a.617.617,0,0,1,.311.536V84.981a.618.618,0,0,1-.617.617ZM22.731,78.484l9.506,5.433V72.975l-9.506-5.424Zm53.125,31.941a.616.616,0,0,1-.617-.617l-.007-12.444a.617.617,0,0,1,.311-.536l10.748-6.143a.616.616,0,0,1,.923.535l.006,11.549a2.165,2.165,0,0,1-1.088,1.876l-9.97,5.7A.618.618,0,0,1,75.857,110.425Zm.61-12.7.006,11.023,9.047-5.17a.927.927,0,0,0,.466-.8L85.98,92.285l-9.514,5.437Z" transform="translate(-21.491 -47.844)" fill="#023676"/><path d="M196.274,125.4a.617.617,0,0,1-.617-.617l.007-12.384a.617.617,0,0,1,.311-.535l10.741-6.139a.618.618,0,0,1,.923.536v12.38a.617.617,0,0,1-.311.536L196.58,125.32A.615.615,0,0,1,196.274,125.4Zm.624-12.642-.006,10.961,9.513-5.437V107.326Z" transform="translate(-141.916 -75.264)" fill="#3762cc"/><path d="M161.447,185.487a.617.617,0,0,1-.617-.617l-.007-12.436a.617.617,0,0,1,.311-.536l10.748-6.143a.616.616,0,0,1,.923.535l.007,12.444a.617.617,0,0,1-.311.536l-10.748,6.135A.615.615,0,0,1,161.447,185.487Zm.61-12.695.006,11.015,9.514-5.431-.006-11.023Z" transform="translate(-117.829 -116.771)" fill="#3762cc"/><path d="M161.439,145.3a.617.617,0,0,1-.617-.617l.007-12.384a.617.617,0,0,1,.311-.535l10.748-6.143a.617.617,0,0,1,.923.536l-.007,12.384a.617.617,0,0,1-.311.535l-10.748,6.143A.614.614,0,0,1,161.439,145.3Zm.625-12.642-.007,10.961,9.514-5.437.006-10.961Z" transform="translate(-117.829 -89.02)" fill="#3762cc"/><path d="M161.464,105.208a.617.617,0,0,1-.617-.617V92.212a.617.617,0,0,1,.312-.536l10.748-6.129a.617.617,0,0,1,.923.536V98.448a.617.617,0,0,1-.311.536l-10.748,6.143A.613.613,0,0,1,161.464,105.208Zm.617-12.637v10.957l9.514-5.437V87.146Z" transform="translate(-117.846 -61.311)" fill="#3762cc"/><path d="M126.605,165.188a.617.617,0,0,1-.617-.617L126,152.187a.617.617,0,0,1,.311-.535l10.748-6.143a.617.617,0,0,1,.923.536l-.007,12.384a.617.617,0,0,1-.311.535l-10.748,6.143A.615.615,0,0,1,126.605,165.188Zm.624-12.642-.006,10.961,9.513-5.437.006-10.961Z" transform="translate(-93.742 -102.771)" fill="#3762cc"/><path d="M102.535,57.207a.617.617,0,0,1-.617-.617V44.212a.617.617,0,0,1,.312-.536l10.748-6.128a.617.617,0,0,1,.923.536V50.448a.617.617,0,0,1-.311.536l-10.748,6.143A.613.613,0,0,1,102.535,57.207Zm.617-12.637V55.527l9.514-5.437V39.146Zm-.62,37.082a.617.617,0,0,1-.617-.617l0-12.061a.618.618,0,0,1,.311-.536L112.968,62.3a.617.617,0,0,1,.923.535l.006,12.444a.617.617,0,0,1-.312.536l-9.534,5.437h0a3.088,3.088,0,0,1-1.517.4h0Zm.615-12.321,0,10.978a1.848,1.848,0,0,0,.291-.134h0l9.223-5.259-.006-11.023Zm20.883-24.4a.617.617,0,0,1-.617-.617V31.948a.617.617,0,0,1,.311-.536L134.256,25.4a.618.618,0,0,1,.839.225,2.163,2.163,0,0,1,.293,1.086V38.173a.617.617,0,0,1-.311.536l-10.741,6.139A.616.616,0,0,1,124.031,44.929Zm.617-12.623V43.248l9.506-5.433V26.882ZM102.532,20.29a.612.612,0,0,1-.305-.081L91.479,14.081a.617.617,0,0,1,0-1.072L101,7.578a3.1,3.1,0,0,1,3.057,0l9.518,5.431a.617.617,0,0,1,0,1.072l-10.741,6.128A.614.614,0,0,1,102.532,20.29Zm-9.5-6.746,9.5,5.418,9.5-5.418L103.448,8.65a1.859,1.859,0,0,0-1.834,0Z" transform="translate(-69.665 -7.175)" fill="#3762cc"/><path d="M67.678,39.33a.614.614,0,0,1-.307-.082L56.641,33.1a.616.616,0,0,1,0-1.071L67.39,25.9a.615.615,0,0,1,.611,0L78.749,32.03a.617.617,0,0,1,0,1.072L67.984,39.248A.618.618,0,0,1,67.678,39.33Zm-9.487-6.762L67.678,38l9.52-5.435-9.5-5.418-9.5,5.419ZM79.4,54.178a.614.614,0,0,1-.233-.046L67.455,49.361a.617.617,0,0,1,0-1.143l11.716-4.777a.618.618,0,0,1,.467,0l11.689,4.777a.618.618,0,0,1,0,1.143l-11.7,4.772a.62.62,0,0,1-.234.046ZM69.323,48.789,79.4,52.895,89.46,48.789,79.4,44.679Z" transform="translate(-45.577 -20.068)" fill="#3762cc"/><path d="M65.579,65.328a.617.617,0,0,1-.306-.081L54.531,59.111a.617.617,0,0,1,0-1.072l10.741-6.146a.616.616,0,0,1,.613,0l10.748,6.146a.617.617,0,0,1,0,1.072L65.884,65.247A.618.618,0,0,1,65.579,65.328Zm-9.5-6.754L65.578,64l9.5-5.426-9.5-5.435Zm-22.756.618a.614.614,0,0,1-.306-.081L22.487,53.1a.617.617,0,0,1-.228-.846,2.164,2.164,0,0,1,.795-.789l9.97-5.7a.617.617,0,0,1,.613,0l10.73,6.146a.617.617,0,0,1,0,1.071L33.63,59.111a.618.618,0,0,1-.306.081Zm-9.5-6.746,9.5,5.419,9.494-5.419-9.487-5.434Z" transform="translate(-21.96 -33.802)" fill="#3762cc"/><path d="M67.672,79.1a.616.616,0,0,1-.306-.081L56.619,72.885a.617.617,0,0,1,0-1.072l10.737-6.129a.615.615,0,0,1,.611,0l10.776,6.129a.617.617,0,0,1,0,1.072L67.977,79.022A.618.618,0,0,1,67.672,79.1Zm-9.5-6.753,9.5,5.425,9.518-5.425-9.529-5.419Z" transform="translate(-45.561 -47.576)" fill="#3762cc"/><path d="M102.5,59.193a.613.613,0,0,1-.3-.081L91.421,52.983a.617.617,0,0,1,0-1.072l10.766-6.146a.616.616,0,0,1,.611,0l10.752,6.128a.617.617,0,0,1,0,1.072l-10.741,6.146A.613.613,0,0,1,102.5,59.193Zm-9.53-6.747,9.529,5.419L112,52.43l-9.507-5.419Z" transform="translate(-69.625 -33.802)" fill="#3762cc"/><path d="M137.369,39.311a.615.615,0,0,1-.305-.081L126.312,33.1a.617.617,0,0,1,0-1.072L137.052,25.9a.616.616,0,0,1,.611,0l10.748,6.128a.617.617,0,0,1,0,1.072L137.675,39.23A.615.615,0,0,1,137.369,39.311Zm-9.506-6.745,9.506,5.418,9.492-5.418-9.5-5.418Z" transform="translate(-93.751 -20.068)" fill="#3762cc"/><path d="M172.213,59.192a.616.616,0,0,1-.306-.081l-10.748-6.146a.617.617,0,0,1,0-1.072L171.9,45.765a.616.616,0,0,1,.612,0l9.974,5.7a2.163,2.163,0,0,1,.8.789.616.616,0,0,1-.228.846l-10.531,6.009A.622.622,0,0,1,172.213,59.192Zm-9.5-6.763,9.5,5.436,9.5-5.418L172.2,47.011Z" transform="translate(-117.847 -33.802)" fill="#3762cc"/></svg>