<?xml version="1.0" encoding="utf-8"?>
<!-- Generator: Adobe Illustrator 26.5.0, SVG Export Plug-In . SVG Version: 6.00 Build 0)  -->
<svg version="1.1" id="Layer_1" xmlns="http://www.w3.org/2000/svg" xmlns:xlink="http://www.w3.org/1999/xlink" x="0px" y="0px"
	 viewBox="0 0 512 512" style="enable-background:new 0 0 512 512;" xml:space="preserve">
<style type="text/css">
	.st0{fill:#3055A5;}
	.st1{fill:#F1F0F0;}
	.st2{fill:#204899;}
	.st3{fill:#214898;}
	.st4{fill:#D1D0D0;}
	.st5{fill:#D8D8D8;}
	.st6{fill:#224A9A;}
	.st7{fill:#1F4796;}
	.st8{fill:#B6B5B5;}
	.st9{fill:#16244B;}
	.st10{fill:#101E40;}
	.st11{fill:#23366E;}
	.st12{fill:#9E9E9E;}
	.st13{fill:#202F5F;}
	.st14{fill:#243A76;}
	.st15{fill:#1E2C5A;}
	.st16{fill:#1C2955;}
	.st17{fill:#0D1B3A;}
	.st18{fill:#0C1A37;}
	.st19{fill:#494949;}
	.st20{fill:#101E41;}
	.st21{fill:#D12227;}
	.st22{fill:#F8F9FA;}
	.st23{fill:#66B946;}
	.st24{fill:#F79421;}
	.st25{fill:#E0E0E0;}
	.st26{fill:#E0E0DF;}
	.st27{fill:#C87929;}
	.st28{fill:#59A545;}
	.st29{fill:#E38726;}
	.st30{fill:#396631;}
	.st31{fill:#807F80;}
	.st32{fill:#36602F;}
	.st33{fill:#6F6E6F;}
</style>
<g>
	<g>
		<path class="st0" d="M144.6,363.3c-0.2,0-0.4,0-0.5,0c-0.5-0.1-1-0.1-1.4,0c-1,0-1.9,0-2.9,0c-0.5-0.1-1.1-0.1-1.6,0
			c-0.2,0-0.4,0-0.5,0c-0.3-0.2-0.6,0-0.9-0.1c-0.3,0-0.6,0-0.8,0c-8.2,0-16.2-1.5-24-3.7c-6.5-1.8-12.8-4.3-18.9-7.3
			C84.6,348,77,342.8,70,336.7c-8.9-7.8-16.3-16.9-22.2-27.2c-6.9-12-11.3-24.9-13.2-38.6c-0.4-3.1-0.7-6.3-0.7-9.4
			c0-0.3,0-0.6,0-0.8c0-0.3,0.1-0.6-0.1-0.9c0-0.2,0-0.4,0-0.5c0.2-0.7,0.2-1.4,0-2.1c0-0.4,0-0.7,0-1.1c0.3-0.2,0.6-0.3,0.9-0.3
			c4.3,0,8.7-0.1,13,0c0.3,0,0.6-0.1,0.9-0.1c8.7,0,17.5,0,26.2,0c0.3,0,0.5,0,0.8,0c4.2,0,8.5,0,12.7,0c1.2,0,1.2,0,1.2-1.2
			c0-9.4,0-18.8,0-28.3c0-0.6-0.3-1.4,0.3-1.7c0.7-0.3,1,0.5,1.5,1c9.7,9.7,19.4,19.4,29.1,29.1c0.8,0.8,1.6,1.1,2.7,1.1
			c5.5,0,11,0,16.5,0c0.4,0,0.9,0.2,1.2-0.3c0-4.2,0-8.3,0-12.4c0.1-2,0-4,0-6c0-0.4-0.2-0.8-0.5-1.1s-0.5-0.5-0.8-0.8
			c-9.7-9.7-19.3-19.3-29-29c-0.4-0.4-1.1-0.8-0.9-1.3c0.2-0.6,1-0.4,1.6-0.4c9.4,0,18.8,0,28.2,0c1.4,0,1.4,0,1.4-1.4
			c0-4.2,0-8.3,0-12.5c-0.1-0.4,0-0.9,0-1.3c0-8.5,0-16.9,0-25.4c0-0.4,0-0.8,0.1-1.2c-0.1-3.9,0-7.8,0-11.6c0-0.4,0-0.9,0-1.3
			c0-0.4,0.1-0.7,0.3-1c0.5,0,1,0,1.4,0c0.5,0.2,1.1,0,1.6,0.1c0.4,0,0.8,0,1.2,0s0.8,0,1.2,0c7.6,0,15.1,1.4,22.4,3.3
			c7.3,1.9,14.2,4.6,20.9,8c7.4,3.8,14.3,8.3,20.7,13.7c2.9,2.5,5.7,5,8.3,7.8c6.2,6.6,11.6,13.8,16.1,21.7
			c3.5,6.3,6.4,12.8,8.6,19.7c2.2,6.9,3.7,13.9,4.5,21c0.2,2.3,0.3,4.6,0.3,6.9c0,0.4,0,0.8,0,1.2c0,0.3,0,0.6,0,0.9
			c0,0.7-0.1,1.3,0.1,2c0,0.7,0,1.4,0,2.1c-0.1,0.7-0.1,1.4,0,2.1c0,0.2,0,0.4,0,0.5c-0.2,0.3,0,0.6-0.1,0.9c0,0.3,0,0.6,0,0.8
			c0,8-1.5,15.9-3.7,23.6c-1.8,6.7-4.4,13.1-7.5,19.3c-4.2,8.2-9.3,15.8-15.4,22.7c-7.8,8.9-16.9,16.3-27.2,22.2
			c-10.7,6.2-22.2,10.3-34.4,12.5c-4.6,0.8-9.2,1.4-13.8,1.4c-0.3,0-0.6,0-0.8,0C145.3,363.3,144.9,363.2,144.6,363.3z"/>
		<path class="st1" d="M88.4,162.6c3.2-2,6.7-3.6,10.1-5.1c7.7-3.4,15.6-5.7,23.8-7.2c4.3-0.8,8.6-1.3,13-1.5c0.2,0,0.4,0.1,0.4-0.2
			c0.5,0,1.1,0,1.6,0c0.5,0.2,1,0,1.5,0.1c0.6-0.1,1.2,0.1,1.8-0.1c0.2,0,0.4,0,0.5,0c0,4.7,0,9.3,0,14c-0.5,0.4-1,0.3-1.5,0.3
			c-5.5,0-11,0-16.5,0c-11,0-22,0-33,0C89.5,162.9,88.9,163.1,88.4,162.6z"/>
		<path class="st1" d="M34,250.4c0.9-16.5,5.3-32,13.3-46.4c0.2-0.3,0.3-0.5,0.5-0.8c0.3,0.2,0.3,0.6,0.3,0.9c0,0.3,0,0.7,0,1
			c0,16.4,0,32.7,0,49.1c0,0.6,0.1,1.3-0.3,1.8c-4.7,0-9.3,0-14,0c0-0.4,0-0.7,0-1.1c0.2-0.6,0-1.3,0.1-1.9c0-0.4,0.1-0.8-0.1-1.1
			c0-0.2,0-0.4,0-0.5C34,251.1,33.8,250.7,34,250.4z"/>
		<path class="st2" d="M248.5,259.2c-0.3-0.7-0.3-1.4,0-2.1C248.5,257.8,248.5,258.5,248.5,259.2z"/>
		<path class="st3" d="M33.8,257.1c0.3,0.7,0.3,1.4,0,2.1C33.8,258.5,33.8,257.8,33.8,257.1z"/>
		<path class="st2" d="M248.5,254.9c-0.4-0.6-0.1-1.3-0.2-2c0.1-0.1,0.1-0.1,0.2,0C248.5,253.6,248.5,254.3,248.5,254.9z"/>
		<path class="st4" d="M34,252.9c0,0.7,0.2,1.4-0.2,2c0-0.7,0-1.3,0-2C33.9,252.9,33.9,252.9,34,252.9z"/>
		<path class="st5" d="M140.6,148.7c-0.6,0.4-1.2,0.1-1.8,0.2c0,0-0.1-0.1,0-0.1c0,0,0,0,0.1,0C139.4,148.7,140,148.7,140.6,148.7z"
			/>
		<path class="st6" d="M144.2,148.8c-0.5,0-1.1,0.2-1.6-0.2c0.5,0,1.1,0,1.6,0C144.3,148.7,144.3,148.7,144.2,148.8
			C144.3,148.8,144.3,148.8,144.2,148.8z"/>
		<path class="st7" d="M138.1,363.3c0.5-0.3,1.1-0.3,1.6,0C139.2,363.3,138.7,363.3,138.1,363.3z"/>
		<path class="st8" d="M138.8,148.7c0,0.1,0,0.1,0,0.2c-0.5-0.1-1,0.2-1.4-0.2C137.9,148.7,138.4,148.7,138.8,148.7z"/>
		<path class="st7" d="M142.6,363.3c0.5-0.3,1-0.3,1.4,0C143.6,363.3,143.1,363.3,142.6,363.3z"/>
		<path class="st9" d="M248.4,250.8h0.1c0,0.4,0,0.8,0,1.3c-0.1,0.1-0.1,0.1-0.2,0C248.4,251.6,248.4,251.2,248.4,250.8z"/>
		<path class="st10" d="M146.7,148.7c0,0.1,0,0.1,0,0.2c-0.4,0-0.8,0-1.2,0c-0.1,0-0.1-0.1-0.1-0.1s0-0.1,0.1-0.1
			C145.9,148.7,146.3,148.7,146.7,148.7z"/>
		<path class="st11" d="M145.5,148.7c0,0.1,0,0.1,0,0.2c-0.4,0-0.8,0-1.2,0c0-0.1,0-0.1,0-0.2C144.6,148.7,145.1,148.7,145.5,148.7z
			"/>
		<path class="st12" d="M34,252.9c-0.1,0-0.1,0-0.2,0c0-0.4,0-0.7,0-1.1C34.2,252.2,33.9,252.6,34,252.9z"/>
		<path class="st13" d="M144.6,363.3c0.3-0.3,0.7-0.1,1.1-0.2c0.1,0,0.1,0.1,0.1,0.1s0,0-0.1,0C145.3,363.3,144.9,363.3,144.6,363.3
			z"/>
		<path class="st14" d="M248.4,252c0.1,0,0.1,0,0.2,0c0,0.3,0,0.6,0,0.9h-0.1h-0.1C248.3,252.6,248.4,252.3,248.4,252z"/>
		<path class="st15" d="M33.8,259.8c0.3,0.3,0.2,0.6,0.2,0.9c-0.1,0.1-0.1,0.1-0.2,0C33.8,260.4,33.8,260.1,33.8,259.8z"/>
		<path class="st16" d="M248.4,260.7c0-0.3-0.1-0.6,0.2-0.9c0,0.3,0,0.6,0,0.9C248.5,260.7,248.4,260.7,248.4,260.7z"/>
		<path class="st17" d="M33.8,260.7c0.1,0,0.1,0,0.2,0c0,0.3,0,0.6,0,0.9h-0.1C33.8,261.2,33.8,260.9,33.8,260.7z"/>
		<path class="st18" d="M248.4,260.7c0.1,0,0.1,0,0.2,0c0,0.3,0,0.6,0,0.9h-0.1C248.4,261.3,248.4,261,248.4,260.7z"/>
		<path class="st19" d="M34,250.4c0,0.3,0.2,0.6-0.1,0.9C33.9,251,33.9,250.7,34,250.4C33.9,250.5,33.9,250.4,34,250.4z"/>
		<path class="st20" d="M135.8,363.3v-0.1c0.3,0,0.6,0,0.9,0c0.1,0,0.1,0.1,0.1,0.1s0,0.1-0.1,0.1
			C136.4,363.3,136.1,363.3,135.8,363.3z"/>
		<path class="st13" d="M136.7,363.3c0-0.1,0-0.1,0-0.2c0.3,0,0.6-0.1,0.9,0.2C137.3,363.3,137,363.3,136.7,363.3z"/>
		<path class="st20" d="M145.6,363.3c0-0.1,0-0.1,0-0.2c0.3,0,0.6,0,0.9,0v0.1C146.2,363.3,145.9,363.3,145.6,363.3z"/>
		<path class="st21" d="M47.8,256c0-17.3,0-34.6,0-51.9c0-0.3,0-0.6,0-0.9c0.3-1,1-1.9,1.5-2.8c3.7-6.1,8-11.7,12.8-17
			c7.5-8.2,16.1-15,25.6-20.6c0.2-0.1,0.4-0.2,0.7-0.3c0.3,0,0.6,0,0.9,0c17.3,0,34.6,0,51.9,0c0,0.3,0,0.6,0,0.9
			c0,8.8,0,17.5,0,26.3c0,0.3,0,0.6,0,0.9c-0.3,0.3-0.6,0.3-1,0.3s-0.8,0-1.3,0c-20.3,0-40.6,0-60.9,0c-1.9,0-1.8-0.1-1.8,1.8
			c0,20.4,0,40.8,0,61.3c0,0.6,0.2,1.3-0.3,1.9c-0.5,0-1,0-1.5,0c-8.5,0-17,0-25.5,0C48.5,256,48.2,256,47.8,256z"/>
		<path class="st1" d="M75.9,256c0-21.5,0-42.9,0-64.4c0-0.7,0.2-0.9,0.9-0.9c21.5,0,42.9,0,64.4,0c0,4.5,0,8.9,0,13.4
			c0,0.5-0.2,0.6-0.6,0.6c-0.2,0-0.4,0-0.6,0c-9.7,0-19.4,0-29.1,0c-0.3,0-0.6,0-1,0c0.1,0.4,0.4,0.6,0.6,0.8
			c10,10,20,20.1,30.1,30.1c0.5,0.5,0.7,0.9,0.6,1.6c-0.1,1.9,0,3.8-0.1,5.6c-0.6,0.1-0.8-0.4-1.1-0.7c-3.9-3.8-7.7-7.7-11.6-11.6
			c-8.2-8.2-16.5-16.4-24.7-24.7c-0.7-0.7-1.3-1-2.3-0.9c-3.6,0-7.2,0-10.9,0c0.2,0.4,0.4,0.5,0.6,0.8
			c16.3,16.3,32.6,32.6,48.9,48.9c0.4,0.4,0.9,0.7,1,1.4c-0.3,0.2-0.6,0.1-1,0.1c-6,0-12,0-18,0c-0.6,0-1-0.2-1.4-0.6
			c-10-10.1-20.1-20.1-30.1-30.2c-0.2-0.2-0.5-0.4-0.8-0.8c0,0.5,0,0.8,0,1.1c0,9.8,0,19.6,0,29.4c0,0.7-0.1,1-0.9,1
			C84.6,256,80.2,256,75.9,256z"/>
		<path class="st1" d="M74.7,304.6c3.2-2.5,6.2-4.9,9.2-7.3c1.4-1.1,1.4-1.1,0.7-2.7c-1.6-3.2-3.1-6.5-4.7-9.7
			c-0.1-0.3-0.3-0.6-0.5-1c2.5,0.6,5,1.1,7.4,1.7c1.7,0.4,3.5,0.8,5.2,1.2c0.6,0.2,0.8,0,1-0.5c1.7-3.5,3.4-7.1,5.1-10.6
			c0.1-0.3,0.3-0.6,0.4-0.9c0.3,0.1,0.3,0.4,0.5,0.7c1.7,3.6,3.5,7.2,5.1,10.8c0.3,0.6,0.5,0.7,1.1,0.5c4.1-1,8.2-1.9,12.5-2.9
			c-0.2,0.4-0.3,0.7-0.4,1c-1.7,3.5-3.4,7.1-5.1,10.6c-0.3,0.5-0.2,0.8,0.3,1.1c3.3,2.6,6.6,5.2,10,7.9c-0.8,0.4-1.6,0.5-2.4,0.6
			c-3.4,0.8-6.7,1.5-10.1,2.3c-0.6,0.1-0.7,0.4-0.7,1c0,3.9,0,7.8,0,11.7c0,0.3,0,0.6,0,1.1c-1.8-1.4-3.4-2.7-5.1-4.1
			c-1.7-1.3-3.3-2.6-4.9-4c-0.5-0.4-0.8-0.4-1.3,0c-3.1,2.5-6.2,5-9.3,7.5c-0.2,0.1-0.3,0.4-0.7,0.4c0-0.3,0-0.6,0-0.8
			c0-3.9,0-7.8,0.1-11.7c0-0.7-0.1-1-0.9-1.1c-4-0.8-7.9-1.8-11.8-2.6C75.1,304.8,75,304.7,74.7,304.6z"/>
		<path class="st21" d="M141.1,255.9c-0.2-0.2-0.4-0.4-0.6-0.5c-16.6-16.6-33.3-33.3-49.9-49.9c-0.2-0.2-0.5-0.4-0.7-0.6
			c0.3-0.3,0.6-0.2,0.8-0.2c3.7,0,7.3,0,11,0c0.9,0,1.5,0.3,2.2,0.9c12.2,12.2,24.4,24.4,36.6,36.6c0.2,0.2,0.4,0.4,0.6,0.5
			C141.2,247.1,141.2,251.5,141.1,255.9z"/>
		<path class="st1" d="M223.8,246.7c-1.6-1.3-3.1-2.4-4.5-3.6c-0.6-0.5-1-0.6-1.6,0c-1.4,1.2-2.9,2.4-4.4,3.5
			c-0.3-0.3-0.2-0.7-0.2-1c0-1.6,0-3.3,0-4.9c0-0.6-0.1-0.9-0.8-1c-1.9-0.4-3.8-0.8-5.6-1.3c-0.1-0.3,0.2-0.4,0.3-0.5
			c1.4-1.1,2.7-2.2,4.1-3.3c0.5-0.4,0.6-0.7,0.3-1.3c-0.9-1.7-1.7-3.5-2.6-5.4c1.4,0.3,2.7,0.6,4,0.9c0.9,0.2,1.9,0.8,2.6,0.4
			c0.6-0.3,0.9-1.5,1.3-2.3c0.5-1.1,1.1-2.3,1.6-3.4c0,0,0.1-0.1,0.2-0.2c0.7,1.5,1.4,2.9,2.1,4.4c0.8,1.7,0.8,1.7,2.6,1.2
			c1.6-0.4,3.1-0.7,4.9-1.1c-0.9,1.8-1.6,3.4-2.4,4.9c-0.6,1.2-0.6,1.2,0.5,2c1.4,1.1,2.7,2.2,4.3,3.4c-1.3,0.3-2.4,0.6-3.6,0.8
			c-0.8,0.2-1.6,0.4-2.4,0.5c-0.6,0.1-0.7,0.4-0.7,0.9C223.8,242.6,223.8,244.5,223.8,246.7z"/>
		<path class="st1" d="M161.8,255.8c0-1.9,0-3.9,0-5.8c0-0.7-0.2-0.9-0.8-1.1c-1.9-0.4-3.7-0.8-5.8-1.3c1.6-1.3,3-2.5,4.5-3.6
			c0.7-0.5,0.8-0.9,0.4-1.6c-0.9-1.6-1.6-3.3-2.5-5c0.6-0.1,1.1,0.1,1.6,0.2c1.4,0.3,2.8,0.6,4.3,1c0.5,0.1,0.8,0.1,1.1-0.5
			c0.7-1.6,1.5-3.1,2.2-4.7c0.1-0.2,0.1-0.5,0.5-0.7c0.9,1.8,1.7,3.6,2.6,5.4c0.2,0.5,0.5,0.6,1,0.5c1.9-0.5,3.8-0.9,5.8-1.3
			c-0.2,0.7-0.5,1.3-0.8,1.8c-0.6,1.2-1.1,2.4-1.8,3.6c-0.2,0.5-0.2,0.7,0.2,1.1c1.6,1.2,3.1,2.5,4.8,3.8c-2,0.5-3.9,1-5.7,1.3
			c-0.8,0.1-0.9,0.5-0.9,1.2c0,1.9,0,3.8,0,5.9c-1.7-1.3-3.2-2.5-4.7-3.8c-0.5-0.4-0.8-0.4-1.3,0c-1.3,1.1-2.6,2.1-3.9,3.1
			C162.4,255.5,162.2,255.8,161.8,255.8z"/>
		<path class="st1" d="M194.8,321.3c-1.7-1.3-3.2-2.6-4.7-3.8c-0.4-0.4-0.7-0.4-1.1,0c-1.5,1.3-3.1,2.5-4.8,3.8c0-0.8,0-1.5,0-2.2
			c0-1.3,0-2.6,0-3.9c0-0.6-0.2-0.8-0.7-0.9c-1.7-0.4-3.3-0.7-5-1.1c-0.3-0.1-0.6-0.1-1-0.2c1.6-1.3,3.1-2.5,4.6-3.7
			c0.6-0.4,0.6-0.7,0.3-1.4c-0.9-1.7-1.7-3.4-2.6-5.3c2.1,0.5,4,0.9,6,1.4c0.6,0.2,0.8,0,1-0.5c0.8-1.8,1.7-3.6,2.6-5.5
			c0.9,1.9,1.8,3.7,2.6,5.5c0.2,0.5,0.5,0.7,1.1,0.5c1.9-0.5,3.8-0.9,5.9-1.4c-0.7,1.5-1.3,2.8-2,4.1c-1,2-1,2,0.7,3.4
			c1.2,0.9,2.3,1.8,3.6,2.9c-2,0.5-3.9,0.9-5.8,1.3c-0.7,0.1-1,0.4-0.9,1.1C194.8,317.3,194.8,319.2,194.8,321.3z"/>
		<path class="st1" d="M178.8,193.8c2.1,0.5,4,0.9,5.9,1.4c0.7,0.2,0.9,0,1.1-0.6c0.8-1.8,1.7-3.5,2.6-5.4c0.9,1.9,1.8,3.6,2.5,5.3
			c0.3,0.6,0.5,0.8,1.3,0.6c1.9-0.5,3.7-0.9,5.8-1.3c-0.9,1.8-1.7,3.5-2.5,5.2c-0.3,0.7-0.4,1,0.3,1.5c1.5,1.1,3,2.3,4.6,3.6
			c-2,0.5-3.8,0.9-5.7,1.3c-0.8,0.1-1.1,0.4-1,1.2c0.1,1.9,0,3.7,0,5.8c-1.3-1.1-2.5-2-3.8-3c-1.5-1.2-1.5-1.2-3.1,0
			c-1.2,1-2.4,1.9-3.7,3c-0.2-0.4-0.1-0.9-0.1-1.2c0-1.6,0-3.2,0-4.7c0-0.6-0.2-0.8-0.8-0.9c-1.9-0.4-3.8-0.8-5.9-1.3
			c1.4-1.1,2.7-2.1,4-3.2c1.4-1.1,1.4-1.1,0.6-2.6C180.3,196.9,179.6,195.4,178.8,193.8z"/>
	</g>
	<g>
		<path class="st22" d="M377.5,148.7c0.4,0,0.8,0,1.3,0c3.5,0.5,7.2,0.3,10.7,1c4.5,0.8,8.9,2,13.3,3.3c0.9,0.3,1.9,0.5,2.4,1.5
			c0.4,1.1,0.3,2.2,0.3,3.3c0,65.5,0,130.9,0,196.4c0,1.1,0.1,2.2-0.3,3.3c-0.6,1.2-1.8,1.4-2.9,1.7c-7.5,2.2-15,4-22.9,3.9
			c-0.2,0-0.4,0.1-0.6,0.2c-0.3,0-0.6,0-0.8,0c-0.3-0.3-0.6-0.3-0.8,0c-1,0-2,0-2.9,0c-0.8-0.3-1.7-0.3-2.5,0c-0.6,0-1.1,0-1.7,0
			c-1-0.3-2-0.3-2.9,0c-1.7,0-3.4,0-5,0c-4-0.6-8.1-0.5-12.1-1.4c-3.8-0.9-7.6-1.8-11.3-2.9c-0.9-0.3-1.7-0.6-2.2-1.5
			c-0.4-1.1-0.3-2.2-0.3-3.3c0-65.4,0-130.9,0-196.3c0-1.1-0.1-2.2,0.3-3.3c0.4-1,1.4-1.2,2.3-1.5c7.4-2.3,14.9-4,22.7-4.1
			c0.2,0,0.4-0.1,0.6-0.2c0.7,0,1.4,0,2.1,0c0.3,0.3,0.6,0.3,0.8,0c0.7,0,1.4,0,2.1,0c1,0.3,2,0.3,2.9,0c0.6,0,1.1,0,1.7,0
			c1,0.3,2,0.3,2.9,0c0.7,0,1.4,0,2.1,0C377,148.9,377.3,148.9,377.5,148.7z"/>
		<path class="st23" d="M336.8,154.3c0,0.5,0,1,0,1.5c0,66.8,0,133.6,0,200.5c0,0.5,0,1,0,1.5c-0.9,0.6-1.6,0-2.4-0.3
			c-12.4-4.4-23.7-10.9-33.7-19.6c-11.7-10.1-20.9-22.1-27.5-36c-4.7-10-7.8-20.5-9.2-31.4c-0.2-1.8,0-3.7-0.5-5.6
			c0-0.7,0-1.4,0-2.1c0.3-0.3,0.3-0.6,0-0.8c0-0.7,0-1.4,0-2.1c0.3-0.8,0.3-1.7,0-2.5c0-0.8,0-1.7,0-2.5c0.3-0.8,0.3-1.7,0-2.5
			c0-0.6,0-1.1,0-1.7c0.3-0.4,0.3-0.8,0-1.3c0-0.7,0-1.4,0-2.1c0.4-5.8,1.3-11.6,2.7-17.3c4.1-16.3,11.6-30.9,22.6-43.8
			c11.7-13.7,26-23.9,42.7-30.5C333.1,155,334.8,153.9,336.8,154.3z"/>
		<path class="st24" d="M404.9,357.7c0-0.5,0-1,0-1.5c0-66.8,0-133.6,0-200.5c0-0.5,0-1,0-1.5c0.8-0.6,1.5-0.1,2.2,0.1
			c17.3,6.1,32,16.1,44.2,29.7c14.6,16.4,23.5,35.5,26.4,57.3c0.3,2,0,4.2,0.5,6.2c0,1.1,0,2.2,0,3.4c-0.5,0.8-0.1,1.6-0.2,2.5
			c0.1,0.7-0.2,1.5,0.2,2.1c0,0.3,0,0.6,0,0.8c-0.4,0.7-0.1,1.4-0.2,2.1c0.1,0.8-0.2,1.7,0.2,2.5c0,1.3,0,2.5,0,3.8
			c-0.4,6.5-1.5,12.8-3.2,19.1c-4.2,15.5-11.4,29.4-21.8,41.6c-12.5,14.7-27.8,25.4-46,32C406.5,357.8,405.7,358.3,404.9,357.7z"/>
		<path class="st25" d="M370,148.7c-1,0.6-2,0.7-2.9,0C368,148.7,369,148.7,370,148.7z"/>
		<path class="st25" d="M374.6,148.7c-1,0.7-2,0.6-2.9,0C372.6,148.7,373.6,148.7,374.6,148.7z"/>
		<path class="st26" d="M367.1,363.3c1-0.7,2-0.6,2.9,0C369,363.3,368,363.3,367.1,363.3z"/>
		<path class="st27" d="M477.8,253.5c0.1-0.8-0.4-1.8,0.4-2.5c0,0.8,0,1.7,0,2.5C478,253.7,477.9,253.7,477.8,253.5z"/>
		<path class="st28" d="M263.5,252.2c0.7,0.8,0.6,1.7,0,2.5C263.5,253.9,263.5,253.1,263.5,252.2z"/>
		<path class="st28" d="M263.5,257.3c0.6,0.8,0.7,1.7,0,2.5C263.5,258.9,263.5,258.1,263.5,257.3z"/>
		<path class="st27" d="M478.2,261c-0.8-0.7-0.3-1.7-0.4-2.5c0.1-0.2,0.3-0.2,0.4,0C478.2,259.4,478.2,260.2,478.2,261z"/>
		<path class="st26" d="M371.7,363.3c0.8-0.6,1.7-0.7,2.5,0C373.3,363.3,372.5,363.3,371.7,363.3z"/>
		<path class="st29" d="M477.8,253.5c0.1,0,0.3,0,0.4,0c0,0.7,0,1.4,0,2.1C477.5,255,477.8,254.2,477.8,253.5z"/>
		<path class="st29" d="M478.2,258.5c-0.1,0-0.3,0-0.4,0c0.1-0.7-0.3-1.5,0.4-2.1C478.2,257.1,478.2,257.8,478.2,258.5z"/>
		<path class="st30" d="M263.5,249.3c0.6,0.4,0.5,0.8,0,1.3C263.5,250.1,263.5,249.7,263.5,249.3z"/>
		<path class="st31" d="M365,148.7c-0.3,0.5-0.6,0.6-0.8,0C364.4,148.7,364.7,148.7,365,148.7z"/>
		<path class="st31" d="M377.5,148.7c-0.3,0.6-0.6,0.5-0.8,0C377,148.7,377.3,148.7,377.5,148.7z"/>
		<path class="st32" d="M263.5,261.9c0.5,0.3,0.5,0.6,0,0.8C263.5,262.4,263.5,262.1,263.5,261.9z"/>
		<path class="st33" d="M377.1,363.3c0.3-0.6,0.6-0.6,0.8,0C377.7,363.3,377.4,363.3,377.1,363.3z"/>
	</g>
</g>
</svg>
