<svg width="240" height="240" viewBox="0 0 240 240" fill="none" xmlns="http://www.w3.org/2000/svg">
<path d="M68.7734 69.7031C68.9609 69.7031 69.1484 69.7031 69.3828 69.7031C71.0234 69.9375 72.7578 69.8438 74.3984 70.1719C76.5078 70.5469 78.5703 71.1094 80.6328 71.7188C81.0547 71.8594 81.5234 71.9531 81.7578 72.4219C81.9453 72.9375 81.8984 73.4531 81.8984 73.9688C81.8984 104.672 81.8984 135.328 81.8984 166.031C81.8984 166.547 81.9453 167.063 81.7578 167.578C81.4766 168.141 80.9141 168.234 80.3984 168.375C76.8828 169.406 73.3672 170.25 69.6641 170.203C69.5703 170.203 69.4766 170.25 69.3828 170.297C69.2422 170.297 69.1016 170.297 69.0078 170.297C68.8672 170.156 68.7266 170.156 68.6328 170.297C68.1641 170.297 67.6953 170.297 67.2734 170.297C66.8984 170.156 66.4766 170.156 66.1016 170.297C65.8203 170.297 65.5859 170.297 65.3047 170.297C64.8359 170.156 64.3672 170.156 63.9453 170.297C63.1484 170.297 62.3516 170.297 61.6016 170.297C59.7266 170.016 57.8047 170.063 55.9297 169.641C54.1484 169.219 52.3672 168.797 50.6328 168.281C50.2109 168.141 49.8359 168 49.6016 167.578C49.4141 167.063 49.4609 166.547 49.4609 166.031C49.4609 135.375 49.4609 104.672 49.4609 74.0156C49.4609 73.5 49.4141 72.9844 49.6016 72.4688C49.7891 72 50.2578 71.9063 50.6797 71.7656C54.1484 70.6875 57.6641 69.8906 61.3203 69.8438C61.4141 69.8438 61.5078 69.7969 61.6016 69.75C61.9297 69.75 62.2578 69.75 62.5859 69.75C62.7266 69.8906 62.8672 69.8906 62.9609 69.75C63.2891 69.75 63.6172 69.75 63.9453 69.75C64.4141 69.8906 64.8828 69.8906 65.3047 69.75C65.5859 69.75 65.8203 69.75 66.1016 69.75C66.5703 69.8906 67.0391 69.8906 67.4609 69.75C67.7891 69.75 68.1172 69.75 68.4453 69.75C68.5391 69.7969 68.6797 69.7969 68.7734 69.7031Z" fill="#F8F9FA"/>
<path d="M49.6953 72.3281C49.6953 72.5625 49.6953 72.7969 49.6953 73.0313C49.6953 104.344 49.6953 135.656 49.6953 167.016C49.6953 167.25 49.6953 167.484 49.6953 167.719C49.2734 168 48.9453 167.719 48.5703 167.578C42.7578 165.516 37.4609 162.469 32.7734 158.391C27.2891 153.656 22.9766 148.031 19.8828 141.516C17.6797 136.828 16.2266 131.906 15.5703 126.797C15.4766 125.953 15.5703 125.063 15.3359 124.172C15.3359 123.844 15.3359 123.516 15.3359 123.188C15.4766 123.047 15.4766 122.906 15.3359 122.813C15.3359 122.484 15.3359 122.156 15.3359 121.828C15.4766 121.453 15.4766 121.031 15.3359 120.656C15.3359 120.281 15.3359 119.859 15.3359 119.484C15.4766 119.109 15.4766 118.688 15.3359 118.313C15.3359 118.031 15.3359 117.797 15.3359 117.516C15.4766 117.328 15.4766 117.141 15.3359 116.906C15.3359 116.578 15.3359 116.25 15.3359 115.922C15.5234 113.203 15.9453 110.484 16.6016 107.813C18.5234 100.172 22.0391 93.3281 27.1953 87.2813C32.6797 80.8594 39.3828 76.0781 47.2109 72.9844C47.9609 72.6563 48.7578 72.1406 49.6953 72.3281Z" fill="#66B946"/>
<path d="M81.6172 167.672C81.6172 167.437 81.6172 167.203 81.6172 166.969C81.6172 135.656 81.6172 104.344 81.6172 72.9844C81.6172 72.75 81.6172 72.5156 81.6172 72.2812C81.9922 72 82.3203 72.2344 82.6484 72.3281C90.7578 75.1875 97.6484 79.875 103.367 86.25C110.211 93.9375 114.383 102.891 115.742 113.109C115.883 114.047 115.742 115.078 115.977 116.016C115.977 116.531 115.977 117.047 115.977 117.609C115.742 117.984 115.93 118.359 115.883 118.781C115.93 119.109 115.789 119.484 115.977 119.766C115.977 119.906 115.977 120.047 115.977 120.141C115.789 120.469 115.93 120.797 115.883 121.125C115.93 121.5 115.789 121.922 115.977 122.297C115.977 122.906 115.977 123.469 115.977 124.078C115.789 127.125 115.273 130.078 114.477 133.031C112.508 140.297 109.133 146.812 104.258 152.531C98.3984 159.422 91.2266 164.437 82.6953 167.531C82.3672 167.719 81.9922 167.953 81.6172 167.672Z" fill="#F79421"/>
<path d="M65.2578 69.7031C64.7891 69.9844 64.3203 70.0313 63.8984 69.7031C64.3203 69.7031 64.7891 69.7031 65.2578 69.7031Z" fill="#E0E0E0"/>
<path d="M67.4141 69.7031C66.9453 70.0313 66.4766 69.9844 66.0547 69.7031C66.4766 69.7031 66.9453 69.7031 67.4141 69.7031Z" fill="#E0E0E0"/>
<path d="M63.8984 170.297C64.3672 169.969 64.8359 170.016 65.2578 170.297C64.7891 170.297 64.3203 170.297 63.8984 170.297Z" fill="#E0E0DF"/>
<path d="M115.789 118.828C115.836 118.453 115.602 117.984 115.977 117.656C115.977 118.031 115.977 118.453 115.977 118.828C115.883 118.922 115.836 118.922 115.789 118.828Z" fill="#C87929"/>
<path d="M15.3359 118.219C15.6641 118.594 15.6172 119.016 15.3359 119.391C15.3359 119.016 15.3359 118.641 15.3359 118.219Z" fill="#59A545"/>
<path d="M15.3359 120.609C15.6172 120.984 15.6641 121.406 15.3359 121.781C15.3359 121.359 15.3359 120.984 15.3359 120.609Z" fill="#59A545"/>
<path d="M115.977 122.344C115.602 122.016 115.836 121.547 115.789 121.172C115.836 121.078 115.93 121.078 115.977 121.172C115.977 121.594 115.977 121.969 115.977 122.344Z" fill="#C87929"/>
<path d="M66.0547 170.297C66.4297 170.016 66.8516 169.969 67.2266 170.297C66.8047 170.297 66.4297 170.297 66.0547 170.297Z" fill="#E0E0DF"/>
<path d="M115.789 118.828C115.836 118.828 115.93 118.828 115.977 118.828C115.977 119.156 115.977 119.484 115.977 119.813C115.648 119.531 115.789 119.156 115.789 118.828Z" fill="#E38726"/>
<path d="M115.977 121.172C115.93 121.172 115.836 121.172 115.789 121.172C115.836 120.844 115.648 120.469 115.977 120.188C115.977 120.516 115.977 120.844 115.977 121.172Z" fill="#E38726"/>
<path d="M15.3359 116.859C15.6172 117.047 15.5703 117.234 15.3359 117.469C15.3359 117.234 15.3359 117.047 15.3359 116.859Z" fill="#396631"/>
<path d="M62.9141 69.7031C62.7734 69.9375 62.6328 69.9844 62.5391 69.7031C62.6328 69.7031 62.7734 69.7031 62.9141 69.7031Z" fill="#807F80"/>
<path d="M68.7734 69.7031C68.6328 69.9844 68.4922 69.9375 68.3984 69.7031C68.5391 69.7031 68.6797 69.7031 68.7734 69.7031Z" fill="#807F80"/>
<path d="M15.3359 122.766C15.5703 122.906 15.5703 123.047 15.3359 123.141C15.3359 123 15.3359 122.859 15.3359 122.766Z" fill="#36602F"/>
<path d="M68.5859 170.297C68.7266 170.016 68.8672 170.016 68.9609 170.297C68.8672 170.297 68.7266 170.297 68.5859 170.297Z" fill="#6F6E6F"/>
<path d="M224.664 120.004C224.664 123.434 224.317 126.798 223.689 130.072C223.275 131.989 222.771 133.874 222.143 135.733C220.796 139.883 218.903 143.784 216.572 147.38C215.63 148.851 214.621 150.239 213.522 151.595C212.646 152.727 211.695 153.794 210.695 154.835C208.902 156.653 207.009 158.389 205 159.927C199.711 164.018 193.576 167.043 186.905 168.771C184.86 169.275 182.752 169.68 180.612 169.969C178.536 170.217 176.459 170.341 174.32 170.341C172.18 170.341 170.103 170.217 168.026 169.969C165.887 169.68 163.778 169.275 161.734 168.771C155.063 167.043 148.928 164.018 143.642 159.927C142.32 158.918 141.061 157.852 139.834 156.687C138.764 155.678 137.726 154.612 136.751 153.513C135.02 151.595 133.447 149.545 132.063 147.38C129.734 143.784 127.847 139.883 126.493 135.733C125.864 133.874 125.361 131.989 124.952 130.072C124.323 126.798 123.977 123.434 123.977 120.004C123.977 116.574 124.323 113.202 124.952 109.937C125.361 108.011 125.864 106.126 126.493 104.266C127.847 100.117 129.734 96.2159 132.063 92.6286C133.007 91.1491 134.013 89.7688 135.114 88.4132C135.995 87.2808 136.939 86.2063 137.947 85.1731C139.74 83.3464 141.628 81.6106 143.642 80.0732C148.928 75.9818 155.063 72.9649 161.734 71.2291C163.778 70.7249 165.887 70.3199 168.026 70.0637C170.103 69.7827 172.18 69.6587 174.32 69.6587C176.459 69.6587 178.536 69.7827 180.612 70.0637C182.752 70.3199 184.86 70.7249 186.905 71.2291C193.576 72.9649 199.711 75.9818 205 80.0732C206.257 81.0155 207.48 82.057 208.645 83.1563C209.687 84.1316 210.695 85.14 211.671 86.2063C213.464 88.19 215.126 90.3639 216.572 92.6286C218.903 96.2159 220.796 100.117 222.143 104.266C222.771 106.126 223.275 108.011 223.689 109.937C224.317 113.202 224.664 116.574 224.664 120.004Z" fill="#062982"/>
<path d="M224.664 120.004C224.664 123.434 224.317 126.798 223.689 130.072C223.275 131.989 222.771 133.874 222.143 135.733H126.493C125.864 133.874 125.361 131.989 124.952 130.072C124.323 126.798 123.977 123.434 123.977 120.004C123.977 116.574 124.323 113.202 124.952 109.937C125.361 108.011 125.864 106.126 126.493 104.267H222.143C222.771 106.126 223.275 108.011 223.689 109.937C224.317 113.202 224.664 116.574 224.664 120.004Z" fill="white"/>
<path d="M216.572 92.6286L208.745 99.861L203.959 104.266L197.792 109.937L186.905 120.004L180.612 125.856L176.018 130.071L174.32 131.576L169.851 135.733L168.026 137.436L165.069 140.139L161.734 143.255L143.642 159.927C142.321 158.918 141.062 157.852 139.834 156.687C138.765 155.678 137.727 154.612 136.751 153.513C135.02 151.595 133.447 149.545 132.063 147.379L139.898 140.139L144.68 135.733L150.847 130.071L161.734 120.004L168.026 114.152L171.173 111.251L172.62 109.937L174.32 108.424L178.787 104.266L180.612 102.572L183.57 99.861L186.905 96.7531L205.001 80.0732C206.257 81.0155 207.48 82.0569 208.646 83.1562C209.687 84.1316 210.696 85.14 211.671 86.2063C213.464 88.19 215.126 90.3638 216.572 92.6286Z" fill="white"/>
<path d="M211.671 86.2063L193.198 104.267H186.905L208.646 83.1563C209.687 84.1317 210.695 85.1401 211.671 86.2063Z" fill="#D0081A"/>
<path d="M161.734 135.733L139.834 156.687C138.765 155.678 137.726 154.612 136.751 153.513L155.378 135.733H161.734Z" fill="#D0081A"/>
<path d="M216.572 147.379C215.63 148.851 214.622 150.239 213.522 151.595C212.646 152.727 211.696 153.794 210.696 154.835C208.902 156.653 207.009 158.389 205.001 159.927L186.905 143.255L183.57 140.139L180.612 137.436L178.787 135.733L174.32 131.576L172.62 130.071L168.026 125.856L161.734 120.004L150.847 109.937L144.68 104.266L139.898 99.861L132.063 92.6286C133.007 91.1491 134.014 89.7687 135.115 88.4132C135.996 87.2808 136.94 86.2063 137.947 85.1731C139.74 83.3464 141.628 81.6106 143.642 80.0732L161.734 96.7531L165.069 99.861L168.026 102.572L169.851 104.266L174.32 108.424L176.018 109.937L177.466 111.251L180.612 114.152L186.905 120.004L197.792 130.071L203.959 135.733L208.745 140.139L216.572 147.379Z" fill="white"/>
<path d="M213.522 151.595C212.646 152.727 211.695 153.794 210.695 154.835L190.24 135.733H196.596L213.522 151.595Z" fill="#D0081A"/>
<path d="M159.562 104.267H153.27L135.114 88.4133C135.996 87.2809 136.94 86.2063 137.947 85.1731L159.562 104.267Z" fill="#D0081A"/>
<path d="M186.905 71.2291V168.771C184.86 169.275 182.752 169.68 180.612 169.969C178.536 170.217 176.459 170.341 174.32 170.341C172.18 170.341 170.103 170.217 168.026 169.969C165.887 169.68 163.778 169.275 161.734 168.771V71.2291C163.778 70.7249 165.887 70.3199 168.026 70.0637C170.103 69.7827 172.18 69.6587 174.32 69.6587C176.459 69.6587 178.536 69.7827 180.612 70.0637C182.752 70.3199 184.86 70.7249 186.905 71.2291Z" fill="white"/>
<path d="M224.664 120.004C224.664 123.434 224.317 126.798 223.689 130.072H124.952C124.323 126.798 123.977 123.434 123.977 120.004C123.977 116.574 124.323 113.202 124.952 109.937H223.689C224.317 113.202 224.664 116.574 224.664 120.004Z" fill="#D0081A"/>
<path d="M180.612 70.0637V169.969C178.536 170.217 176.459 170.341 174.32 170.341C172.18 170.341 170.103 170.217 168.026 169.969V70.0637C170.103 69.7827 172.18 69.6587 174.32 69.6587C176.459 69.6587 178.536 69.7827 180.612 70.0637Z" fill="#D0081A"/>
</svg>
