<svg xmlns="http://www.w3.org/2000/svg" viewBox="0 0 121.02 106.4"><defs><style>.cls-1{fill:#033676;}</style></defs><g id="Layer_2" data-name="Layer 2"><g id="Layer_1-2" data-name="Layer 1"><path class="cls-1" d="M.44,19.61q4.71,14.14,9.44,28.3c.91,2.75,1.8,5.5,2.77,8.23,1.8,5.08,5.3,7.62,10.69,7.67,5.73.06,11.47.07,17.2,0,1.66,0,2.34.35,2.3,2.18-.1,3.9,1,4.94,4.91,4.94q12.86,0,25.71,0c3.63,0,4.85-1.12,4.71-4.75-.07-2,.67-2.41,2.5-2.38,5.54.11,11.09.06,16.64,0,5.82,0,9.33-2.5,11.19-8,3.87-11.45,7.66-22.93,11.49-34.39.2-.6.42-1.19.81-2.3.11.92.21,1.35.21,1.78q0,37.16,0,74.3c0,6.32-3.94,10.55-10.22,11.13-.75.07-1.51.08-2.26.08q-48,0-96,0a16,16,0,0,1-6.25-1A9.83,9.83,0,0,1,0,95.74Q0,58.12,0,20.5c0-.29,0-.58.07-.88Z"/><path class="cls-1" d="M6.26,14.2H32.75c3.29,0,2.88.08,2.94-2.79.12-5.58,2.85-9.5,7.65-10.88A14.13,14.13,0,0,1,47.06,0C56,0,65,0,73.9,0c5.64,0,9.67,2.91,11,7.77a15.65,15.65,0,0,1,.44,4.48c0,1.51.5,2,2,1.94,8.32-.06,16.63,0,24.95,0h2.49a16.42,16.42,0,0,1-.39,1.83q-6.19,18.63-12.4,37.25c-1,2.83-1.83,3.46-4.86,3.47-5.6,0-11.21,0-16.82,0-1.58,0-2-.52-2-2.06,0-4.08-1-5-5-5H47.88c-4.06,0-5.11,1-5.05,5,0,1.69-.55,2.15-2.18,2.12-5.67-.08-11.34,0-17,0-2.67,0-3.59-.7-4.44-3.24Q12.91,34.71,6.67,15.9C6.53,15.5,6.46,15.07,6.26,14.2Zm54.06,0c5.35,0,10.7,0,16.05,0,.61,0,1.62-.38,1.75-.81,1.16-3.67-.79-6.21-4.67-6.21q-12.84,0-25.68,0c-4,0-5,1.1-5,5.1,0,1.62.55,2,2.07,2C50,14.15,55.15,14.2,60.32,14.2Z"/><path class="cls-1" d="M60.48,56.74c3,0,6,0,9.05,0,1.23,0,1.7.44,1.64,1.66s-.06,2.64,0,4c0,1.16-.48,1.53-1.58,1.52q-9,0-18.1,0c-1.23,0-1.69-.47-1.63-1.68s.06-2.64,0-3.95.49-1.53,1.59-1.51C54.45,56.77,57.47,56.74,60.48,56.74Z"/></g></g></svg>