<svg xmlns="http://www.w3.org/2000/svg" width="86.741" height="94.927" viewBox="0 0 86.741 94.927"><g transform="translate(0.581 0.522)"><path d="M54.627,53.6a6.118,6.118,0,0,1-4.078-1.57v5.649a4.078,4.078,0,0,1-4.078,4.078H22V52.025a6.116,6.116,0,1,0,6.118-10.318l-.714-.2A6.118,6.118,0,0,0,22,42.93V33.2h9.727a6.118,6.118,0,1,1,9.095,0h9.727V42.93A6.118,6.118,0,1,1,54.627,53.6Z" transform="translate(16.758 21.862)" fill="#023676" stroke="#fff" stroke-width="1"/><path d="M31.658,29.437a6.118,6.118,0,0,0,10.094,3.385v9.727H32.025a6.118,6.118,0,1,1-9.095,0H13.2V32.822a6.118,6.118,0,1,1,0-9.095V18.078A4.078,4.078,0,0,1,17.282,14h24.47v9.727a6.116,6.116,0,0,0-10.094,5.71Z" transform="translate(-2.993 12.517)" fill="#023676" stroke="#fff" stroke-width="1"/><path d="M40.627,48.392a6.118,6.118,0,0,1-4.078-1.57v9.727H26.822a6.118,6.118,0,1,1-9.095,0H12.078A4.078,4.078,0,0,1,8,52.47V28h9.727a6.118,6.118,0,1,0,9.095,0h9.727v9.727a6.118,6.118,0,1,1,4.078,10.665Z" transform="translate(2.21 27.065)" fill="#023676" stroke="#fff" stroke-width="1"/><path d="M64.752,15.278v24.47H55.025a6.118,6.118,0,0,0-5.567-10.2h-.143A6.114,6.114,0,0,0,45.93,39.646H36.2V30.021a6.118,6.118,0,1,1,0-9.095V11.2H45.93A6.118,6.118,0,0,1,44.5,5.816a5.159,5.159,0,0,1,.367-1.122A5,5,0,0,1,45.6,3.41a6.892,6.892,0,0,1,.632-.714,5.954,5.954,0,0,1,2.039-1.305,3.833,3.833,0,0,1,.938-.285h0A6.173,6.173,0,0,1,55.025,11.2h5.649A4.078,4.078,0,0,1,64.752,15.278Z" transform="translate(20.908 -0.996)" fill="#023676" stroke="#fff" stroke-width="1"/></g></svg>