<svg xmlns="http://www.w3.org/2000/svg" viewBox="0 0 339.03 212.95"><defs><style>.cls-1,.cls-2{fill:#c70201;}.cls-2,.cls-3{fill-rule:evenodd;}.cls-3{fill:#fff;}</style></defs><g id="Layer_2" data-name="Layer 2"><g id="Layer_1-2" data-name="Layer 1"><path class="cls-1" d="M1.8,203.3h8.79v1.55h-7v4.44h6.56v1.55H3.59V217H1.8Z" transform="translate(-1.8 -4.21)"/><path class="cls-1" d="M13.77,212.87,12.3,217H10.5l4.87-13.67H17.6L22.68,217H20.75l-1.52-4.1Zm5-1.55c-1.3-3.6-2-5.51-2.31-6.55h0c-.34,1.16-1.14,3.47-2.19,6.55Z" transform="translate(-1.8 -4.21)"/><path class="cls-1" d="M35.47,213.09a5.18,5.18,0,0,1-5.44,4c-4.09,0-6.15-3.1-6.15-7s2.06-7.08,6.22-7.08c3.23,0,5,1.84,5.38,4.13H33.67A3.47,3.47,0,0,0,30,204.61c-3,0-4.25,2.74-4.25,5.51s1.17,5.51,4.33,5.51a3.51,3.51,0,0,0,3.54-2.54Z" transform="translate(-1.8 -4.21)"/><path class="cls-1" d="M46.72,210.58h-6.8v4.84h7.47L47.16,217h-9V203.3h8.9v1.55H39.92V209h6.8Z" transform="translate(-1.8 -4.21)"/><path class="cls-1" d="M57.62,204.85H53.21V203.3H63.87v1.55H59.45V217H57.62Z" transform="translate(-1.8 -4.21)"/><path class="cls-1" d="M77.36,210.06c0,3.76-2.11,7.11-6.42,7.11-4,0-6.27-3.11-6.27-7s2.29-7,6.43-7C75,203.1,77.36,206,77.36,210.06Zm-10.79,0c0,2.95,1.51,5.54,4.45,5.54,3.17,0,4.44-2.61,4.44-5.54S74,204.65,71,204.65,66.57,207.16,66.57,210.08Z" transform="translate(-1.8 -4.21)"/><path class="cls-1" d="M85.17,203.3H94v1.55H87v4.44h6.56v1.55H87V217H85.17Z" transform="translate(-1.8 -4.21)"/><path class="cls-1" d="M97.14,212.87,95.67,217H93.86l4.87-13.67H101L106,217h-1.93l-1.52-4.1Zm5-1.55c-1.3-3.6-2-5.51-2.32-6.55h0c-.33,1.16-1.13,3.47-2.18,6.55Z" transform="translate(-1.8 -4.21)"/><path class="cls-1" d="M118.84,213.09a5.18,5.18,0,0,1-5.44,4c-4.09,0-6.16-3.1-6.16-7s2.07-7.08,6.22-7.08c3.23,0,5,1.84,5.38,4.13H117a3.46,3.46,0,0,0-3.64-2.62c-3,0-4.25,2.74-4.25,5.51s1.17,5.51,4.33,5.51a3.52,3.52,0,0,0,3.55-2.54Z" transform="translate(-1.8 -4.21)"/><path class="cls-1" d="M130.09,210.58h-6.8v4.84h7.47l-.24,1.55h-9V203.3h8.91v1.55h-7.13V209h6.8Z" transform="translate(-1.8 -4.21)"/><path class="cls-1" d="M138.22,203.3h4.89c3.84,0,6.44,2.62,6.44,6.7s-2.54,7-6.51,7h-4.82ZM140,215.43h2.87c3.22,0,4.75-2.3,4.75-5.4,0-2.7-1.4-5.19-4.74-5.19H140Z" transform="translate(-1.8 -4.21)"/><path class="cls-1" d="M161,210.58h-6.8v4.84h7.47L161.4,217h-9V203.3h8.91v1.55h-7.13V209H161Z" transform="translate(-1.8 -4.21)"/><path class="cls-1" d="M164.11,203.3h1.81v12.12h7.13L172.8,217h-8.69Z" transform="translate(-1.8 -4.21)"/><path class="cls-1" d="M176.83,203.3V217H175V203.3Z" transform="translate(-1.8 -4.21)"/><path class="cls-1" d="M183.81,217l-5-13.67h1.95l2.41,6.82c.7,2,1.41,4,1.71,5.27h0c.28-1.12,1.06-3.23,1.78-5.21l2.51-6.88h1.87L186,217Z" transform="translate(-1.8 -4.21)"/><path class="cls-1" d="M201.74,210.58h-6.8v4.84h7.47l-.24,1.55h-9V203.3h8.9v1.55h-7.12V209h6.8Z" transform="translate(-1.8 -4.21)"/><path class="cls-1" d="M206.67,211v6h-1.79V203.3h5.34c2.81,0,4.31,1.52,4.31,3.66a3.13,3.13,0,0,1-2.34,3.21c1.12.3,2.09,1.13,2.09,3.51v.58a10,10,0,0,0,.18,2.71H212.7a9.32,9.32,0,0,1-.23-2.94v-.29c0-2-.55-2.79-3-2.79Zm0-1.53h3c2.09,0,3-.78,3-2.32s-.95-2.28-2.81-2.28h-3.18Z" transform="translate(-1.8 -4.21)"/><path class="cls-1" d="M220.75,217v-5a.72.72,0,0,0-.09-.37l-4.82-8.29h2.07c1.25,2.22,3.23,5.74,3.85,6.95.59-1.19,2.63-4.74,3.93-6.95h1.93l-5,8.32a.69.69,0,0,0-.08.35v5Z" transform="translate(-1.8 -4.21)"/><path class="cls-1" d="M238.79,211.16v1.56h-5.16v-1.56Z" transform="translate(-1.8 -4.21)"/><path class="cls-1" d="M246.71,203.3h5.19c2.66,0,4.48,1.48,4.48,4,0,2.66-1.92,4.07-4.59,4.07h-3.26V217h-1.82Zm1.82,6.53h3.17c1.87,0,2.81-.92,2.81-2.51s-1.14-2.5-2.74-2.5h-3.24Z" transform="translate(-1.8 -4.21)"/><path class="cls-1" d="M259,203.3h1.81v12.12h7.14l-.26,1.55H259Z" transform="translate(-1.8 -4.21)"/><path class="cls-1" d="M272.53,212.87l-1.47,4.1h-1.8l4.87-13.67h2.23L281.44,217h-1.93l-1.52-4.1Zm5-1.55c-1.31-3.6-2-5.51-2.32-6.55h0c-.33,1.16-1.14,3.47-2.19,6.55Z" transform="translate(-1.8 -4.21)"/><path class="cls-1" d="M284.76,204.85h-4.42V203.3H291v1.55h-4.42V217h-1.82Z" transform="translate(-1.8 -4.21)"/><path class="cls-1" d="M294.77,203.3V217H293V203.3Z" transform="translate(-1.8 -4.21)"/><path class="cls-1" d="M298.48,217V203.3h2.4c2,3.2,6.23,10,7,11.48h0c-.13-1.75-.12-3.91-.12-6.14V203.3h1.72V217h-2.26c-1.81-3-6.25-10.28-7.11-11.82h0c.1,1.56.1,3.88.1,6.35V217Z" transform="translate(-1.8 -4.21)"/><path class="cls-1" d="M314.94,203.3v8.23c0,3.23,1.77,4.1,3.52,4.1,2.05,0,3.5-.94,3.5-4.1V203.3h1.82v8.13c0,4.44-2.45,5.71-5.36,5.71s-5.32-1.37-5.32-5.58V203.3Z" transform="translate(-1.8 -4.21)"/><path class="cls-1" d="M339.06,211.14c0-2.54,0-5.12.09-6.56h-.07c-.59,2.22-2.8,8.09-4.37,12.39h-1.63c-1.18-3.5-3.47-10.08-4.09-12.41h-.06c.11,1.58.15,4.61.15,7V217h-1.7V203.3h2.7c1.55,4.24,3.45,9.72,3.92,11.46h0c.32-1.32,2.57-7.33,4.17-11.46h2.63V217h-1.77Z" transform="translate(-1.8 -4.21)"/><path class="cls-1" d="M108.64,48.41l2,2.89-3.11,3.8L97.6,40l4.14-5.06,16.91,6.52-3.33,4.08-3.26-1.31Zm0-5.87c-2.61-1.09-4.89-2.1-6.44-2.86l0,.06c1.19,1.48,2.68,3.54,4.15,5.65Z" transform="translate(-1.8 -4.21)"/><path class="cls-1" d="M110.64,25.83l6.41-4.75c3.12-2.31,6.51-2.13,8.51.57,2.3,3.11,1,6.31-2,8.48l-2.31,1.71,3.6,4.86-4,3ZM119.18,29l1.65-1.22c1.15-.85,1.61-1.93.75-3.09s-2-1-3.17-.2l-1.66,1.23Z" transform="translate(-1.8 -4.21)"/><path class="cls-1" d="M128.93,13.56l7.36-3.07c3.59-1.49,6.83-.5,8.13,2.61,1.48,3.57-.57,6.35-3.94,7.75L137.82,22l2.33,5.59-4.6,1.91Zm7.53,5.12,1.89-.79c1.32-.55,2-1.49,1.48-2.81s-1.73-1.5-3-1l-1.91.8Z" transform="translate(-1.8 -4.21)"/><path class="cls-1" d="M156.14,15.91l1,6.44-4.84.72-2.55-17,8.43-1.27c4-.6,6.27,1.26,6.66,3.83a4.16,4.16,0,0,1-2,4.42c1.13.21,2.45,1.17,2.88,4.06l.1.71a16.22,16.22,0,0,0,.7,3.13l-4.75.72a11.73,11.73,0,0,1-.92-3.67l-.07-.44c-.22-1.47-.69-2.22-2.89-1.89Zm-.52-3.47,2.31-.35c1.66-.25,2.16-1,2-2.17s-1-1.7-2.52-1.47l-2.33.35Z" transform="translate(-1.8 -4.21)"/><path class="cls-1" d="M187.93,14.1c-.54,4.84-3.91,8.56-9.77,7.9s-8.08-5-7.54-9.81,4-8.54,9.78-7.9C185.79,4.89,188.5,9,187.93,14.1Zm-12.14-1.41c-.35,3.14.45,5.44,2.93,5.72s3.73-1.93,4.05-4.85c.35-3.12-.32-5.39-2.94-5.68C177.4,7.61,176.15,9.5,175.79,12.69Z" transform="translate(-1.8 -4.21)"/><path class="cls-1" d="M194,25.15,194.73,7l5,2L199,16.58c-.21,2.38-.42,4-.76,5.94l.08,0a52.15,52.15,0,0,1,3.48-4.83l4.75-6.13,4.82,1.88L199.5,27.31Z" transform="translate(-1.8 -4.21)"/><path class="cls-1" d="M221.79,32.76l-6.41-4.53-1.86,2.64,7.15,5.05-2.62,2.73-10.66-7.53,9.94-14.06L228,24.58l-2.16,3.05-6.68-4.72-1.6,2.27L224,29.71Z" transform="translate(-1.8 -4.21)"/><path class="cls-1" d="M234.06,30l4.81,5.62c3.56,4.17,3,8.84-.77,12.06s-8.7,3.36-12.36-.92L221,41.2Zm-7,12.66,1.26,1.47c1.78,2.08,4,1.68,6.42-.41,2.16-1.86,2.94-3.9,1.15-6l-1.3-1.51Z" transform="translate(-1.8 -4.21)"/><path class="cls-1" d="M102.25,70.34l-.55,5L88.3,73.93,87.43,82l-3.66-.94,1.36-12.56Z" transform="translate(-1.8 -4.21)"/><path class="cls-1" d="M91,100.06l-.29-7.84-3.23.12.33,8.75-3.76-.42-.48-13,17.2-.64.48,13-3.73.14L97.22,92l-2.77.1.3,7.84Z" transform="translate(-1.8 -4.21)"/><path class="cls-1" d="M89.23,112l-3.49-.22L84.64,107l18,1.45,1.46,6.36-15.51,9.37-1.18-5.13,3-1.77Zm4.65,3.57c2.46-1.4,4.66-2.58,6.2-3.34v-.06c-1.9,0-4.44-.07-7-.19Z" transform="translate(-1.8 -4.21)"/><path class="cls-1" d="M99.08,132.15l-5.81,2.92-2.2-4.37L106.45,123l3.83,7.62c1.83,3.62.77,6.35-1.55,7.52a4.18,4.18,0,0,1-4.81-.47c.15,1.14-.35,2.69-3,4l-.64.32a16.34,16.34,0,0,0-2.77,1.64l-2.16-4.29a12,12,0,0,1,3.19-2l.4-.2c1.33-.67,1.89-1.35.89-3.34Zm3.14-1.59,1,2.09c.76,1.5,1.66,1.73,2.69,1.21s1.3-1.47.61-2.85l-1.06-2.1Z" transform="translate(-1.8 -4.21)"/><path class="cls-1" d="M102.48,150.7l12.45-11.89,4.17,4.37c-1.55,4-3.53,9.5-4.57,11.49l.06.06c1.16-1.37,3.33-3.51,5.32-5.4l2.65-2.53,3.17,3.33L113.28,162l-4-4.16c1.24-3.21,3.77-9.92,4.85-12.07l0-.05c-1.07,1.23-3.47,3.54-5.66,5.64L105.67,154Z" transform="translate(-1.8 -4.21)"/><path class="cls-1" d="M133.91,155.39l-9.48,14.38L120.21,167l9.48-14.38Z" transform="translate(-1.8 -4.21)"/><path class="cls-1" d="M131.22,174,138,158.17l5.55,2.38c.14,4.28.49,10.13.32,12.36l.07,0c.53-1.71,1.69-4.53,2.77-7.05l1.44-3.37,4.23,1.81-6.78,15.83-5.29-2.26c-.11-3.45-.43-10.61-.28-13l-.06,0c-.49,1.55-1.79,4.62-3,7.4l-1.53,3.56Z" transform="translate(-1.8 -4.21)"/><path class="cls-1" d="M170.86,183.48l-3.38-.29a11.73,11.73,0,0,1-.18-1.59c-1.08,1.2-2.8,1.7-5.18,1.5-5.26-.44-7.58-4.63-7.18-9.39.44-5.26,3.82-8.84,9.54-8.37,5.19.43,7.32,3.59,7.41,6.26l-5-.42a2.68,2.68,0,0,0-2.75-2.3c-2.87-.24-3.79,2.34-4,5.09s.37,5.4,3.15,5.63a2.73,2.73,0,0,0,3.22-2.74v-.12l-3.14-.26.29-3.51,8,.66Z" transform="translate(-1.8 -4.21)"/><path class="cls-1" d="M187.66,166l7.1-3.64c3.45-1.77,6.76-1,8.29,2,1.77,3.44-.06,6.38-3.31,8l-2.56,1.31,2.76,5.38-4.44,2.27Zm7.9,4.51,1.83-.93c1.27-.65,1.9-1.65,1.25-2.92s-1.84-1.36-3.09-.72l-1.85.94Z" transform="translate(-1.8 -4.21)"/><path class="cls-1" d="M214.31,166.82l1.13,3.31-4,2.85-5.57-17.18,5.32-3.79,14.6,10.74-4.29,3.06-2.79-2.12Zm1.51-5.66c-2.23-1.74-4.17-3.31-5.46-4.45l-.06,0c.76,1.74,1.65,4.12,2.52,6.55Z" transform="translate(-1.8 -4.21)"/><path class="cls-1" d="M229.21,150.45l4.71,4.49-3.38,3.54L218.07,146.6l5.89-6.17c2.8-2.94,5.72-2.86,7.6-1.07a4.17,4.17,0,0,1,1.18,4.69c1-.52,2.65-.57,4.76,1.44l.52.49A15.54,15.54,0,0,0,240.5,148l-3.32,3.49a11.77,11.77,0,0,1-3-2.33l-.32-.31c-1.07-1-1.91-1.33-3.44.28ZM226.66,148l1.61-1.69c1.16-1.21,1.08-2.14.24-2.94s-1.82-.73-2.88.39l-1.63,1.7Z" transform="translate(-1.8 -4.21)"/><path class="cls-1" d="M235.45,131.69l-2.51,4.23L229.72,134l7.58-12.77,3.21,1.91L238,127.34l11.6,6.88L247,138.56Z" transform="translate(-1.8 -4.21)"/><path class="cls-1" d="M255.11,123.16l-16.59-4.6,1.61-5.82c4.22-.71,10-1.84,12.21-2l0-.08c-1.77-.29-4.71-1.06-7.36-1.8l-3.53-1,1.23-4.43,16.59,4.6-1.54,5.55c-3.39.57-10.45,1.85-12.85,2l0,.06c1.6.28,4.82,1.16,7.74,2l3.72,1Z" transform="translate(-1.8 -4.21)"/><path class="cls-1" d="M253.55,86.5l-.14,7.84,3.23.06.16-8.75,3.73.62-.24,13L243.07,99l.24-13,3.74.07-.15,8.17,2.77,0,.14-7.84Z" transform="translate(-1.8 -4.21)"/><path class="cls-1" d="M252.59,75.16,259,74l.85,4.83-17,3-1.49-8.4c-.71-4,1.08-6.3,3.64-6.76a4.17,4.17,0,0,1,4.47,1.83c.19-1.13,1.11-2.47,4-3l.71-.12a16.1,16.1,0,0,0,3.12-.78l.84,4.73a11.76,11.76,0,0,1-3.64,1l-.44.08c-1.46.26-2.2.75-1.81,2.94Zm-3.46.62-.41-2.3c-.29-1.65-1.09-2.13-2.23-1.93s-1.67,1-1.4,2.55l.42,2.32Z" transform="translate(-1.8 -4.21)"/><path class="cls-2" d="M127.68,49.81h84.67c0,.31.05.61.05.93q0,41.28,0,82.58c0,.84-.25,1.06-1.06,1.06q-41.34,0-82.67,0c-.83,0-1-.28-1-1.07q0-41.25,0-82.5Zm39.24,39.76h1.52c1.27,0,1.34-.13.83-1.33a9.82,9.82,0,1,0-7,13.47,9.3,9.3,0,0,0,7-5.6c.48-1.08.35-1.27-.79-1.27s-2,0-3,0a1.65,1.65,0,0,0-1.62.81,4.45,4.45,0,0,1-7.06.32,5.5,5.5,0,0,1-1.35-4.66,4.75,4.75,0,0,1,3.19-4.19,4,4,0,0,1,4.85,1.25,2.8,2.8,0,0,0,2.87,1.22,4.69,4.69,0,0,1,.53,0m20.11,0h1.62c1.13,0,1.22-.12.78-1.17a9.82,9.82,0,1,0-7,13.31,9.23,9.23,0,0,0,7-5.79c.38-.91.26-1.07-.68-1.08s-2.15,0-3.23,0a1.5,1.5,0,0,0-1.48.75,4.45,4.45,0,0,1-7,.5,5.51,5.51,0,0,1-1.45-4.79,4.74,4.74,0,0,1,3.19-4.18,4,4,0,0,1,4.86,1.26,2.83,2.83,0,0,0,3,1.2H187m-38.81,12c.64,0,1.26,0,1.89,0s.9-.29.64-.93q-3.42-8.59-6.86-17.18a1.26,1.26,0,0,0-.91-.6c-.82-.09-1.67,0-2.5,0a.88.88,0,0,0-1,.65c-.38,1-.81,2.06-1.22,3.08q-2.79,6.93-5.55,13.85c-.43,1.06-.35,1.17.8,1.17h1.88c2.11,0,2.12,0,2.91-2,.16-.43.35-.69.89-.67,1.67,0,3.34,0,5,0a1.1,1.1,0,0,1,.79.58c.87,2.06.85,2.06,3.06,2.06Zm56.93,0h1.52c1.26,0,1.32-.09.86-1.27q-2.92-7.35-5.84-14.71c-.36-.91-.56-2.13-1.25-2.59s-1.91-.11-2.88-.18a1.07,1.07,0,0,0-1.24.84c-1.14,2.92-2.32,5.82-3.48,8.72-1.08,2.66-2.14,5.31-3.21,8-.43,1.08-.34,1.21.86,1.21h1.71c2.21,0,2.19,0,3.08-2.06a1.15,1.15,0,0,1,.8-.58c1.67-.06,3.35-.06,5,0a1.09,1.09,0,0,1,.82.58c.87,2.06.85,2.06,3.05,2.06Z" transform="translate(-1.8 -4.21)"/><path class="cls-3" d="M166.92,89.57a4.69,4.69,0,0,0-.53,0,2.8,2.8,0,0,1-2.87-1.22,4,4,0,0,0-4.85-1.25,4.75,4.75,0,0,0-3.19,4.19A5.47,5.47,0,0,0,156.84,96a4.43,4.43,0,0,0,7-.32,1.68,1.68,0,0,1,1.63-.81c1,0,2,0,3,0s1.27.19.79,1.27a9.3,9.3,0,0,1-7,5.6,9.74,9.74,0,1,1,7-13.47c.52,1.2.44,1.33-.83,1.33Z" transform="translate(-1.8 -4.21)"/><path class="cls-3" d="M187,89.57h-.44a2.83,2.83,0,0,1-3-1.2,4,4,0,0,0-4.86-1.26,4.76,4.76,0,0,0-3.2,4.18A5.52,5.52,0,0,0,177,96.08a4.45,4.45,0,0,0,7-.5,1.51,1.51,0,0,1,1.48-.75c1.08,0,2.15,0,3.23,0s1.06.17.68,1.08a9.23,9.23,0,0,1-7,5.79,9.75,9.75,0,1,1,7-13.31c.44,1,.35,1.17-.78,1.17Z" transform="translate(-1.8 -4.21)"/><path class="cls-3" d="M148.22,101.56h-.17c-2.21,0-2.19,0-3.07-2.06a1.1,1.1,0,0,0-.79-.58c-1.67-.06-3.34,0-5,0-.53,0-.73.24-.89.67-.79,2-.8,2-2.91,2H133.5c-1.15,0-1.23-.11-.8-1.17q2.76-6.93,5.55-13.85c.41-1,.84-2.05,1.22-3.08a.88.88,0,0,1,1-.65c.83,0,1.68,0,2.5,0a1.28,1.28,0,0,1,.91.6q3.47,8.56,6.85,17.18c.27.64.1,1-.64.93s-1.24,0-1.88,0M140,94.76h3.46c-.57-2-1.11-3.74-1.64-5.54h-.17c-.55,1.8-1.08,3.62-1.65,5.53" transform="translate(-1.8 -4.21)"/><path class="cls-3" d="M205.15,101.56H205c-2.2,0-2.18,0-3.05-2.06a1.11,1.11,0,0,0-.81-.58c-1.68-.06-3.35-.06-5,0a1.14,1.14,0,0,0-.81.58c-.9,2.06-.87,2.06-3.09,2.06h-1.7c-1.19,0-1.29-.13-.86-1.21,1.06-2.67,2.14-5.32,3.2-8,1.17-2.9,2.35-5.8,3.49-8.71a1.07,1.07,0,0,1,1.24-.85c1,.07,2.18-.28,2.88.18s.89,1.68,1.24,2.59q2.94,7.35,5.85,14.71c.46,1.18.4,1.27-.86,1.27h-1.52M198.74,89.3h-.22c-.53,1.81-1.07,3.62-1.63,5.48h3.48c-.56-1.89-1.09-3.67-1.63-5.47" transform="translate(-1.8 -4.21)"/><path class="cls-2" d="M140,94.76c.57-1.91,1.1-3.73,1.65-5.53h.17c.53,1.8,1.07,3.59,1.64,5.54Z" transform="translate(-1.8 -4.21)"/><path class="cls-2" d="M198.74,89.3c.54,1.8,1.07,3.58,1.63,5.47h-3.48c.56-1.86,1.1-3.67,1.63-5.48h.22" transform="translate(-1.8 -4.21)"/></g></g></svg>