<svg xmlns="http://www.w3.org/2000/svg" width="108.479" height="98.255" viewBox="0 0 108.479 98.255">
  <g id="Group_182" data-name="Group 182" transform="translate(-302.232 -2631.575)">
    <path id="Path_608" data-name="Path 608" d="M324.015,2773.8c0-1.34.08-2.414-.019-3.473a3.159,3.159,0,0,1,1.943-3.368c7.708-4.26,15.354-8.633,23.068-12.882a2.716,2.716,0,0,0,1.618-2.785c-.064-6.494-.03-12.99-.028-19.485,0-.564-.008-1.131.035-1.693.087-1.165.649-1.966,1.893-1.942,1.149.024,1.683.79,1.784,1.88.061.664.1,1.331.159,2.21h7.838c1.526,0,3.051-.014,4.576,0,2.167.026,2.686.541,2.76,2.711.019.551,0,1.1,0,1.89,2.162,0,4.124-.016,6.086,0,2.458.026,3.267,1.05,2.234,3.33a8.062,8.062,0,0,0,.012,6.949c.966,2.277.149,3.327-2.294,3.338-4.406.02-8.812.011-13.218,0-2.559,0-3-.462-3.079-3.086-.012-.443-.065-.884-.116-1.558-1.395,0-2.737-.075-4.059.054-.32.031-.8.722-.821,1.13a29.637,29.637,0,0,0,.026,5.074,2.925,2.925,0,0,0,1.386,1.81c7.45,4.26,14.9,8.519,22.444,12.61,2,1.087,3.053,2.326,2.7,4.633a19.62,19.62,0,0,0-.019,2.659h2.052q10.422,0,20.844,0c2.413,0,2.883.475,2.884,2.865q.006,23.468,0,46.934c0,2.259-.536,2.8-2.792,2.8q-51.431.006-102.863,0c-2.266,0-2.815-.544-2.816-2.777q-.008-23.553,0-47.1c0-2.252.5-2.735,2.841-2.739q10.422-.015,20.844,0Zm53.093,48.874c.057-.565.11-.843.11-1.12q-.015-24.981-.014-49.962a2.114,2.114,0,0,0-1.33-2.073q-11.092-6.18-22.135-12.446a2.328,2.328,0,0,0-2.632.063q-10.961,6.24-21.985,12.367a2.463,2.463,0,0,0-1.43,2.525q.059,24.389.031,48.776c0,.593.065,1.186.106,1.878H334.8c2.235,0,2.239,0,2.24-2.172,0-6.718-.009-13.437.01-20.155.007-2.137.562-2.743,2.517-2.747q12.957-.024,25.915,0c1.741,0,2.359.6,2.406,2.335.057,2.087.021,4.177.021,6.266,0,4.968-.005,9.936.009,14.9,0,.693-.206,1.565.975,1.562,2.7-.008,5.394,0,8.219,0m-53.225-44.988H302.116V2822.6h21.767Zm78.934.011H381.072v44.92h21.745Zm-52.224,34.315c0-3.1-.025-6.2.015-9.3.013-1.008-.328-1.4-1.368-1.377q-3.551.085-7.1,0c-1.048-.025-1.365.384-1.36,1.385q.042,9.3,0,18.6c-.005,1.007.327,1.4,1.368,1.377,2.309-.056,4.625-.073,6.933.007,1.2.041,1.559-.4,1.537-1.561-.059-3.043-.02-6.088-.022-9.132m3.756-.178c0,3.156.024,6.314-.013,9.47-.012.991.292,1.421,1.35,1.4q3.551-.087,7.1,0c1.029.024,1.381-.351,1.377-1.368q-.045-9.3.005-18.6c.008-1.167-.488-1.419-1.526-1.393-2.254.054-4.512.072-6.764-.006-1.185-.041-1.579.366-1.555,1.543.063,2.986.021,5.975.022,8.963m11.529-69.849c0-1.8.06-3.43-.05-5.049a1.421,1.421,0,0,0-1.046-.9c-3.1-.072-6.206-.066-9.309-.008-.37.007-1.031.456-1.046.729-.1,1.714-.049,3.435-.049,5.223Zm7.448-1.167c-3.515-.478-3.532-.479-3.778,3.063a1.833,1.833,0,0,1-1.914,1.919c-1.122.063-2.251,0-3.375.049a4.594,4.594,0,0,0-1.066.306l.082.425h10.051Z" transform="translate(4 -96.593)" fill="#faae1b"/>
    <path id="Path_609" data-name="Path 609" d="M352.554,2777.713a7.722,7.722,0,0,1-7.881-7.776,7.8,7.8,0,1,1,15.6,0,7.713,7.713,0,0,1-7.716,7.771m-.11-3.74a4,4,0,0,0,4.107-4.028,4.069,4.069,0,0,0-8.137-.09,4.025,4.025,0,0,0,4.03,4.118" transform="translate(4 -96.593)" fill="#faae1b"/>
    <path id="Path_610" data-name="Path 610" d="M340.885,2785.291h-7.376v-3.645c2.2,0,4.369-.037,6.532.044.293.011.751.587.806.951a18.762,18.762,0,0,1,.038,2.65" transform="translate(4 -96.593)" fill="#faae1b"/>
    <rect id="Rectangle_174" data-name="Rectangle 174" width="7.234" height="3.507" transform="translate(352.824 2685.169)" fill="#faae1b"/>
    <path id="Path_611" data-name="Path 611" d="M371.434,2781.631v3.66h-7.15a2.832,2.832,0,0,1-.2-.635c-.216-3.025-.213-3.025,2.843-3.025h4.512" transform="translate(4 -96.593)" fill="#faae1b"/>
    <rect id="Rectangle_175" data-name="Rectangle 175" width="7.258" height="3.511" transform="translate(352.845 2693.882)" fill="#faae1b"/>
    <path id="Path_612" data-name="Path 612" d="M333.547,2790.485h7.327a19.654,19.654,0,0,1-.047,2.8,1.3,1.3,0,0,1-.958.8c-2.06.076-4.125.038-6.322.038Z" transform="translate(4 -96.593)" fill="#faae1b"/>
    <path id="Path_613" data-name="Path 613" d="M371.447,2790.5v3.608c-2.236,0-4.4.03-6.571-.038-.278-.009-.734-.508-.772-.821a23.2,23.2,0,0,1-.037-2.749Z" transform="translate(4 -96.593)" fill="#faae1b"/>
    <rect id="Rectangle_176" data-name="Rectangle 176" width="3.54" height="7.248" transform="translate(319.79 2685.213)" fill="#faae1b"/>
    <path id="Path_614" data-name="Path 614" d="M315.666,2811.177H319.3v7.161c-.121.08-.207.184-.3.192-3.333.306-3.333.3-3.333-3v-4.352" transform="translate(4 -96.593)" fill="#faae1b"/>
    <path id="Path_615" data-name="Path 615" d="M319.436,2796.322c0,2.366.033,4.494-.012,6.62-.028,1.294-1.09.9-1.778.883-.733-.021-1.892.482-1.946-.9-.075-1.91-.062-3.828.023-5.737.014-.3.572-.774.929-.828a20.081,20.081,0,0,1,2.784-.039" transform="translate(4 -96.593)" fill="#faae1b"/>
    <path id="Path_616" data-name="Path 616" d="M310.207,2789.049h-3.631v-7.206a3.472,3.472,0,0,1,.589-.18c3.042-.257,3.042-.255,3.042,2.816v4.57" transform="translate(4 -96.593)" fill="#faae1b"/>
    <rect id="Rectangle_177" data-name="Rectangle 177" width="3.517" height="7.24" transform="translate(310.605 2714.643)" fill="#faae1b"/>
    <path id="Path_617" data-name="Path 617" d="M310.188,2796.323c0,2.377.092,4.558-.034,6.726-.079,1.353-1.316.766-2.012.749-.563-.014-1.571-.489-1.6-.82a51.409,51.409,0,0,1-.032-5.889c.01-.266.528-.69.85-.731a24.2,24.2,0,0,1,2.824-.035" transform="translate(4 -96.593)" fill="#faae1b"/>
    <path id="Path_618" data-name="Path 618" d="M385.635,2781.787c3.643-.453,3.643-.453,3.643,2.947v4.3h-3.643Z" transform="translate(4 -96.593)" fill="#faae1b"/>
    <rect id="Rectangle_178" data-name="Rectangle 178" width="3.547" height="7.251" transform="translate(389.611 2714.599)" fill="#faae1b"/>
    <path id="Path_619" data-name="Path 619" d="M385.617,2803.838v-7.423h3.64c0,2.268.032,4.447-.039,6.622-.009.276-.529.725-.853.764a23.232,23.232,0,0,1-2.748.037" transform="translate(4 -96.593)" fill="#faae1b"/>
    <path id="Path_620" data-name="Path 620" d="M398.484,2789.034h-3.74c0-2.216-.048-4.339.016-6.458.047-1.55,1.311-.828,2.059-.913.713-.082,1.679-.3,1.669.995-.016,2.071,0,4.142,0,6.376" transform="translate(4 -96.593)" fill="#faae1b"/>
    <path id="Path_621" data-name="Path 621" d="M394.829,2818.6v-7.374h3.637c0,2.236.03,4.458-.041,6.678-.008.241-.576.624-.917.664a23.751,23.751,0,0,1-2.679.032" transform="translate(4 -96.593)" fill="#faae1b"/>
    <path id="Path_622" data-name="Path 622" d="M394.743,2796.686c.3-.232.34-.292.387-.3,3.36-.365,3.36-.365,3.36,2.956,0,.787,0,1.573,0,2.359a2.108,2.108,0,0,1-3.25,2.045,1.234,1.234,0,0,1-.475-.934c-.043-2.071-.022-4.144-.022-6.129" transform="translate(4 -96.593)" fill="#faae1b"/>
  </g>
</svg>
