<svg xmlns="http://www.w3.org/2000/svg" width="100.557" height="99.063" viewBox="0 0 100.557 99.063">
  <g id="Group_183" data-name="Group 183" transform="translate(-606.276 -2632.343)">
    <path id="Path_600" data-name="Path 600" d="M650.322,2772.4c0-2.825-.063-5.653.029-8.477.039-1.212-.4-1.583-1.541-1.788a16.653,16.653,0,0,1-13.546-14.058c-.9-7.76,2.934-14.727,9.968-17.662,6.3-2.63,12.295-1.755,17.458,2.713a15.722,15.722,0,0,1,5.189,17.021c-1.794,6.506-6.241,10.511-12.854,11.934-1.316.284-1.8.677-1.772,2.08.089,5.284.036,10.571.036,15.857,0,.367-.006.734,0,1.1.016,1.083-.177,2.124-1.521,2.088s-1.452-1.109-1.447-2.171c.009-1.779,0-3.558,0-5.339v-3.3m15.2-26.692a13.729,13.729,0,1,0-13.731,13.76,13.651,13.651,0,0,0,13.731-13.76" transform="translate(4 -96.593)" fill="#faae1b"/>
    <path id="Path_601" data-name="Path 601" d="M638.307,2799.544c0,1.126.031,2.164-.009,3.2-.035.938-.445,1.666-1.491,1.655s-1.432-.723-1.486-1.67a52.471,52.471,0,0,1-.245-5.76,2.643,2.643,0,0,1,1.407-1.946c4.861-1.6,9.771-3.056,14.685-4.491a3.488,3.488,0,0,1,1.83.158c4.51,1.325,9.008,2.693,13.511,4.044,1.106.332,2.118.776,2.079,2.167-.039,1.373-1.056,1.766-2.167,2.1-3.45,1.036-3.447,1.051-3.445,4.672,0,5.361.395,5.1-5.121,6.742a20.145,20.145,0,0,1-12.062,0c-5.453-1.635-5.183-1.284-5.157-6.708a12.809,12.809,0,0,1,.016-1.88c.258-1.667-.553-2.286-2.345-2.278m21.654,7.186V2801c-2.33.691-4.5,1.414-6.712,1.95a6.3,6.3,0,0,1-2.872,0c-2.208-.539-4.37-1.266-6.718-1.967,0,2.013-.412,3.921.171,5.452.3.781,2.373.9,3.653,1.287.8.243,1.606.472,2.423.637a6.467,6.467,0,0,0,2.447.311c2.546-.544,5.053-1.27,7.608-1.934m2.652-9.679.054-.343a28.032,28.032,0,0,1-3.394-1.088,17.07,17.07,0,0,0-14.915,0,31.027,31.027,0,0,1-3.424,1.12c3.447,1.334,6.841,2.382,10.246,3.394a2.29,2.29,0,0,0,1.234.009c3.406-1.009,6.8-2.055,10.2-3.091" transform="translate(4 -96.593)" fill="#faae1b"/>
    <path id="Path_602" data-name="Path 602" d="M674.917,2780.711c-2.186,2.216-4.278,4.338-6.372,6.458-.294.3-.589.595-.894.882-.7.661-1.482.88-2.212.128a1.435,1.435,0,0,1,.159-2.213c2.029-2.043,4.053-4.091,6.109-6.106a10.271,10.271,0,0,1,1.466-1.01,17.408,17.408,0,0,1-3.726-11.48,16.8,16.8,0,0,1,2.319-7.735c.557-.957,1.246-1.894,2.475-1.109,1.132.724.609,1.681.085,2.6a13.752,13.752,0,1,0,6.18-5.482c-.286.129-.573.259-.846.413-.91.514-1.841.743-2.433-.358-.649-1.206.154-1.948,1.158-2.284a29.989,29.989,0,0,1,6.437-1.83,16.488,16.488,0,0,1,16.916,10.705,16.7,16.7,0,0,1-25.365,19.466c-.423-.3-.844-.607-1.456-1.048" transform="translate(4 -96.593)" fill="#faae1b"/>
    <path id="Path_603" data-name="Path 603" d="M631.448,2779.484c1.849,1.805,3.68,3.591,5.508,5.379.374.366.751.731,1.107,1.114a1.484,1.484,0,1,1-2.1,2.067c-1.824-1.8-3.631-3.625-5.45-5.434-.4-.4-.827-.774-1.279-1.194a17.16,17.16,0,0,1-11.407,3.445,16.7,16.7,0,0,1-9.687-29.382c.809-.666,1.672-1.1,2.466-.166.872,1.028.147,1.791-.647,2.514a13.217,13.217,0,0,0-4.342,13.485,12.964,12.964,0,0,0,9.722,10.1c5.708,1.555,10.575-.129,14.349-4.64a13.332,13.332,0,0,0,1.332-15.159c-2.936-5.1-7.427-7.476-13.334-7.078-.47.032-1,.251-1.393.1-.644-.245-1.521-.6-1.72-1.13-.347-.923.338-1.526,1.31-1.722a15.856,15.856,0,0,1,8.362.556,16.7,16.7,0,0,1,8.136,25.81c-.274.376-.535.76-.936,1.33" transform="translate(4 -96.593)" fill="#faae1b"/>
    <path id="Path_604" data-name="Path 604" d="M666.221,2817.579c0,1.029.025,2.016-.008,3-.024.725.187,1.058.97,1.3.536.165,1.324,1.1,1.213,1.429a2.277,2.277,0,0,1-1.536,1.358c-1.857.172-3.74.064-5.494.064-.178.259-.276.337-.286.425-.352,3.153-1.088,3.536-3.849,1.882a1.741,1.741,0,0,0-2.266,0,5.591,5.591,0,0,1-.942.562c-1.579.839-2.739.28-2.781-1.487-.028-1.15-.472-1.394-1.5-1.376-2.981.05-5.963.033-8.944.011-3.376-.024-5.67-2.137-5.668-5.18s2.307-5.161,5.676-5.168q12.633-.027,25.264-.015c.366,0,.825-.107,1.077.069.51.357,1.222.848,1.262,1.333.039.47-.608,1.053-1.054,1.484-.221.213-.665.2-1.131.314m-15.11-.187c-3.65,0-7.1-.023-10.543.011-1.592.015-2.507.883-2.48,2.206.026,1.3.966,2.135,2.56,2.149,3.139.029,6.278.015,9.416,0a6.106,6.106,0,0,0,1.047-.186Zm3.1,6.121h3.7v-6.028h-3.7Zm6.92-1.85h2.009V2817.5h-2.009Z" transform="translate(4 -96.593)" fill="#faae1b"/>
    <path id="Path_605" data-name="Path 605" d="M676.792,2768.962c0-1.358.078-2.723-.023-4.074a2.945,2.945,0,0,1,1.634-2.95,6.858,6.858,0,0,1,6.454-.55,3.661,3.661,0,0,0,2.473.068,11.623,11.623,0,0,1,4.727-.24c2.669.546,3.358,1.695,3.359,4.408,0,2.613.049,5.228-.037,7.838a1.562,1.562,0,0,1-2.717,1.412c-1.848-1.184-3.467-1.282-5.207.042a1.887,1.887,0,0,1-2.649.027c-1.814-1.372-3.347-1.271-5.329,0a2.268,2.268,0,0,1-1.811.359,2.221,2.221,0,0,1-.834-1.644c-.113-1.559-.039-3.133-.04-4.7m7.848,2.155c0-1.862-.036-3.73.012-5.6.037-1.453-1.1-1.683-1.994-1.632-.979.056-2.679.54-2.755,1.038a40.862,40.862,0,0,0-.132,6.19Zm2.938,0h4.917q0-2.415,0-4.824c0-1.947-.982-2.849-2.925-2.423-.728.158-1.836.828-1.9,1.368a49.67,49.67,0,0,0-.091,5.879" transform="translate(4 -96.593)" fill="#faae1b"/>
    <path id="Path_606" data-name="Path 606" d="M620.649,2774.915a3.663,3.663,0,0,1,1.44.126c.517.3,1.283.878,1.244,1.269-.054.545-.72,1.43-1.18,1.466a41.579,41.579,0,0,1-6.256.02,1.9,1.9,0,0,1-1.276-1.378c-.006-.467.749-1.069,1.3-1.381.533-.3,1.514.315,1.622-.916.086-1-.425-1.316-1.234-1.67a4.278,4.278,0,0,1-2.664-3.935,50.633,50.633,0,0,1,.005-5.327c.167-2.8,2.28-4.365,5.653-4.307,2.989.052,4.9,1.739,4.983,4.485.054,1.722.043,3.449,0,5.172a4.012,4.012,0,0,1-2.522,3.836c-1.267.516-1.557,1.207-1.111,2.54m-4.043-9.065h.009c0,.733,0,1.466,0,2.2.007,1.533.938,1.928,2.279,1.915,1.771-.018,2.411-.434,2.474-1.89s.036-2.932,0-4.4a1.692,1.692,0,0,0-1.747-1.815c-2.385-.215-3,.327-3.019,2.731,0,.419,0,.838,0,1.257" transform="translate(4 -96.593)" fill="#faae1b"/>
    <path id="Path_607" data-name="Path 607" d="M645.965,2745.768c0-1.776-.024-3.552.006-5.328.044-2.606,1.907-3.694,4.114-2.37q4.365,2.617,8.667,5.343c2.124,1.346,2.089,3.322-.073,4.686q-4.239,2.673-8.536,5.256c-2.3,1.38-4.138.3-4.174-2.415-.022-1.724,0-3.448,0-5.172m10.913-.042-7.772-4.8v9.6l7.772-4.806" transform="translate(4 -96.593)" fill="#faae1b"/>
  </g>
</svg>
