<svg xmlns="http://www.w3.org/2000/svg" width="77.602" height="100.72" viewBox="0 0 77.602 100.72">
  <g id="Group_184" data-name="Group 184" transform="translate(-917.533 -2630.542)">
    <path id="Path_599" data-name="Path 599" d="M960.1,2820.632a24.334,24.334,0,0,1,.589,3.979,3.62,3.62,0,0,1-.924,2.587,2.859,2.859,0,0,1-2.69.147c-3.236-2.428-6.254-2.392-9.484.011a2.851,2.851,0,0,1-2.685-.173,3.65,3.65,0,0,1-.9-2.6,24.9,24.9,0,0,1,.586-3.986H933.5a22.119,22.119,0,0,1,.6,3.922,3.764,3.764,0,0,1-.972,2.706,3.022,3.022,0,0,1-2.83.005c-3.1-2.306-5.974-2.276-9.061.013a3.453,3.453,0,0,1-2.751.1,2.015,2.015,0,0,1-1.066-2.674c1.37-3.833.22-6.641-2.984-9.013-1.423-1.054-1.032-2.8.317-3.906a2.612,2.612,0,0,0,.915-1.714c.092-4.089-.039-8.184.107-12.269.217-6.1,3.454-10.22,8.964-12.5,5.565-2.307,11.205-4.436,16.852-6.535a2.241,2.241,0,0,0,1.7-2.5,4.621,4.621,0,0,0-1.7-4.06,12.585,12.585,0,0,1-4.079-7.28,1.744,1.744,0,0,0-1.529-1.62,6.559,6.559,0,0,1-4.09-9.93,4.724,4.724,0,0,0,.586-2.191c.1-3.607-.256-7.247.983-10.751a19.582,19.582,0,0,1,14.3-13.117c1.014-.265,1.972-.279,2.3.911.367,1.317-.6,1.727-1.634,2.008-8.156,2.208-12.971,8.471-13.01,16.916-.005,1.042,0,2.085,0,3.7.911-.58,1.471-.965,2.058-1.3.861-.494,1.752-1.382,2.612-1.361a32.7,32.7,0,0,0,18.539-5.037,2.648,2.648,0,0,1,3.7.474c1.713,2.007,3.284,4.135,4.966,6.169a4.2,4.2,0,0,0,1.277.7c1.659-5.434-.917-13.157-5.87-16.883-1.957-1.471-4.405-2.313-6.679-3.331-.94-.421-2.063-.622-1.747-1.954.333-1.4,1.417-1.233,2.528-.959a19.735,19.735,0,0,1,15.065,18.509c.037,1.047.024,2.1.025,3.146a11,11,0,0,0,1,5.272,6.4,6.4,0,0,1-4.408,8.99,1.859,1.859,0,0,0-1.664,1.693,13.029,13.029,0,0,1-4.428,7.606c-1.351,1.132-.7,2.483-.96,3.742-.378,1.844.926,2.136,2.166,2.611q8.148,3.117,16.273,6.293a13.841,13.841,0,0,1,9.1,13.091c.015,1.045-.011,2.154-1.387,2.2-1.356.049-1.506-1-1.543-2.077-.179-5.251-2.838-8.73-7.67-10.621-3.411-1.335-6.832-2.645-10.41-4.029-1.412,2.806-2.795,5.55-4.175,8.3-.236.468-.454.945-.7,1.408-1.126,2.141-2.29,2.419-4.888,1.114a3.277,3.277,0,0,0-1.218,3.376c.775,3.905,1.384,7.844,1.986,11.78.148.965.559,1.377,1.5,1.431a10.929,10.929,0,0,1,2.021.3,2.4,2.4,0,0,1,1.336,4.117c-.461.549-.982,1.047-1.676,1.78h6.968c-.689-.726-1.2-1.219-1.66-1.759a2.418,2.418,0,0,1,1.33-4.129c1.425-.323,2.891-.469,4.6-.736,0-1.877,0-3.739,0-5.6,0-1.154,0-2.308.007-3.461.011-1.017.443-1.935,1.511-1.722a2.4,2.4,0,0,1,1.341,1.708,25.073,25.073,0,0,1,.063,3.969c.863-.458,1.638-1.212,2.356-1.161a3.788,3.788,0,0,1,2.4,1.315,17.994,17.994,0,0,1,1.743,3.329c.895,1.786.895,1.786,3.241,1.633v-4.188c0-1.039.257-1.986,1.5-1.973,1.261.013,1.43,1.006,1.431,2.021,0,.839.022,1.679,0,2.517-.035,1.211-.085,2.263,1.3,3.019,1.162.632,1.1,2.351.087,3.458-.954,1.043-2.088,1.929-2.986,3.014a3.229,3.229,0,0,0-.7,2.036c.073,1.4.5,2.787.619,4.192.211,2.414-1.777,3.855-3.736,2.468-3.246-2.3-6.152-2.366-9.332.011a2.876,2.876,0,0,1-2.7-.1,3.549,3.549,0,0,1-.966-2.567,23.824,23.824,0,0,1,.617-4.025Zm-23.385-36.9c-4.132,1.64-8.2,3.045-12.076,4.859a9.5,9.5,0,0,0-5.722,7.774c-.337,3.27-.212,6.589-.271,9.886-.027,1.506-.005,3.013-.005,4.48,1.681.349,2.729-.065,3.255-1.6a18.954,18.954,0,0,1,1.1-2.258c1.5-3.006,2.739-3.287,5.385-1.049,0-1.367.018-2.6-.005-3.836-.019-1.033.168-2.024,1.383-2.075,1.335-.056,1.549.98,1.547,2.071-.005,2.516.03,5.033-.015,7.548-.017.893.217,1.347,1.184,1.414a10.444,10.444,0,0,1,3.089.508c.843.332,1.915.959,2.157,1.7s-.316,1.82-.71,2.664a7.628,7.628,0,0,1-1.459,1.57h7c-.687-.729-1.2-1.227-1.661-1.772a2.4,2.4,0,0,1,1.293-4.129,10.641,10.641,0,0,1,2.019-.3,1.419,1.419,0,0,0,1.518-1.413c.6-3.935,1.213-7.872,1.978-11.777a3.33,3.33,0,0,0-1.2-3.4c-2.869,1.409-3.814,1.07-5.242-1.794-1.47-2.95-2.951-5.894-4.539-9.063m3.373-32.667c0,3.556-.022,6.945,0,10.334a12.075,12.075,0,0,0,24.15.183c.054-3.51.027-7.021-.005-10.532a2.42,2.42,0,0,0-.4-1.449c-1.146-1.349-2.389-2.614-3.649-3.968a34.694,34.694,0,0,1-20.1,5.432m20.907,63.461-.409-.3a22.925,22.925,0,0,0-3.028-.483,3.828,3.828,0,0,1-3.742-2.779,26.1,26.1,0,0,0-1.414-2.7c-1.074,1.752-1.7,3.746-3.061,4.722s-3.46.947-5.468,1.412c.957.943,1.687,1.763,2.519,2.46a3.47,3.47,0,0,1,1.263,3.764c-.263,1.128-.369,2.292-.565,3.57,1.9-.83,3.569-2.129,5.227-2.119,1.709.01,3.411,1.3,5.558,2.211-1.865-4.247-.848-7.475,3.12-9.755m-26.9-.311a25.267,25.267,0,0,0-3.1-.477,3.716,3.716,0,0,1-3.672-2.637,30.93,30.93,0,0,0-1.482-2.9c-1.052,1.744-1.665,3.747-3.018,4.727-1.377,1-3.484.988-5.814,1.55,4.173,2.337,5.059,5.612,3.222,9.846,2.12-.941,3.781-2.256,5.442-2.257,1.718,0,3.438,1.273,5.156,1.989a45.439,45.439,0,0,1,3.267-9.846m53.459.313-.4-.309a27.99,27.99,0,0,0-3.18-.5,3.586,3.586,0,0,1-3.45-2.476c-.412-1.021-1-1.973-1.549-3.037-1.053,1.751-1.663,3.755-3.015,4.737-1.371,1-3.476.979-5.321,1.421,1.256,1.453,2.973,2.654,3.476,4.24.515,1.623-.158,3.622-.316,5.516,1.759-.764,3.429-2.064,5.088-2.051,1.712.014,3.415,1.3,5.6,2.243-1.936-4.266-.9-7.493,3.064-9.782m-29.266-39.175a16.678,16.678,0,0,1-12.133,0c.093,1.314-.2,2.581.3,3.293,1.785,2.546,3.838,4.9,5.877,7.441,1.762-2.169,3.258-4.2,4.957-6.041,1.271-1.377,1.3-2.848,1-4.695m2.064,16.96c1.635-3.29,3.182-6.4,4.78-9.618-1.49-.586-2.741-1.119-4.025-1.551a1.214,1.214,0,0,0-1.068.228c-1.844,2.2-3.633,4.439-5.544,6.8l5.857,4.142m-10.174-4.141c-1.909-2.361-3.668-4.568-5.478-6.731a1.212,1.212,0,0,0-1.046-.33c-1.328.447-2.619,1-4.108,1.6l4.79,9.617,5.842-4.152m5.319,18.7c-.468-2.777-.892-5.563-1.452-8.322a1.609,1.609,0,0,0-1.266-.878c-.714.015-1.958.28-2.044.653-.647,2.826-1.066,5.7-1.608,8.867,2.786-3.79,3.908-3.8,6.37-.32m11.82-46.474c2.242-.518,3.383-2.009,3.184-3.949a3.229,3.229,0,0,0-3.184-3.04Zm-30.378.009v-7.069c-2.11.69-3.15,1.928-3.127,3.586.024,1.715,1.1,2.955,3.127,3.483m18.594,32.364c-2.792-2.786-4.083-2.761-6.3.028.55,2.368,2.42,1.794,4.036,1.9,1.475.094,1.757-1.008,2.269-1.924" transform="translate(4 -96.593)" fill="#faae1b"/>
  </g>
</svg>
