<svg xmlns="http://www.w3.org/2000/svg" width="85.142" height="101.107" viewBox="0 0 85.142 101.107">
  <g id="Group_185" data-name="Group 185" transform="translate(-469 -2883.576)">
    <path id="Path_595" data-name="Path 595" d="M485.942,3013.171c3.037.36,3.038.36,3.038,3.376,0,3.106-.018,6.212.008,9.318.01,1.192-.282,2.218-1.649,2.187-1.261-.028-1.544-1.015-1.535-2.144.027-3.092.009-6.183.009-9.359h-12.52v15.7H474.9q7.423,0,14.848,0c1.954,0,2.381.447,2.391,2.434.009,1.734,0,3.468,0,5.33h18.95v-4.375c0-3.135,0-3.135,3.16-3.544v-15.411c0-3.132,0-3.132,3.16-3.544,0-1.96.012-3.947-.005-5.934-.01-1.106.215-2.1,1.533-2.129,1.421-.03,1.653,1.009,1.643,2.177-.018,1.939-.005,3.879-.005,5.928h6.142a4.032,4.032,0,0,0,.16-.815c.012-4.474.084-8.951-.053-13.422a6.527,6.527,0,0,0-1.323-2.722c-.461-.757-1.063-1.427-1.752-2.332-1.474,2.108-3.706,3.621-3.187,6.577a2.11,2.11,0,0,1-.064,1.389c-.377.534-1.008,1.231-1.524,1.225s-1.444-.772-1.465-1.236c-.106-2.412-.691-4.966,1.443-6.958a10.567,10.567,0,0,0,3.217-9.7,22.906,22.906,0,0,1-.018-3.156c.008-1.1.454-1.9,1.644-1.867,1.094.032,1.513.817,1.515,1.839.006,2.421-.063,4.846.042,7.263a3.9,3.9,0,0,0,.8,2.41,13.859,13.859,0,0,1,3.961,11.887,95.36,95.36,0,0,0-.062,9.615c.362.052.561.095.762.106,2.071.117,2.394.457,2.4,2.6q.006,7.265,0,14.53v1.756c.524.034.882.074,1.239.076a1.713,1.713,0,0,1,1.92,1.963c0,.421,0,.842,0,1.263v42.58c1.67,0,3.277,0,4.885,0,.526,0,1.176-.174,1.55.069.579.377,1.279,1.012,1.338,1.6.045.444-.756,1.106-1.32,1.432-.4.23-1.027.066-1.554.066h-79.3c-.368,0-.737,0-1.106,0-1.115.008-1.893-.476-1.862-1.645.028-1.085.8-1.517,1.836-1.518h6.013c0-2.535,0-4.938,0-7.341,0-.526-.009-1.053.008-1.579.036-1.059.637-1.865,1.631-1.66a2.334,2.334,0,0,1,1.452,1.655c.176,2.25.074,4.522.076,6.786v2.009h3.152v-1.853q0-15.794,0-31.587c0-.473-.152-1.068.073-1.392.375-.539,1-1.25,1.518-1.247s1.132.723,1.5,1.266c.223.33.071.921.071,1.394q0,15.714,0,31.428v2h6c.028-.614.079-1.223.08-1.832q.008-15.714.009-31.428c0-1.242-.234-2.854,1.59-2.869,1.871-.016,1.57,1.623,1.572,2.847q.018,15.714.007,31.428v1.909h3.268v-42.444H470.023v1.7c0,6.475.009,12.95-.017,19.425a2.945,2.945,0,0,1-.4,1.769c-.323.381-1.312.712-1.592.5a2.766,2.766,0,0,1-1.1-1.829c-.1-3.734-.051-7.474-.051-11.211q0-5.133,0-10.266c0-3.112,0-3.112,3.159-3.543v-15.411c0-3.109,0-3.109,3.158-3.544,0-.488,0-1,0-1.514a68.173,68.173,0,0,0-.053-7.417c-.546-4.937.558-9.207,4.156-12.763a2.912,2.912,0,0,0,.61-1.851c.069-2.419.041-4.842.023-7.264-.008-1.1.228-2.112,1.522-2.149,1.4-.04,1.682,1,1.651,2.174a11.072,11.072,0,0,1-.009,1.263,13.8,13.8,0,0,0,4,12.465,3.825,3.825,0,0,1,.715,2.459c.071,4.737.042,9.475.05,14.213a2.451,2.451,0,0,0,.1.42m47.218,22.373h-18.8v42.377h3.052V3075.9q0-15.635,0-31.267c0-.526-.162-1.17.08-1.55.348-.546,1-1.246,1.518-1.24s1.128.728,1.495,1.273c.223.331.071.921.071,1.394q0,15.792,0,31.583v1.837h6.087c0-1.638,0-3.159,0-4.679,0-2-.016-4,.021-6,.019-1,.472-1.791,1.579-1.794s1.548.748,1.563,1.781c.014.947.011,1.9.011,2.842q0,3.924,0,7.846h3.323Zm-22.074,42.433c0-6.573.015-12.985-.03-19.4a3.08,3.08,0,0,0-.67-1.536q-3.862-5.578-7.778-11.12c-.288-.409-.619-.787-1.017-1.291-.425.565-.746.968-1.041,1.389-2.416,3.446-4.776,6.932-7.266,10.322a5.861,5.861,0,0,0-1.168,3.778c.059,5.365.023,10.732.023,16.1v1.757ZM530,3016.587H517.511v15.538H530Zm-47.349-3.337c0-4.3-.217-8.467.073-12.595.212-3.023-1.685-4.62-3.243-6.755a20.256,20.256,0,0,1-1.391,1.778,6.591,6.591,0,0,0-1.791,5.3c.147,3.574.041,7.158.041,10.737v1.538Zm9.565,38.559.282.171,6.007-8.577h-6.289Zm18.81-8.382h-6.289c2.1,2.989,4.051,5.778,6.006,8.568l.283-.16Z" transform="translate(9.994 -96.593)" fill="#faae1b"/>
    <path id="Path_596" data-name="Path 596" d="M470.021,3063.526c.049,1.084-.134,2.076-1.437,2.222-1,.112-1.554-.475-1.71-1.452-.277-1.742.2-2.946,1.262-3.185,1.151-.258,1.9.7,1.885,2.415" transform="translate(43.204 -96.593)" fill="#faae1b"/>
    <path id="Path_597" data-name="Path 597" d="M529.827,3048.545q0,2.364,0,4.728c0,1.023-.406,1.8-1.512,1.828s-1.617-.721-1.627-1.732c-.032-3.309-.038-6.619.008-9.928.014-1.011.625-1.874,1.661-1.612a2.393,2.393,0,0,1,1.4,1.681,43.312,43.312,0,0,1,.068,5.035" transform="translate(-16.664 -96.593)" fill="#faae1b"/>
    <path id="Path_598" data-name="Path 598" d="M529.848,3060.042c-.1,1.211.343,2.721-1.511,2.957-1.181.151-1.693-.792-1.669-2.956.013-1.232-.242-2.82,1.607-2.82,1.9,0,1.472,1.64,1.573,2.819" transform="translate(-16.663 -96.593)" fill="#faae1b"/>
  </g>
</svg>
