<svg width="159" height="171" viewBox="0 0 159 171" fill="none" xmlns="http://www.w3.org/2000/svg">
<g clip-path="url(#clip0_434_303)">
<path d="M85.3301 123.05C85.3301 123.05 84.0401 118.75 84.3701 116.59C84.4001 108.4 85.74 96.26 93.63 88.83C101.06 81.93 105.17 74.44 105.13 68.92C105.13 68.46 105.1 68.01 105.05 67.58C104.68 64.8 103.3 62.76 100.82 61.38C100.04 60.95 99.2901 60.56 98.5501 60.17L98.49 60.14C95.17 58.4 92.08 56.82 89.89 53.35C86.78 49.76 86.4401 36.37 86.4401 36.37C85.5501 25 87.32 9.98999 87.32 9.98999C87.32 9.98999 89.4201 22.2 103.19 31.52C112.85 37.18 118.9 45.76 119.53 55.13C119.57 55.69 119.59 56.25 119.59 56.81C119.57 67.95 112.22 79.28 98.71 89.9C98.59 89.99 98.45 90.12 98.28 90.28C100.31 88.75 106.4 84.75 106.4 84.75C111.11 81.74 114.92 77.59 117.41 72.98C123.05 59.44 123.8 47.62 123.8 47.62C123.8 47.62 127.83 61.37 127.41 73.78C127.41 79.35 126.94 84.94 125.6 89.82C124.27 94.66 122.06 98.86 118.43 101.45C117.25 102.51 108.57 110.3 96.85 111.05C94.11 111.23 92.0701 112.62 90.4401 114.53C88.6101 115.85 85.3301 123.05 85.3301 123.05Z" fill="#003C7F"/>
<path d="M71.46 110.13C59.98 109.42 51.22 101.16 51.14 101.08C38.49 92.16 43.31 60.3 45.33 49.67C45.63 68.41 50.61 79.49 61.66 86.37C70.61 91.93 74.18 96.12 74.18 96.12C72.66 90.68 65.41 85.58 63.63 83.95C53.92 75.08 49.74 66.07 50.35 56.99C50.94 48.32 56.54 40.26 65.72 34.87C72.71 30.77 76.57 25.42 78.7 20.59C37.49 33.15 24.9 62.36 24.9 62.36C36.91 113.29 82.33 121.87 82.33 121.87C81.25 117.91 78.16 110.55 71.46 110.13Z" fill="#003C7F"/>
<path d="M77.95 115.43C76.32 113.22 74.23 111.6 71.37 111.42C65.34 111.04 60.1 108.71 56.36 106.48C52.95 104.44 50.81 102.54 50.32 102.08C46.75 99.52 44.56 95.41 43.24 90.67C41.91 85.89 41.44 80.41 41.44 74.94C41.44 64.74 45.82 43.88 45.82 43.88C45.82 43.88 48.08 66.19 50.65 71.94C53.22 77.69 57.02 81.95 62.35 85.27C63.81 86.18 65.14 87.05 66.33 87.88C64.83 86.57 63.49 85.54 62.77 84.89C53.51 76.44 49.01 67.65 49.02 58.7C49.02 58.1 49.04 57.49 49.08 56.89C49.7 47.7 55.62 39.29 65.08 33.74C74.77 28.04 78.16 19.95 79.39 14.34L81.94 14.6C81.96 16.76 81.97 19.38 81.97 22.38C81.97 26.98 81.94 32.5 81.86 38.74C81.74 47.08 80.6 52.01 78.46 55.41C76.31 58.81 73.27 60.36 69.99 62.08C69.26 62.46 68.51 62.85 67.74 63.28C65.45 64.56 64.17 66.44 63.83 69.01C63.78 69.42 63.75 69.84 63.75 70.27C63.71 75.51 67.65 82.66 74.77 89.27C82.54 96.6 83.81 108.64 83.84 116.51C83.84 118.71 83.73 120.59 83.62 121.97L82.34 121.87L81.1 122.21C80.59 120.33 79.58 117.62 77.97 115.43H77.95Z" fill="white"/>
<path d="M52.12 100.24C52.18 100.3 52.28 100.39 52.41 100.5C52.67 100.72 53.04 101.04 53.53 101.42C54.51 102.19 55.92 103.22 57.68 104.27C61.2 106.37 66.08 108.52 71.53 108.85C75.37 109.09 78.17 111.34 80.03 113.91C80.48 114.53 80.88 115.16 81.24 115.8C81.17 108.23 79.63 97.34 73.04 91.2C74.08 92.6 74.95 94.13 75.41 95.76L73.19 96.94C73.19 96.94 73.15 96.9 73.05 96.78C72.95 96.67 72.78 96.49 72.56 96.26C72.11 95.8 71.41 95.13 70.43 94.28C68.47 92.58 65.39 90.19 60.98 87.44C55.26 83.89 51.04 79.16 48.29 72.97C46.71 69.43 45.6 65.43 44.91 60.87C44.4 65.18 44.02 70.06 44.02 74.91C44.02 80.22 44.49 85.5 45.73 89.94C46.97 94.39 48.97 97.94 51.89 99.99L52.06 100.13C52.06 100.13 52.1 100.17 52.13 100.19L52.12 100.24Z" fill="white"/>
<path d="M66.37 35.98C57.47 41.21 52.19 48.92 51.64 57.08C51.6 57.63 51.58 58.17 51.58 58.72C51.58 66.76 55.57 74.83 64.49 83C65.09 83.55 66.59 84.69 68.27 86.19C63.76 80.76 61.18 75.22 61.15 70.29C61.15 69.76 61.18 69.23 61.25 68.71C61.65 65.39 63.53 62.64 66.47 61.04C67.27 60.6 68.03 60.2 68.77 59.82C72.09 58.09 74.52 56.78 76.25 54.06C77.99 51.33 79.14 46.88 79.25 38.74C79.33 32.52 79.36 27.01 79.36 22.42V22.22C77.04 26.97 73.08 32.06 66.36 36L66.37 35.98Z" fill="white"/>
<path d="M82.33 121.87C81.25 117.91 78.16 110.55 71.46 110.13C59.98 109.42 51.22 101.16 51.14 101.08C38.49 92.16 43.31 60.3 45.33 49.67C45.63 68.41 50.61 79.49 61.66 86.37C70.61 91.93 74.18 96.12 74.18 96.12C72.66 90.68 65.41 85.58 63.63 83.95C53.92 75.08 49.74 66.07 50.35 56.99C50.94 48.32 56.54 40.26 65.72 34.87C75.78 28.96 79.37 20.47 80.63 14.63C80.68 20.1 80.69 28.45 80.55 38.75C80.33 55.24 75.97 57.51 69.38 60.96C68.64 61.34 67.89 61.74 67.1 62.17C64.48 63.61 62.9 65.93 62.54 68.87C61.78 74.92 66.03 82.91 73.89 90.23C83.24 98.97 82.84 115.72 82.33 121.88" fill="#FCAF17"/>
<path d="M85.81 120.13C85.42 112.45 85.96 97.84 94.55 89.82C102.76 82.17 107.18 73.79 106.39 67.42C105.99 64.25 104.3 61.75 101.47 60.2C100.68 59.76 99.92 59.37 99.17 58.98L99.11 58.95C92.42 55.45 88.01 53.15 87.78 36.36C87.66 27.26 87.65 19.74 87.67 14.41C89.51 20.3 93.58 27.46 102.5 32.7C111.87 38.19 117.58 46.41 118.18 55.23C118.92 66.2 111.9 77.82 97.86 88.84C96.78 89.69 93.82 93.48 93.27 94.59C92.73 95.7 92.94 97.04 92.94 97.04C92.94 97.04 93.16 96.32 94.15 95.48C95.14 94.65 98.01 91.52 107.09 85.88C117.96 79.11 123.13 68.69 124.02 51.39C126.14 64.23 129.21 92.18 117.57 100.38L117.55 100.4L117.52 100.43C116.58 101.3 107.99 109 96.74 109.7C90.37 110.1 87.15 116.37 85.79 120.12" fill="#FCAF17"/>
<path d="M25.4 133.68C24.88 134.54 24.95 135.77 24.95 136.91C24.95 139.64 24.84 142.48 25.13 145.2C25.24 146.22 25.33 147.27 25.83 148.18H22.49C22.9 147.04 22.9 145.36 22.9 144.09V136.55C22.9 136.32 22.9 136.05 22.74 136.05C22.58 136.05 22.51 136.21 22.44 136.39L17.35 148.41L13.03 137.25C12.78 136.59 12.62 136.05 12.42 136.05C12.22 136.05 12.22 136.46 12.22 136.8L12.2 144.18C12.2 145.95 12.2 147.43 12.7 148.18H10L10.2 147.89C11.04 146.68 11.13 143.1 11.13 140.64V134.96C11.13 134.35 11.11 134.03 10.56 133.69H13.39C13.66 133.69 14 133.73 14.09 134.03L17.45 143.94C17.56 144.28 17.63 144.67 17.81 144.67C18.01 144.67 18.08 144.44 18.22 144.12L22.15 134.65C22.35 134.17 22.51 133.7 23.08 133.7H25.4V133.68Z" fill="#003C7F"/>
<path d="M38.22 136.36H38.15C37.6 135.38 36.83 134.32 34.49 134.32C30.92 134.32 29.51 137.25 29.51 140.48C29.51 144.05 31.33 146.82 35.05 146.82C37 146.82 38.32 145.98 38.98 145.25V145.39C38.98 146.41 37.34 148.55 33.8 148.55C29.67 148.55 27.12 145.28 27.14 141.12C27.14 136.46 29.89 133.33 34.5 133.33C35.82 133.33 36.77 133.51 38.29 133.51L38.2 136.37L38.22 136.36Z" fill="#003C7F"/>
<path d="M40.92 136.65C40.92 135.63 40.92 134.45 40.42 133.67H43.46C42.96 134.44 42.96 135.62 42.96 136.65V140.19C44.03 139.98 45.39 138.35 46.53 137.01C47.76 135.58 48.55 134.65 48.55 134.1C48.55 133.92 48.55 133.76 48.53 133.67H51.35C50.28 134.6 49.42 135.28 48.42 136.37L44.9 140.19L48.67 145.57C49.28 146.46 50.06 147.36 50.74 148.16H48.35C47.94 148.16 47.74 147.91 47.49 147.55L43.4 141.37C43.31 141.21 43.15 141.01 43.06 141.01C42.97 141.01 42.97 141.12 42.97 141.22V145.2C42.97 146.22 42.97 147.4 43.47 148.18H40.43C40.93 147.41 40.93 146.23 40.93 145.2V136.66L40.92 136.65Z" fill="#003C7F"/>
<path d="M53.08 136.65C53.08 135.63 53.08 134.45 52.58 133.67H55.62C55.12 134.44 55.12 135.62 55.12 136.65V147.26H56.85C58.12 147.26 59.28 147.08 60.42 145.97L59.99 148.11C59.54 148.16 59.06 148.18 58.6 148.18H52.31C52.99 147.29 53.08 144.09 53.08 143.02V136.66V136.65Z" fill="#003C7F"/>
<path d="M78.54 136.36H78.47C77.92 135.38 77.15 134.32 74.81 134.32C71.24 134.32 69.83 137.25 69.83 140.48C69.83 144.05 71.65 146.82 75.37 146.82C77.32 146.82 78.64 145.98 79.3 145.25V145.39C79.3 146.41 77.66 148.55 74.12 148.55C69.99 148.55 67.44 145.28 67.46 141.12C67.46 136.46 70.21 133.33 74.82 133.33C76.14 133.33 77.09 133.51 78.61 133.51L78.52 136.37L78.54 136.36Z" fill="#003C7F"/>
<path d="M87.2 148.54C82.43 148.54 80.34 145.27 80.34 141.22C80.34 136.9 82.84 133.31 87.57 133.31C92.3 133.31 94.43 136.58 94.43 140.63C94.43 144.95 91.93 148.54 87.21 148.54H87.2ZM87.38 134.32C84.11 134.32 82.7 137.32 82.7 140.59C82.7 143.59 83.72 147.54 87.38 147.54C90.65 147.54 92.06 144.54 92.06 141.27C92.06 138.27 91.04 134.32 87.38 134.32Z" fill="#003C7F"/>
<path d="M96.8 136.65C96.8 135.63 96.8 134.45 96.3 133.67H99.34C98.84 134.44 98.84 135.62 98.84 136.65V147.26H100.57C101.84 147.26 103 147.08 104.14 145.97L103.71 148.11C103.26 148.16 102.78 148.18 102.32 148.18H96.03C96.71 147.29 96.8 144.09 96.8 143.02V136.66V136.65Z" fill="#003C7F"/>
<path d="M106.17 136.65C106.17 135.63 106.17 134.45 105.67 133.67H108.71C108.21 134.44 108.21 135.62 108.21 136.65V147.26H109.94C111.21 147.26 112.37 147.08 113.51 145.97L113.08 148.11C112.63 148.16 112.15 148.18 111.69 148.18H105.4C106.08 147.29 106.17 144.09 106.17 143.02V136.66V136.65Z" fill="#003C7F"/>
<path d="M117.35 147.27H119.96C121.37 147.27 122.82 146.93 123.89 145.98L123.48 148.07C122.87 148.11 122.12 148.18 121.3 148.18H114.73C115.23 147.41 115.3 146.23 115.3 145.2V136.66C115.3 135.64 115.3 134.46 114.8 133.68H122.73L122.82 135.43C122.03 134.75 120.8 134.59 119.46 134.59H117.35V140.02C119.1 140.02 120.94 140.02 122.69 139.86C121.89 141.15 119.33 141.15 117.92 141.15H117.35V147.26V147.27Z" fill="#003C7F"/>
<path d="M137.23 136.02C135.69 134.77 134.39 134.32 132.64 134.32C129.12 134.32 127.07 137.3 127.07 140.61C127.07 144.81 129.07 147.54 133.45 147.54C134.04 147.54 134.56 147.47 135.13 147.38C135.36 146.61 135.36 145.81 135.36 145.04V143.93C135.36 142.91 135.36 141.73 134.86 140.95H137.9C137.4 141.72 137.4 142.9 137.4 143.93V146.2C137.4 146.79 137.47 147.61 137.56 148.18C136.17 148.41 134.31 148.54 132.72 148.54C127.93 148.54 124.7 146.43 124.7 141.32C124.7 135.82 128.7 133.32 133.79 133.32C134.93 133.32 136.06 133.48 137.22 133.57V136.02H137.23Z" fill="#003C7F"/>
<path d="M142.42 147.27H145.03C146.44 147.27 147.89 146.93 148.96 145.98L148.55 148.07C147.94 148.11 147.19 148.18 146.37 148.18H139.8C140.3 147.41 140.37 146.23 140.37 145.2V136.66C140.37 135.64 140.37 134.46 139.87 133.68H147.8L147.89 135.43C147.1 134.75 145.87 134.59 144.53 134.59H142.42V140.02C144.17 140.02 146.01 140.02 147.76 139.86C146.96 141.15 144.4 141.15 142.99 141.15H142.42V147.26V147.27Z" fill="#003C7F"/>
<path d="M11.19 154.59C11.19 154.12 11.19 153.58 10.96 153.23C11.79 153.23 12.59 153.13 13.4 153.13C14.72 153.13 15.33 153.86 15.33 154.88C15.33 156.07 14.59 156.96 13.36 156.96C12.81 156.96 12.65 156.86 12.46 156.73C13.26 156.63 14.26 156.49 14.26 154.98C14.26 154.17 14.02 153.55 12.96 153.55H12.13V158.51C12.13 158.93 12.16 159.51 12.4 159.87H10.96C11.2 159.51 11.19 158.92 11.19 158.51V154.6V154.59Z" fill="#003C7F"/>
<path d="M18.36 159.44H19.55C20.19 159.44 20.86 159.28 21.35 158.85L21.16 159.81C20.88 159.83 20.54 159.86 20.16 159.86H17.16C17.39 159.51 17.42 158.97 17.42 158.5V154.59C17.42 154.12 17.42 153.58 17.19 153.23H20.82L20.86 154.03C20.5 153.72 19.94 153.65 19.32 153.65H18.35V156.13C19.15 156.13 19.99 156.13 20.79 156.06C20.43 156.65 19.25 156.65 18.61 156.65H18.35V159.44H18.36Z" fill="#003C7F"/>
<path d="M23.15 159.86C23.51 159.01 23.51 157.74 23.51 156.83V154.62C23.51 154.11 23.49 153.55 23.18 153.24H24.23C24.43 153.24 24.52 153.24 24.65 153.41C24.87 153.7 25.53 154.81 25.86 155.27L27.93 158.19C28 158.29 28.09 158.44 28.15 158.44C28.22 158.44 28.22 158.34 28.22 158.24V154.57C28.22 153.86 28.12 153.51 27.97 153.24H29.05C28.8 153.72 28.74 154.26 28.74 154.79V158.95C28.74 159.29 28.75 159.6 28.76 159.92H28.02L24.22 154.51C24.18 154.45 24.15 154.4 24.11 154.4C24.07 154.4 24.05 154.46 24.05 154.56V157.23C24.05 158.06 24.03 159.11 24.36 159.89H23.16L23.15 159.86Z" fill="#003C7F"/>
<path d="M36.12 159.86L34.99 156.95H32.65C32.2 157.85 31.74 158.87 31.74 159.46C31.74 159.59 31.75 159.72 31.77 159.85H30.47L30.7 159.56C31.29 158.81 33.43 154.35 33.43 153.5V153.22H34.67C35.34 155.29 36 157.54 37.04 159.47L37.25 159.85H36.13L36.12 159.86ZM34.08 154.31C34.06 154.24 34 154.06 33.9 154.06C33.8 154.06 33.74 154.26 33.72 154.31L32.82 156.53H34.8L34.07 154.31H34.08Z" fill="#003C7F"/>
<path d="M38.95 159.86C39.31 159.01 39.31 157.74 39.31 156.83V154.62C39.31 154.11 39.29 153.55 38.98 153.24H40.03C40.23 153.24 40.32 153.24 40.45 153.41C40.67 153.7 41.33 154.81 41.66 155.27L43.73 158.19C43.8 158.29 43.89 158.44 43.95 158.44C44.02 158.44 44.02 158.34 44.02 158.24V154.57C44.02 153.86 43.92 153.51 43.77 153.24H44.85C44.6 153.72 44.54 154.26 44.54 154.79V158.95C44.54 159.29 44.55 159.6 44.56 159.92H43.82L40.02 154.51C39.98 154.45 39.95 154.4 39.91 154.4C39.87 154.4 39.85 154.46 39.85 154.56V157.23C39.85 158.06 39.83 159.11 40.16 159.89H38.96L38.95 159.86Z" fill="#003C7F"/>
<path d="M52.49 154.3C51.78 153.73 51.19 153.52 50.39 153.52C48.78 153.52 47.84 154.88 47.84 156.4C47.84 158.32 48.75 159.57 50.76 159.57C51.03 159.57 51.27 159.54 51.53 159.5C51.63 159.15 51.63 158.78 51.63 158.43V157.92C51.63 157.45 51.63 156.91 51.4 156.56H52.79C52.56 156.91 52.56 157.45 52.56 157.92V158.96C52.56 159.23 52.59 159.6 52.63 159.86C52 159.96 51.14 160.03 50.42 160.03C48.23 160.03 46.75 159.06 46.75 156.73C46.75 154.21 48.58 153.07 50.91 153.07C51.43 153.07 51.95 153.14 52.48 153.18V154.3H52.49Z" fill="#003C7F"/>
<path d="M62.84 154.59C62.84 154.12 62.84 153.58 62.61 153.23C63.44 153.23 64.24 153.13 65.05 153.13C66.37 153.13 66.98 153.86 66.98 154.88C66.98 156.07 66.24 156.96 65.01 156.96C64.46 156.96 64.3 156.86 64.11 156.73C64.91 156.63 65.91 156.49 65.91 154.98C65.91 154.17 65.67 153.55 64.61 153.55H63.78V158.51C63.78 158.93 63.81 159.51 64.05 159.87H62.62C62.86 159.51 62.85 158.92 62.85 158.51V154.6L62.84 154.59Z" fill="#003C7F"/>
<path d="M70.14 159.86C70.37 159.51 70.37 158.97 70.37 158.5V157.55C70.37 156.82 70.06 156.13 69.64 155.27C69.22 154.42 68.69 153.61 68.27 153.22H69.16C69.53 153.22 69.61 153.31 69.79 153.62C70.2 154.26 70.67 155.45 70.87 156.19C70.91 156.35 70.95 156.5 71.04 156.5C71.1 156.5 71.17 156.32 71.28 156.14L71.99 154.88C72.23 154.46 72.46 153.96 72.46 153.64C72.46 153.48 72.42 153.35 72.3 153.22H73.61L72.43 155.06C71.7 156.17 71.31 156.68 71.31 158.05V158.49C71.31 158.96 71.31 159.5 71.54 159.85H70.15L70.14 159.86Z" fill="#003C7F"/>
<path d="M75.56 154.59C75.56 154.12 75.56 153.58 75.33 153.23H76.72C76.49 153.58 76.49 154.12 76.49 154.59V156.21C76.98 156.12 77.6 155.37 78.12 154.75C78.68 154.1 79.05 153.67 79.05 153.42C79.05 153.34 79.05 153.26 79.04 153.22H80.33C79.84 153.65 79.45 153.96 78.99 154.46L77.38 156.21L79.11 158.67C79.39 159.08 79.74 159.49 80.06 159.85H78.97C78.78 159.85 78.69 159.74 78.57 159.57L76.7 156.74C76.66 156.67 76.59 156.57 76.54 156.57C76.49 156.57 76.5 156.62 76.5 156.66V158.48C76.5 158.95 76.5 159.49 76.73 159.84H75.34C75.57 159.49 75.57 158.95 75.57 158.48V154.57L75.56 154.59Z" fill="#003C7F"/>
<path d="M83.21 159.44H84.41C85.05 159.44 85.72 159.28 86.21 158.85L86.02 159.81C85.74 159.83 85.4 159.86 85.02 159.86H82.02C82.25 159.51 82.28 158.97 82.28 158.5V154.59C82.28 154.12 82.28 153.58 82.05 153.23H85.68L85.72 154.03C85.36 153.72 84.8 153.65 84.18 153.65H83.21V156.13C84.01 156.13 84.85 156.13 85.65 156.06C85.29 156.65 84.11 156.65 83.47 156.65H83.21V159.44Z" fill="#003C7F"/>
<path d="M89.55 159.86C89.78 159.51 89.78 158.97 89.78 158.5V153.75H88.4C88.16 153.75 87.92 153.78 87.66 153.98L87.87 153.23H93.1C92.92 153.68 92.29 153.75 91.86 153.75H90.72V158.5C90.72 158.97 90.72 159.51 90.95 159.86H89.56H89.55Z" fill="#003C7F"/>
<path d="M96.52 159.86C96.75 159.51 96.75 158.97 96.75 158.5V153.75H95.37C95.13 153.75 94.89 153.78 94.63 153.98L94.84 153.23H100.07C99.89 153.68 99.26 153.75 98.83 153.75H97.69V158.5C97.69 158.97 97.69 159.51 97.92 159.86H96.53H96.52Z" fill="#003C7F"/>
<path d="M110.55 154.45H110.52C110.27 154 109.92 153.51 108.85 153.51C107.22 153.51 106.57 154.85 106.57 156.33C106.57 157.96 107.4 159.23 109.11 159.23C110 159.23 110.61 158.85 110.91 158.51V158.57C110.91 159.04 110.16 160.01 108.54 160.01C106.65 160.01 105.49 158.51 105.5 156.61C105.5 154.48 106.76 153.05 108.87 153.05C109.47 153.05 109.91 153.13 110.61 153.13L110.57 154.44L110.55 154.45Z" fill="#003C7F"/>
<path d="M117.78 159.86L116.65 156.95H114.31C113.86 157.85 113.4 158.87 113.4 159.46C113.4 159.59 113.4 159.72 113.43 159.85H112.13L112.36 159.56C112.95 158.81 115.09 154.35 115.09 153.5V153.22H116.33C117 155.29 117.66 157.54 118.7 159.47L118.91 159.85H117.79L117.78 159.86ZM115.74 154.31C115.72 154.24 115.66 154.06 115.56 154.06C115.46 154.06 115.4 154.26 115.38 154.31L114.48 156.53H116.46L115.73 154.31H115.74Z" fill="#003C7F"/>
<path d="M127.62 153.23C127.38 153.63 127.41 154.19 127.41 154.71C127.41 155.96 127.36 157.26 127.49 158.5C127.54 158.97 127.58 159.45 127.81 159.86H126.28C126.47 159.34 126.47 158.57 126.47 157.99V154.54C126.47 154.44 126.47 154.31 126.4 154.31C126.33 154.31 126.3 154.38 126.26 154.47L123.93 159.97L121.96 154.87C121.85 154.57 121.77 154.32 121.68 154.32C121.59 154.32 121.59 154.51 121.59 154.66V158.04C121.58 158.85 121.58 159.53 121.81 159.87H120.57L120.66 159.74C121.04 159.19 121.09 157.55 121.09 156.42V153.82C121.09 153.54 121.09 153.39 120.83 153.24H122.12C122.24 153.24 122.4 153.26 122.44 153.4L123.98 157.93C124.03 158.09 124.06 158.26 124.15 158.26C124.24 158.26 124.27 158.16 124.34 158.01L126.14 153.68C126.23 153.46 126.31 153.24 126.57 153.24H127.63L127.62 153.23Z" fill="#003C7F"/>
<path d="M130.07 154.59C130.07 154.12 130.07 153.58 129.84 153.23C130.67 153.23 131.47 153.13 132.28 153.13C133.6 153.13 134.21 153.86 134.21 154.88C134.21 156.07 133.47 156.96 132.24 156.96C131.69 156.96 131.53 156.86 131.34 156.73C132.14 156.63 133.14 156.49 133.14 154.98C133.14 154.17 132.9 153.55 131.84 153.55H131.01V158.51C131.01 158.93 131.04 159.51 131.28 159.87H129.85C130.09 159.51 130.08 158.92 130.08 158.51V154.6L130.07 154.59Z" fill="#003C7F"/>
<path d="M141.7 153.23C141.47 153.59 141.47 154.13 141.47 154.6V158.51C141.47 158.98 141.47 159.52 141.7 159.86L140.46 159.92L140.5 159.23C140.5 159.23 140.48 159.19 140.45 159.19C140.43 159.19 140.39 159.25 140.33 159.3C139.92 159.64 139.29 160.02 138.32 160.02C137.11 160.02 136.31 159.53 136.28 158.25V154.59C136.28 154.12 136.28 153.58 136.05 153.22H137.44C137.21 153.58 137.21 154.12 137.21 154.59V157.62C137.24 158.73 137.7 159.41 138.87 159.41C140.04 159.41 140.45 158.65 140.48 157.41C140.49 157.02 140.52 156.61 140.52 156.21V154.58C140.52 154.11 140.52 153.57 140.29 153.21H141.68L141.7 153.23Z" fill="#003C7F"/>
<path d="M143.64 158.56C143.95 159 144.4 159.61 145.49 159.61C146.28 159.61 146.87 159.14 146.87 158.31C146.87 156.56 143.9 156.78 143.9 154.86C143.9 153.65 144.89 153.06 145.99 153.06C146.53 153.06 147.06 153.12 147.59 153.12V154.09C147.12 153.6 146.84 153.48 146.15 153.48C145.46 153.48 144.88 153.84 144.88 154.62C144.88 156.22 147.85 156.02 147.85 158.01C147.85 159.3 146.59 160.03 145.43 160.03C144.92 160.03 144.12 159.86 143.64 159.67V158.57V158.56Z" fill="#003C7F"/>
<path d="M58.21 153.03H57.39V159.89H58.21V153.03Z" fill="#FCAF17"/>
</g>
<defs>
<clipPath id="clip0_434_303">
<rect width="138.96" height="150.02" fill="white" transform="translate(10 10)"/>
</clipPath>
</defs>
</svg>
