<?xml version="1.0" encoding="UTF-8"?><svg xmlns="http://www.w3.org/2000/svg" viewBox="0 0 169.57 52.48"><defs><style>.d{fill:#fcaf1b;}</style></defs><g id="a"/><g id="b"><g id="c"><g><path class="d" d="M71.59,7.47c-.53,.88-.46,2.12-.46,3.27,0,2.77-.11,5.65,.18,8.41,.12,1.04,.21,2.1,.71,3.02h-3.39c.42-1.15,.42-2.86,.42-4.15v-7.65c0-.23,0-.51-.16-.51s-.23,.16-.3,.35l-5.16,12.19-4.38-11.31c-.25-.67-.42-1.22-.62-1.22s-.21,.42-.21,.76l-.02,7.49c0,1.8,0,3.29,.51,4.05h-2.74l.21-.3c.85-1.22,.94-4.86,.94-7.35v-5.76c0-.62-.02-.94-.58-1.29h2.86c.28,0,.62,.05,.71,.35l3.41,10.05c.11,.35,.18,.74,.37,.74,.21,0,.28-.23,.41-.55l3.99-9.61c.21-.48,.37-.97,.94-.97h2.35Z"/><path class="d" d="M76.4,21.25h2.65c1.43,0,2.9-.35,3.99-1.31l-.41,2.12c-.62,.05-1.38,.12-2.21,.12h-6.66c.51-.78,.58-1.98,.58-3.02V10.49c0-1.04,0-2.24-.51-3.02h8.04l.09,1.77c-.81-.69-2.05-.85-3.41-.85h-2.14v5.51c1.77,0,3.64,0,5.41-.16-.81,1.31-3.41,1.31-4.84,1.31h-.58v6.2Z"/><path class="d" d="M87.73,22.17c.51-.78,.51-1.98,.51-3.02V8.62h-3.07c-.53,0-1.06,.07-1.64,.51l.46-1.66h11.59c-.39,.99-1.8,1.15-2.74,1.15h-2.54v10.53c0,1.04,0,2.24,.51,3.02h-3.09Z"/><path class="d" d="M106.38,10.49c0-1.04-.02-2.1-.53-3.02h3.13c-.51,.92-.53,1.98-.53,3.02v8.66c0,1.04,.02,2.1,.53,3.02h-3.13c.51-.92,.53-1.98,.53-3.02v-4.45h-6.82v4.45c0,1.04,.02,2.1,.53,3.02h-3.14c.51-.92,.53-1.98,.53-3.02V10.49c0-1.04-.02-2.1-.53-3.02h3.14c-.51,.92-.53,1.98-.53,3.02v3.3h6.82v-3.3Z"/><path class="d" d="M117.66,22.54c-4.84,0-6.96-3.32-6.96-7.42,0-4.38,2.54-8.02,7.33-8.02s6.96,3.32,6.96,7.42c0,4.38-2.53,8.02-7.33,8.02m.18-14.42c-3.32,0-4.75,3.04-4.75,6.36,0,3.04,1.04,7.05,4.75,7.05,3.32,0,4.75-3.04,4.75-6.36,0-3.04-1.04-7.05-4.75-7.05"/><path class="d" d="M126.99,10.49c0-1.04,0-2.24-.51-3.02,2.33,0,4.65-.23,7.01-.23,3.85,0,6.47,2.9,6.47,7.03,0,5.14-3.55,7.99-7.93,7.99-2.33,0-3.94-.09-5.55-.09,.51-.78,.51-1.98,.51-3.02V10.49Zm2.07,9.1c0,1.66,.46,1.75,2.95,1.75,4.1,0,5.55-2.9,5.55-6.68,0-3.98-2.17-6.5-6.29-6.5-.85,0-1.68,.09-2.19,.18,0,.35-.02,.71-.02,1.08v10.16Z"/><path class="d" d="M142.62,10.49c0-1.04,0-2.23-.51-3.02h3.09c-.51,.78-.51,1.98-.51,3.02v8.66c0,1.04,0,2.23,.51,3.02h-3.09c.51-.78,.51-1.98,.51-3.02V10.49Z"/><path class="d" d="M146.85,19.29c.69,.97,1.68,2.33,4.1,2.33,1.75,0,3.06-1.04,3.06-2.88,0-3.87-6.59-3.39-6.59-7.65,0-2.67,2.19-3.99,4.63-3.99,1.2,0,2.37,.14,3.55,.14v2.14c-1.04-1.08-1.66-1.36-3.2-1.36s-2.81,.81-2.81,2.54c0,3.55,6.59,3.11,6.59,7.51,0,2.86-2.79,4.47-5.37,4.47-1.13,0-2.9-.37-3.96-.81v-2.44Z"/><path class="d" d="M161.41,22.17c.51-.78,.51-1.98,.51-3.02V8.62h-3.07c-.53,0-1.06,.07-1.64,.51l.46-1.66h11.59c-.39,.99-1.8,1.15-2.74,1.15h-2.54v10.53c0,1.04,0,2.24,.51,3.02h-3.09Z"/><path class="d" d="M60.72,28.11h-.03c-.25-.44-.6-.93-1.67-.93-1.63,0-2.27,1.34-2.27,2.81,0,1.63,.83,2.89,2.53,2.89,.89,0,1.49-.38,1.79-.72v.06c0,.47-.75,1.44-2.36,1.44-1.89,0-3.05-1.49-3.04-3.39,0-2.12,1.25-3.55,3.36-3.55,.6,0,1.04,.08,1.73,.08l-.04,1.31Z"/><path class="d" d="M64.83,33.66c-2.18,0-3.13-1.49-3.13-3.34,0-1.97,1.14-3.61,3.29-3.61s3.13,1.49,3.13,3.34c0,1.97-1.14,3.6-3.29,3.6m.08-6.49c-1.49,0-2.14,1.37-2.14,2.86,0,1.37,.47,3.17,2.14,3.17,1.49,0,2.13-1.37,2.13-2.86,0-1.37-.47-3.17-2.13-3.17"/><path class="d" d="M69.35,28.25c0-.47,0-1-.23-1.36h1.39c-.23,.35-.23,.89-.23,1.36v4.84h.79c.58,0,1.11-.08,1.63-.59l-.2,.97c-.21,.02-.42,.03-.63,.03h-2.87c.31-.4,.35-1.87,.35-2.35v-2.9Z"/><path class="d" d="M73.78,28.25c0-.47,0-1-.23-1.36h1.39c-.23,.35-.23,.89-.23,1.36v4.84h.79c.58,0,1.11-.08,1.63-.59l-.2,.97c-.21,.02-.43,.03-.63,.03h-2.87c.31-.4,.35-1.87,.35-2.35v-2.9Z"/><path class="d" d="M79.03,33.08h1.19c.64,0,1.31-.16,1.79-.59l-.18,.95c-.28,.02-.62,.05-.99,.05h-2.99c.23-.35,.26-.89,.26-1.36v-3.9c0-.47,0-1.01-.23-1.36h3.62l.04,.8c-.36-.31-.92-.38-1.53-.38h-.96v2.47c.8,0,1.64,0,2.43-.07-.36,.59-1.53,.59-2.18,.59h-.26v2.79Z"/><path class="d" d="M88.25,27.96c-.71-.57-1.3-.78-2.09-.78-1.61,0-2.54,1.36-2.54,2.87,0,1.92,.91,3.16,2.91,3.16,.27,0,.51-.03,.77-.07,.1-.35,.1-.72,.1-1.07v-.51c0-.47,0-1-.23-1.36h1.39c-.23,.35-.23,.89-.23,1.36v1.04c0,.27,.03,.64,.07,.9-.63,.1-1.48,.17-2.21,.17-2.19,0-3.66-.96-3.66-3.3,0-2.51,1.82-3.65,4.14-3.65,.52,0,1.04,.07,1.56,.11v1.12Z"/><path class="d" d="M90.77,33.08h1.19c.64,0,1.3-.16,1.79-.59l-.19,.95c-.28,.02-.62,.05-.99,.05h-2.99c.23-.35,.26-.89,.26-1.36v-3.9c0-.47,0-1.01-.23-1.36h3.61l.04,.8c-.36-.31-.92-.38-1.53-.38h-.96v2.47c.8,0,1.64,0,2.43-.07-.36,.59-1.54,.59-2.18,.59h-.26v2.79Z"/><path class="d" d="M100.36,28.25c0-.47,0-1-.23-1.36h1.39c-.23,.35-.23,.89-.23,1.36v1.62c.49-.09,1.11-.84,1.63-1.45,.56-.65,.92-1.08,.92-1.33,0-.08,0-.15-.01-.2h1.29c-.49,.42-.88,.74-1.34,1.23l-1.61,1.74,1.72,2.46c.28,.4,.63,.82,.94,1.18h-1.09c-.19,0-.28-.11-.39-.28l-1.86-2.82c-.04-.07-.11-.17-.15-.17s-.04,.05-.04,.09v1.81c0,.47,0,1,.23,1.36h-1.39c.23-.35,.23-.89,.23-1.36v-3.9Z"/><path class="d" d="M111.36,26.89c-.23,.36-.23,.9-.23,1.37v3.9c0,.46,0,1.01,.23,1.35l-1.23,.06,.04-.68s-.02-.04-.05-.04c-.02,0-.06,.06-.12,.11-.4,.34-1.04,.71-2,.71-1.2,0-2-.49-2.03-1.76v-3.65c0-.47,0-1.01-.23-1.37h1.39c-.23,.36-.23,.9-.23,1.37v3.03c.03,1.11,.49,1.78,1.66,1.78s1.58-.76,1.61-1.99c.01-.39,.04-.8,.04-1.19v-1.63c0-.47,0-1.01-.23-1.37h1.39Z"/><path class="d" d="M117.55,33.5l-1.13-2.9h-2.33c-.44,.9-.91,1.92-.91,2.51,0,.13,.01,.26,.03,.39h-1.29l.23-.29c.59-.75,2.73-5.19,2.73-6.04v-.28h1.23c.66,2.06,1.33,4.31,2.36,6.23l.21,.38h-1.12Zm-2.03-5.53c-.02-.07-.08-.25-.18-.25s-.15,.2-.18,.25l-.9,2.22h1.98l-.73-2.22Z"/><path class="d" d="M119.72,28.25c0-.47,0-1-.23-1.36h1.39c-.23,.35-.23,.89-.23,1.36v4.84h.79c.58,0,1.11-.08,1.63-.59l-.2,.97c-.21,.02-.42,.03-.63,.03h-2.87c.31-.4,.35-1.87,.35-2.35v-2.9Z"/><path class="d" d="M128.96,33.5l-1.13-2.9h-2.33c-.44,.9-.91,1.92-.91,2.51,0,.13,.01,.26,.03,.39h-1.29l.23-.29c.59-.75,2.73-5.19,2.73-6.04v-.28h1.23c.66,2.06,1.33,4.31,2.36,6.23l.21,.38h-1.12Zm-2.03-5.53c-.02-.07-.08-.25-.18-.25s-.16,.2-.18,.25l-.9,2.22h1.98l-.73-2.22Z"/><path class="d" d="M133.72,28.25c0-.47,0-1-.23-1.36h1.39c-.23,.35-.23,.89-.23,1.36v4.84h.79c.58,0,1.11-.08,1.63-.59l-.2,.97c-.21,.02-.43,.03-.63,.03h-2.87c.31-.4,.35-1.87,.35-2.35v-2.9Z"/><path class="d" d="M143.34,26.89c-.23,.36-.23,.9-.23,1.37v3.9c0,.46,0,1.01,.23,1.35l-1.23,.06,.04-.68s-.02-.04-.05-.04c-.02,0-.06,.06-.12,.11-.4,.34-1.04,.71-2,.71-1.2,0-2-.49-2.03-1.76v-3.65c0-.47,0-1.01-.23-1.37h1.39c-.23,.36-.23,.9-.23,1.37v3.03c.03,1.11,.49,1.78,1.66,1.78s1.58-.76,1.61-1.99c.01-.39,.04-.8,.04-1.19v-1.63c0-.47,0-1.01-.23-1.37h1.39Z"/><path class="d" d="M151.29,26.89c-.24,.39-.21,.95-.21,1.47,0,1.24-.05,2.54,.08,3.78,.05,.47,.09,.94,.32,1.36h-1.52c.18-.52,.18-1.29,.18-1.86v-3.44c0-.1,0-.23-.07-.23s-.1,.07-.14,.16l-2.32,5.48-1.97-5.09c-.11-.3-.18-.55-.28-.55s-.09,.19-.09,.34v3.37c-.01,.81-.01,1.48,.22,1.82h-1.23l.09-.13c.38-.55,.42-2.19,.42-3.3v-2.59c0-.28-.01-.42-.26-.58h1.29c.12,0,.28,.02,.32,.16l1.53,4.52c.05,.15,.08,.33,.17,.33,.09,0,.12-.1,.19-.25l1.79-4.32c.09-.22,.17-.44,.43-.44h1.06Z"/><path class="d" d="M152.66,28.25c0-.47,0-1-.23-1.36,.83,0,1.63-.1,2.43-.1,1.32,0,1.93,.73,1.93,1.74,0,1.19-.74,2.07-1.97,2.07-.55,0-.7-.1-.9-.23,.8-.1,1.79-.24,1.79-1.74,0-.81-.24-1.43-1.3-1.43h-.83v4.94c0,.41,.03,.99,.27,1.36h-1.43c.24-.36,.23-.94,.23-1.36v-3.9Z"/><path class="d" d="M163.18,26.89c-.23,.36-.23,.9-.23,1.37v3.9c0,.46,0,1.01,.23,1.35l-1.23,.06,.04-.68s-.02-.04-.05-.04c-.02,0-.06,.06-.12,.11-.4,.34-1.04,.71-2,.71-1.2,0-2-.49-2.03-1.76v-3.65c0-.47,0-1.01-.23-1.37h1.39c-.23,.36-.23,.9-.23,1.37v3.03c.03,1.11,.49,1.78,1.66,1.78s1.58-.76,1.61-1.99c.01-.39,.04-.8,.04-1.19v-1.63c0-.47,0-1.01-.23-1.37h1.39Z"/><path class="d" d="M168.7,32.54c.3,.4,.45,.57,.87,.96h-.85c-.45,0-.64-.24-.87-.57l-1.26-1.8c-.43-.62-.51-.8-1.11-.85v1.87c0,.47,0,1,.23,1.36h-1.44c.3-.48,.28-.97,.28-1.42v-3.83c0-.47,0-1.01-.23-1.36,.87,0,1.7-.1,2.51-.1,1.06,0,1.6,.58,1.6,1.39,0,.95-.79,1.57-1.53,1.88l1.8,2.49Zm-3.22-2.66c.16,.02,.31,.03,.47,.03,1.01,0,1.55-.54,1.55-1.52,0-1.04-.59-1.16-1.51-1.18h-.49c-.01,.16-.02,.33-.02,.5v2.18Z"/><path class="d" d="M57.31,46.66c.08-.06,.34-.33,.8-.83,.45-.49,.87-.98,1.26-1.45,.38-.48,.62-.79,.7-.94,.08-.15,.12-.29,.12-.42,0-.27-.16-.41-.49-.42-.11,0-.17-.03-.17-.08,0-.06,.05-.09,.14-.09,.04,0,.16,0,.38,0l.66-.02c.56,0,.89,0,.99,.01,.1,0,.15,.04,.15,.08,0,.04-.07,.07-.22,.1-.29,.06-.53,.16-.71,.31-.19,.15-.8,.85-1.85,2.11-.38,.46-.96,1.1-1.73,1.91-.38,.4-.64,.68-.78,.86-.14,.18-.24,.26-.31,.26-.04,0-.06-.02-.06-.06,0-.04,.01-.1,.03-.16,.7-2.73,1.05-4.28,1.05-4.64,0-.15-.06-.28-.17-.38-.11-.11-.28-.16-.5-.16-.07,0-.1-.02-.1-.08,0-.06,.06-.09,.19-.09l.94,.02c.27,0,.58-.02,.91-.05,.17-.02,.31-.02,.41-.02,.06,0,.09,.02,.09,.07,0,.05-.04,.08-.11,.09-.25,.02-.42,.07-.51,.13-.09,.07-.18,.21-.26,.42-.08,.21-.2,.66-.36,1.33-.16,.67-.32,1.4-.48,2.19"/><path class="d" d="M63.42,46.42c-.09,.39-.14,.68-.14,.88,0,.12,.04,.23,.1,.33,.07,.1,.16,.15,.28,.15,.17,0,.35-.07,.54-.21,.19-.14,.35-.31,.48-.51,.07-.1,.12-.15,.18-.15s.08,.03,.08,.08c0,.14-.16,.35-.47,.61-.31,.27-.64,.4-.97,.4-.26,0-.46-.1-.61-.29-.15-.19-.22-.41-.22-.66,0-.54,.24-1.13,.73-1.79,.49-.65,.96-.98,1.43-.98,.16,0,.3,.06,.41,.17,.11,.12,.16,.24,.16,.38,0,.28-.15,.56-.46,.85-.3,.29-.81,.53-1.52,.74m.06-.19c.43-.19,.78-.43,1.07-.72,.29-.29,.43-.56,.43-.81,0-.05-.02-.11-.06-.16-.04-.05-.1-.08-.17-.08-.18,0-.39,.12-.63,.37-.24,.25-.45,.71-.64,1.39"/><path class="d" d="M69.61,45.48c.24-.4,.46-.7,.68-.9,.21-.2,.41-.3,.6-.3,.12,0,.23,.04,.31,.11,.08,.07,.12,.17,.12,.29,0,.1-.03,.2-.1,.28-.07,.09-.15,.13-.25,.13-.18,0-.29-.08-.34-.24-.03-.11-.07-.16-.11-.16-.09,0-.23,.14-.44,.41-.21,.28-.41,.62-.62,1.05l-.6,1.83h-.52c.01-.06,.1-.32,.25-.79,.41-1.54,.61-2.38,.61-2.53,0-.05-.02-.08-.06-.08-.05,0-.16,.07-.3,.22-.15,.14-.28,.3-.39,.46-.09,.13-.15,.19-.2,.19s-.07-.02-.07-.07c0-.07,.15-.27,.44-.6,.29-.33,.55-.5,.77-.5,.12,0,.2,.03,.26,.1,.06,.07,.09,.14,.09,.22,0,.09-.02,.23-.05,.42-.01,.06-.03,.22-.06,.45"/><path class="d" d="M74.56,47.64s.01,.08,.03,.11c.02,.03,.05,.04,.09,.04,.09,0,.21-.05,.36-.15s.3-.22,.45-.37c.06-.07,.11-.1,.15-.1,.05,0,.08,.02,.08,.07,0,.1-.14,.25-.43,.45-.29,.2-.55,.31-.79,.31-.15,0-.27-.03-.35-.09-.08-.06-.12-.14-.12-.22,0-.13,.16-.57,.47-1.33,.4-.96,.6-1.5,.6-1.63,0-.05,0-.09-.03-.11-.02-.02-.05-.04-.09-.04-.12,0-.32,.13-.58,.39-.1,.1-.18,.15-.22,.15-.04,0-.06-.02-.06-.07,0-.07,.15-.22,.44-.45,.3-.23,.56-.34,.79-.34,.1,0,.18,.04,.25,.11,.07,.07,.1,.15,.1,.23,0,.1-.02,.2-.05,.3s-.25,.6-.63,1.52c-.3,.77-.45,1.18-.45,1.22m1.37-5.42c.09,0,.17,.03,.23,.1,.07,.07,.1,.14,.1,.23s-.03,.17-.1,.24c-.06,.07-.14,.1-.23,.1s-.17-.03-.24-.1c-.07-.07-.1-.14-.1-.24s.03-.17,.1-.24c.07-.06,.14-.1,.23-.1"/><path class="d" d="M80.19,44.55c-.02,.08-.1,.3-.22,.67-.42,1.18-.62,1.9-.62,2.16,0,.17,.06,.26,.19,.26,.21,0,.52-.24,.93-.72,.05-.06,.1-.09,.14-.09,.05,0,.08,.02,.08,.06,0,.07-.17,.28-.52,.61-.35,.33-.71,.5-1.08,.5-.13,0-.23-.04-.29-.11-.07-.07-.1-.15-.1-.24,0-.19,.06-.45,.18-.78,0-.02,.27-.79,.77-2.29h-.68s-.06-.01-.06-.05c0-.08,0-.13,.03-.14,.02-.01,.09-.02,.23-.03,.14-.01,.32-.02,.56-.02,.07-.23,.16-.5,.26-.8l.16-.48s.03-.03,.05-.03c.1,0,.2,.01,.3,.04,.1,.03,.14,.06,.14,.09v.03l-.4,1.18h.52c.17,.02,.26,.02,.27,.03,0,0,.01,.02,.01,.03,0,.13-.02,.19-.06,.19l-.31-.02-.47-.02Z"/><path class="d" d="M86.93,44.36c-.08,.17-.24,.64-.48,1.4l-.37,1.18c-.08,.21-.12,.4-.12,.55,0,.1,.05,.14,.14,.14,.07,0,.16-.04,.29-.14,.13-.09,.25-.21,.37-.35,.08-.09,.13-.14,.16-.14,.05,0,.07,.02,.07,.07,0,.08-.15,.24-.46,.51-.31,.26-.58,.39-.82,.39-.16,0-.24-.11-.24-.33,0-.15,.01-.35,.03-.59-.44,.59-.89,.89-1.37,.89-.2,0-.36-.08-.46-.23-.1-.15-.15-.32-.15-.51,0-.54,.27-1.17,.81-1.87,.54-.71,1.05-1.06,1.54-1.06,.13,0,.23,.04,.3,.13,.07,.09,.12,.22,.14,.4,.05-.13,.13-.3,.24-.51,.09,.01,.18,.03,.26,.04,.06,.01,.1,.02,.12,.02m-1.3,.14c-.16,0-.36,.12-.6,.35-.24,.24-.45,.58-.63,1.04-.18,.46-.28,.84-.28,1.14,0,.18,.03,.32,.1,.41,.06,.09,.16,.14,.29,.14,.33,0,.66-.3,.99-.9,.33-.6,.5-1.14,.5-1.62,0-.16-.03-.29-.1-.4-.07-.11-.16-.16-.27-.16"/><path class="d" d="M91.91,46.78c0,.33-.12,.62-.36,.86-.24,.24-.52,.36-.84,.36-.28,0-.5-.08-.65-.22-.16-.15-.23-.29-.23-.42,0-.08,.03-.17,.09-.24,.06-.08,.14-.12,.24-.12,.09,0,.17,.03,.22,.08,.05,.06,.08,.12,.08,.2,0,.04-.01,.09-.04,.16-.03,.07-.04,.11-.04,.14,0,.07,.03,.13,.09,.17,.06,.04,.16,.06,.29,.06,.21,0,.38-.06,.49-.18,.12-.12,.17-.26,.17-.44s-.11-.4-.33-.7c-.36-.48-.54-.87-.54-1.16,0-.26,.1-.51,.3-.73,.2-.22,.45-.34,.74-.34,.21,0,.39,.06,.54,.17,.16,.12,.24,.24,.24,.38,0,.09-.03,.17-.09,.24-.06,.07-.13,.1-.21,.1-.16,0-.24-.08-.24-.25v-.23c0-.06-.03-.12-.11-.16-.08-.04-.15-.06-.24-.06-.13,0-.24,.04-.35,.13-.11,.09-.17,.22-.17,.38s.16,.46,.48,.86c.31,.39,.46,.71,.46,.96"/><path class="d" d="M100.86,46.66c.08-.06,.34-.33,.8-.83,.45-.49,.88-.98,1.26-1.45,.38-.48,.62-.79,.7-.94,.08-.15,.12-.29,.12-.42,0-.27-.16-.41-.49-.42-.11,0-.16-.03-.16-.08,0-.06,.05-.09,.14-.09,.04,0,.17,0,.38,0l.65-.02c.56,0,.89,0,.99,.01,.1,0,.15,.04,.15,.08,0,.04-.07,.07-.22,.1-.29,.06-.53,.16-.71,.31-.19,.15-.8,.85-1.85,2.11-.38,.46-.96,1.1-1.73,1.91-.38,.4-.64,.68-.78,.86-.14,.18-.24,.26-.31,.26-.04,0-.06-.02-.06-.06,0-.04,.01-.1,.03-.16,.7-2.73,1.05-4.28,1.05-4.64,0-.15-.06-.28-.17-.38-.11-.11-.28-.16-.5-.16-.07,0-.1-.02-.1-.08,0-.06,.06-.09,.19-.09l.95,.02c.27,0,.58-.02,.91-.05,.17-.02,.31-.02,.4-.02,.06,0,.09,.02,.09,.07,0,.05-.04,.08-.11,.09-.25,.02-.42,.07-.51,.13-.09,.07-.18,.21-.26,.42-.08,.21-.2,.66-.36,1.33-.16,.67-.32,1.4-.48,2.19"/><path class="d" d="M107.52,47.64s.01,.08,.03,.11c.02,.03,.05,.04,.09,.04,.09,0,.21-.05,.36-.15,.15-.1,.3-.22,.44-.37,.06-.07,.11-.1,.15-.1,.05,0,.08,.02,.08,.07,0,.1-.14,.25-.43,.45-.28,.2-.55,.31-.79,.31-.15,0-.27-.03-.35-.09-.08-.06-.12-.14-.12-.22,0-.13,.16-.57,.47-1.33,.4-.96,.6-1.5,.6-1.63,0-.05,0-.09-.03-.11-.02-.02-.05-.04-.09-.04-.12,0-.32,.13-.58,.39-.11,.1-.18,.15-.22,.15-.04,0-.06-.02-.06-.07,0-.07,.15-.22,.44-.45,.3-.23,.56-.34,.79-.34,.1,0,.18,.04,.25,.11,.07,.07,.1,.15,.1,.23,0,.1-.02,.2-.05,.3s-.25,.6-.63,1.52c-.3,.77-.45,1.18-.45,1.22m1.37-5.42c.09,0,.17,.03,.23,.1,.07,.07,.1,.14,.1,.23s-.03,.17-.1,.24c-.07,.07-.14,.1-.23,.1s-.17-.03-.24-.1c-.07-.07-.1-.14-.1-.24s.03-.17,.1-.24c.07-.06,.14-.1,.23-.1"/><path class="d" d="M112.98,45.78c.3-.5,.58-.87,.84-1.12,.26-.25,.51-.37,.73-.37,.13,0,.23,.05,.3,.14,.07,.09,.1,.21,.1,.34,0,.16-.02,.33-.07,.5-.05,.17-.16,.51-.35,1.03-.25,.7-.38,1.1-.38,1.23,0,.09,.04,.14,.12,.14,.07,0,.19-.06,.34-.19,.15-.12,.27-.25,.34-.37,.07-.13,.14-.19,.18-.19s.07,.03,.07,.08c0,.12-.14,.31-.43,.59-.29,.28-.57,.42-.83,.42s-.39-.11-.39-.33,.21-.88,.62-1.96c.16-.42,.24-.73,.24-.94,0-.07-.01-.11-.04-.15-.02-.03-.06-.05-.11-.05-.08,0-.24,.11-.48,.32-.23,.22-.5,.6-.79,1.15-.3,.55-.54,1.05-.73,1.51-.12,.28-.19,.43-.23,.43-.28,0-.41-.04-.41-.11v-.04l.73-2.07c.19-.5,.28-.85,.28-1.05,0-.09-.04-.13-.12-.13-.07,0-.19,.07-.34,.21-.16,.14-.28,.27-.38,.4-.07,.09-.13,.14-.18,.14s-.06-.02-.06-.07c0-.09,.15-.28,.46-.58,.3-.29,.6-.44,.88-.44,.09,0,.16,.03,.21,.1,.05,.06,.07,.13,.07,.2,0,.11-.07,.52-.21,1.2"/><path class="d" d="M120.35,44.3c.15,0,.28,.05,.39,.15,.11,.1,.17,.22,.17,.37,0,.1-.03,.18-.09,.24-.06,.05-.12,.08-.19,.08-.08,0-.14-.02-.18-.07-.04-.05-.08-.14-.11-.26-.03-.13-.07-.21-.1-.24-.03-.03-.08-.04-.13-.04-.16,0-.36,.13-.59,.38-.23,.25-.42,.6-.57,1.05-.15,.45-.22,.82-.22,1.13,0,.23,.04,.4,.11,.52,.08,.11,.19,.17,.35,.17,.17,0,.35-.08,.54-.25,.2-.16,.36-.34,.49-.53,.07-.1,.12-.15,.17-.15s.07,.03,.07,.08c0,.1-.15,.3-.46,.61-.31,.31-.66,.47-1.07,.47-.27,0-.48-.08-.63-.24-.16-.16-.23-.37-.23-.62,0-.44,.14-.9,.41-1.36,.27-.47,.58-.83,.92-1.09,.34-.26,.65-.39,.94-.39"/><path class="d" d="M124.22,47.64s.01,.08,.03,.11c.02,.03,.05,.04,.09,.04,.09,0,.21-.05,.36-.15,.15-.1,.3-.22,.44-.37,.06-.07,.11-.1,.15-.1,.05,0,.08,.02,.08,.07,0,.1-.14,.25-.43,.45-.28,.2-.55,.31-.79,.31-.16,0-.27-.03-.35-.09-.08-.06-.12-.14-.12-.22,0-.13,.16-.57,.47-1.33,.4-.96,.6-1.5,.6-1.63,0-.05,0-.09-.03-.11-.02-.02-.05-.04-.09-.04-.12,0-.32,.13-.58,.39-.11,.1-.18,.15-.22,.15s-.06-.02-.06-.07c0-.07,.15-.22,.44-.45,.3-.23,.56-.34,.79-.34,.1,0,.18,.04,.25,.11,.07,.07,.1,.15,.1,.23,0,.1-.02,.2-.05,.3s-.25,.6-.63,1.52c-.3,.77-.45,1.18-.45,1.22m1.37-5.42c.09,0,.17,.03,.23,.1s.1,.14,.1,.23-.03,.17-.1,.24-.14,.1-.23,.1-.17-.03-.24-.1c-.07-.07-.1-.14-.1-.24s.03-.17,.1-.24c.07-.06,.14-.1,.23-.1"/><path class="d" d="M129.84,44.55c-.02,.08-.1,.3-.22,.67-.42,1.18-.62,1.9-.62,2.16,0,.17,.07,.26,.19,.26,.21,0,.52-.24,.93-.72,.05-.06,.1-.09,.14-.09,.05,0,.08,.02,.08,.06,0,.07-.17,.28-.52,.61-.35,.33-.71,.5-1.08,.5-.13,0-.23-.04-.29-.11s-.1-.15-.1-.24c0-.19,.06-.45,.18-.78,0-.02,.26-.79,.77-2.29h-.68s-.06-.01-.06-.05c0-.08,0-.13,.03-.14,.02-.01,.09-.02,.23-.03,.14-.01,.32-.02,.56-.02,.07-.23,.16-.5,.26-.8l.16-.48s.03-.03,.05-.03c.1,0,.2,.01,.3,.04,.1,.03,.14,.06,.14,.09v.03l-.4,1.18h.52c.17,.02,.26,.02,.27,.03,0,0,.01,.02,.01,.03,0,.13-.02,.19-.06,.19l-.31-.02-.47-.02Z"/><path class="d" d="M140.88,42.27c.68,0,1.21,.21,1.59,.64,.38,.42,.58,.97,.58,1.63,0,.85-.32,1.64-.95,2.37-.64,.72-1.36,1.09-2.17,1.09-.67,0-1.2-.24-1.59-.72-.39-.48-.59-1.04-.59-1.68,0-.51,.14-1.03,.41-1.54,.27-.51,.65-.93,1.12-1.27,.47-.34,1.01-.51,1.61-.51m.19,.2c-.35,0-.71,.14-1.08,.43-.37,.28-.7,.75-.96,1.38-.27,.64-.4,1.28-.4,1.94,0,.44,.1,.81,.29,1.11,.19,.3,.48,.46,.85,.46,.4,0,.78-.16,1.14-.49,.35-.33,.66-.82,.91-1.49,.25-.66,.38-1.27,.38-1.81,0-.36-.09-.71-.27-1.04-.18-.33-.46-.49-.85-.49"/><path class="d" d="M145.92,47.96c.4-1.08,.66-1.84,.8-2.3s.2-.73,.2-.83c0-.05,0-.08-.03-.11-.02-.02-.04-.03-.08-.03-.13,0-.38,.26-.75,.78-.07,.1-.12,.15-.16,.15-.06,0-.08-.02-.08-.06,0-.07,.15-.29,.45-.66,.3-.37,.57-.56,.79-.56,.12,0,.22,.03,.28,.1,.06,.07,.09,.17,.09,.3,0,.21-.1,.6-.3,1.18,.04-.06,.13-.2,.25-.42,.48-.83,.92-1.24,1.31-1.24,.18,0,.31,.06,.39,.18,.08,.12,.12,.25,.12,.41,0,.16-.07,.52-.21,1.07,.36-.68,.67-1.13,.91-1.34,.24-.21,.47-.31,.68-.31,.15,0,.28,.05,.37,.14,.1,.09,.14,.21,.14,.36,0,.28-.21,1.03-.64,2.23-.12,.32-.18,.52-.18,.58,0,.04,.01,.07,.03,.09,.02,.02,.04,.03,.08,.03,.07,0,.22-.09,.45-.28,.23-.18,.39-.35,.51-.51,.06-.08,.11-.12,.16-.12s.07,.02,.07,.05c0,.11-.19,.33-.56,.66-.37,.33-.69,.5-.94,.5-.09,0-.17-.03-.23-.1-.06-.07-.09-.15-.09-.26,0-.15,.06-.39,.19-.74,.41-1.13,.62-1.85,.62-2.16,0-.08-.01-.14-.04-.18-.03-.04-.07-.06-.12-.06-.26,0-.58,.33-.97,.99-.39,.66-.76,1.48-1.11,2.46-.1,.01-.2,.02-.31,.02-.07,0-.14,0-.2-.02,.58-1.59,.87-2.56,.87-2.91,0-.16-.02-.29-.05-.37-.04-.08-.09-.12-.17-.12-.2,0-.5,.32-.89,.97-.39,.65-.76,1.46-1.12,2.43-.07,.01-.13,.02-.16,.02-.02,0-.05,0-.1,0-.1,0-.19-.01-.27-.01"/><path class="d" d="M155.67,45.78c.3-.5,.58-.87,.84-1.12s.51-.37,.73-.37c.13,0,.23,.05,.3,.14,.07,.09,.11,.21,.11,.34,0,.16-.02,.33-.07,.5-.05,.17-.16,.51-.35,1.03-.25,.7-.38,1.1-.38,1.23,0,.09,.04,.14,.12,.14,.07,0,.19-.06,.34-.19,.15-.12,.27-.25,.34-.37,.07-.13,.13-.19,.18-.19s.07,.03,.07,.08c0,.12-.14,.31-.43,.59-.29,.28-.57,.42-.83,.42s-.39-.11-.39-.33,.21-.88,.62-1.96c.16-.42,.24-.73,.24-.94,0-.07-.01-.11-.04-.15-.02-.03-.06-.05-.11-.05-.08,0-.24,.11-.48,.32-.23,.22-.5,.6-.79,1.15-.3,.55-.54,1.05-.73,1.51-.12,.28-.19,.43-.23,.43-.27,0-.41-.04-.41-.11v-.04l.73-2.07c.19-.5,.28-.85,.28-1.05,0-.09-.04-.13-.12-.13-.07,0-.18,.07-.34,.21-.16,.14-.28,.27-.38,.4-.07,.09-.13,.14-.18,.14-.04,0-.06-.02-.06-.07,0-.09,.15-.28,.46-.58,.3-.29,.6-.44,.88-.44,.09,0,.16,.03,.21,.1,.05,.06,.07,.13,.07,.2,0,.11-.07,.52-.22,1.2"/><path class="d" d="M161.37,47.64s.01,.08,.03,.11c.02,.03,.05,.04,.09,.04,.09,0,.21-.05,.36-.15,.15-.1,.3-.22,.45-.37,.06-.07,.11-.1,.15-.1,.05,0,.08,.02,.08,.07,0,.1-.14,.25-.43,.45-.29,.2-.55,.31-.79,.31-.15,0-.27-.03-.35-.09-.08-.06-.12-.14-.12-.22,0-.13,.16-.57,.47-1.33,.4-.96,.6-1.5,.6-1.63,0-.05,0-.09-.03-.11-.02-.02-.05-.04-.09-.04-.12,0-.32,.13-.58,.39-.1,.1-.18,.15-.22,.15s-.06-.02-.06-.07c0-.07,.15-.22,.44-.45,.3-.23,.56-.34,.79-.34,.1,0,.18,.04,.25,.11,.07,.07,.1,.15,.1,.23,0,.1-.02,.2-.05,.3s-.25,.6-.63,1.52c-.3,.77-.45,1.18-.45,1.22m1.37-5.42c.09,0,.17,.03,.23,.1,.07,.07,.1,.14,.1,.23s-.03,.17-.1,.24c-.06,.07-.14,.1-.23,.1s-.17-.03-.24-.1c-.07-.07-.1-.14-.1-.24s.03-.17,.1-.24c.07-.06,.14-.1,.23-.1"/><path class="d" d="M168.88,44.36c-.08,.17-.24,.64-.48,1.4l-.37,1.18c-.08,.21-.12,.4-.12,.55,0,.1,.05,.14,.14,.14,.06,0,.16-.04,.29-.14,.12-.09,.25-.21,.36-.35,.08-.09,.14-.14,.17-.14,.05,0,.07,.02,.07,.07,0,.08-.15,.24-.46,.51-.31,.26-.58,.39-.82,.39-.16,0-.25-.11-.25-.33,0-.15,.01-.35,.03-.59-.43,.59-.89,.89-1.37,.89-.21,0-.36-.08-.46-.23-.1-.15-.15-.32-.15-.51,0-.54,.27-1.17,.81-1.87,.54-.71,1.05-1.06,1.54-1.06,.13,0,.23,.04,.3,.13,.07,.09,.12,.22,.14,.4,.05-.13,.13-.3,.24-.51,.09,.01,.18,.03,.26,.04,.06,.01,.1,.02,.12,.02m-1.3,.14c-.16,0-.36,.12-.6,.35-.24,.24-.45,.58-.63,1.04-.18,.46-.27,.84-.27,1.14,0,.18,.03,.32,.1,.41,.06,.09,.16,.14,.29,.14,.33,0,.66-.3,.99-.9,.33-.6,.5-1.14,.5-1.62,0-.16-.03-.29-.1-.4-.07-.11-.16-.16-.27-.16"/><rect class="d" x="96.38" y="26.79" width=".81" height="6.81"/><path class="d" d="M28.05,52.48s-.6-2-.44-3c.01-3.8,.63-9.44,4.3-12.89,3.45-3.2,5.35-6.68,5.34-9.24,0-.21-.01-.42-.04-.62-.17-1.29-.81-2.24-1.96-2.88-.36-.2-.71-.38-1.05-.56h-.03c-1.54-.82-2.98-1.56-3.99-3.16-1.44-1.67-1.6-7.88-1.6-7.88-.41-5.28,.41-12.24,.41-12.24,0,0,.97,5.67,7.37,10,4.49,2.63,7.29,6.61,7.59,10.96,.02,.26,.03,.52,.03,.78,0,5.17-3.42,10.43-9.69,15.36-.05,.04-.12,.1-.2,.18,.94-.71,3.77-2.57,3.77-2.57,2.19-1.4,3.95-3.33,5.11-5.46,2.62-6.29,2.97-11.77,2.97-11.77,0,0,1.87,6.39,1.67,12.14,0,2.58-.22,5.18-.84,7.44-.62,2.25-1.64,4.2-3.33,5.4-.54,.49-4.58,4.1-10.02,4.46-1.27,.08-2.22,.73-2.98,1.61-.85,.61-2.37,3.96-2.37,3.96"/><path class="d" d="M26.43,51.19c-1.62-.35-20.55-4.82-25.72-26.76,0,0,5.6-12.98,23.87-18.69,.15-.28,.28-.55,.4-.83C5.85,10.75,0,24.31,0,24.31c5.57,23.64,26.66,27.62,26.66,27.62-.06-.23-.14-.48-.23-.74Z"/><path class="d" d="M12.64,41.89s.07,.07,.13,.12c.12,.1,.29,.25,.52,.43,.45,.36,1.11,.83,1.93,1.32,1.64,.97,3.9,1.97,6.43,2.13,1.78,.11,3.08,1.16,3.94,2.35,.21,.29,.4,.58,.56,.88-.03-3.52-.75-8.57-3.81-11.42,.48,.65,.89,1.36,1.1,2.12l-1.03,.55s-.02-.02-.07-.07c-.05-.05-.12-.13-.23-.24-.21-.21-.54-.52-.99-.92-.91-.79-2.34-1.9-4.39-3.17-2.65-1.65-4.61-3.84-5.89-6.72-.73-1.64-1.25-3.5-1.57-5.62-.24,2-.42,4.27-.42,6.52,0,2.47,.22,4.92,.79,6.98,.57,2.07,1.5,3.71,2.86,4.67l.08,.07s.02,.02,.03,.03"/><path class="d" d="M19.25,12.06c-4.13,2.43-6.58,6.01-6.84,9.79-.02,.25-.03,.51-.03,.76,0,3.73,1.85,7.48,6,11.27,.28,.26,.97,.79,1.76,1.48-2.09-2.52-3.29-5.09-3.3-7.38,0-.25,.02-.49,.04-.73,.18-1.54,1.06-2.82,2.43-3.56,.37-.2,.72-.39,1.07-.57,1.54-.8,2.67-1.41,3.47-2.68,.81-1.27,1.34-3.33,1.39-7.11,.04-2.89,.05-5.45,.05-7.58v-.09c-1.07,2.2-2.92,4.57-6.04,6.4"/><path class="d" d="M26.66,51.93c-.5-1.84-1.94-5.25-5.05-5.45-5.33-.33-9.39-4.16-9.43-4.2-5.87-4.14-3.63-18.93-2.69-23.87,.14,8.7,2.45,13.84,7.58,17.04,4.15,2.58,5.81,4.53,5.81,4.53-.71-2.53-4.07-4.89-4.9-5.65-4.51-4.12-6.45-8.3-6.16-12.52,.27-4.02,2.87-7.77,7.13-10.27,4.67-2.74,6.34-6.68,6.92-9.4,.02,2.54,.03,6.41-.04,11.2-.1,7.65-2.13,8.71-5.18,10.31-.34,.18-.69,.36-1.06,.56-1.22,.67-1.95,1.74-2.12,3.11-.35,2.81,1.62,6.51,5.27,9.92,4.34,4.05,4.15,11.83,3.92,14.69"/><path class="d" d="M28.28,51.12c-.18-3.56,.07-10.35,4.05-14.07,3.81-3.55,5.86-7.44,5.49-10.4-.18-1.47-.97-2.63-2.28-3.35-.37-.2-.72-.39-1.07-.57h-.03c-3.1-1.64-5.15-2.71-5.26-10.5-.06-4.22-.06-7.71-.05-10.19,.85,2.73,2.74,6.06,6.88,8.49,4.35,2.55,7,6.36,7.28,10.46,.35,5.09-2.92,10.49-9.43,15.61-.5,.4-1.88,2.15-2.13,2.67-.25,.51-.15,1.14-.15,1.14,0,0,.1-.33,.56-.72,.46-.39,1.79-1.84,6.01-4.46,5.05-3.14,7.44-7.98,7.86-16.01,.99,5.96,2.41,18.93-2.99,22.74h-.01v.02c-.45,.41-4.44,3.98-9.66,4.3-2.96,.18-4.45,3.09-5.08,4.84"/></g></g></g></svg>