<svg width="95" height="95" viewBox="0 0 95 95" fill="none" xmlns="http://www.w3.org/2000/svg">
<path d="M55.0675 92.9657C55.0675 92.9657 54.0393 89.5365 54.3135 87.8219C54.3306 81.3063 55.393 71.6359 61.6821 65.7205C67.5941 60.2338 70.8501 54.2669 70.8329 49.8775C70.8329 49.5174 70.8158 49.1574 70.7644 48.8144C70.4731 46.6026 69.3763 44.9737 67.4056 43.8764C66.7887 43.5334 66.189 43.2248 65.6063 42.9162H65.5549C62.9159 41.5102 60.4483 40.2414 58.7175 37.498C56.2499 34.6346 55.9757 23.9869 55.9757 23.9869C55.2731 14.9337 56.6783 3 56.6783 3C56.6783 3 58.3405 12.7219 69.3078 20.1461C77.002 24.6556 81.8002 31.4797 82.3143 38.9383C82.3486 39.3841 82.3657 39.8299 82.3657 40.2757C82.3657 49.1402 76.5051 58.1591 65.7606 66.6121C65.6749 66.6807 65.5549 66.7836 65.4178 66.9207C67.0286 65.7034 71.8782 62.5142 71.8782 62.5142C75.6311 60.1137 78.6471 56.8045 80.6349 53.1524C85.1247 42.3675 85.7244 32.9714 85.7244 32.9714C85.7244 32.9714 88.9289 43.9278 88.5862 53.7868C88.5862 58.2105 88.2092 62.6685 87.1468 66.5435C86.0843 70.4014 84.3364 73.7449 81.4403 75.8024C80.515 76.6426 73.5919 82.8323 64.2697 83.4496C62.0934 83.5868 60.4654 84.7013 59.1631 86.2101C57.7065 87.2561 55.1017 93 55.1017 93" fill="white"/>
<path d="M52.2915 90.7539C49.5154 90.1538 17.0762 82.4895 8.21668 44.8709C8.21668 44.8709 17.8131 22.6152 49.1212 12.8248C49.3783 12.3447 49.601 11.8818 49.8067 11.4017C17.0248 21.415 7 44.6652 7 44.6652C16.545 85.1986 52.6856 92.0228 52.6856 92.0228C52.5828 91.6284 52.4457 91.1997 52.2915 90.7539Z" fill="white"/>
<path d="M28.6604 74.808C28.6604 74.808 28.7804 74.928 28.8832 75.0137C29.0888 75.1852 29.3801 75.4424 29.7743 75.751C30.5454 76.3683 31.6764 77.1741 33.0816 78.0143C35.8919 79.6775 39.7648 81.3921 44.1003 81.6664C47.1505 81.855 49.3783 83.6554 50.852 85.6958C51.2119 86.193 51.5375 86.6902 51.8116 87.2046C51.7602 81.1692 50.5264 72.5104 45.2827 67.6237C46.1052 68.7382 46.8078 69.9556 47.1677 71.2587L45.4026 72.2018C45.4026 72.2018 45.3684 72.1675 45.2827 72.0817C45.197 71.996 45.077 71.8588 44.8885 71.6702C44.5287 71.3102 43.9632 70.7786 43.192 70.0928C41.6326 68.7382 39.1821 66.835 35.6692 64.6575C31.128 61.8284 27.7693 58.0734 25.5758 53.1353C24.3249 50.3233 23.4338 47.1341 22.8854 43.4991C22.4742 46.9284 22.1657 50.8205 22.1657 54.6784C22.1657 58.9135 22.5427 63.1143 23.5195 66.6464C24.4963 70.1957 26.0899 73.0076 28.4205 74.6537L28.5576 74.7737C28.5576 74.7737 28.5919 74.808 28.609 74.8251" fill="white"/>
<path d="M39.9876 23.661C32.9103 27.8275 28.7119 33.9659 28.2663 40.4471C28.232 40.8757 28.2149 41.3215 28.2149 41.7502C28.2149 48.1457 31.3851 54.5755 38.4967 61.0739C38.9765 61.5197 40.159 62.4284 41.5127 63.6115C37.9312 59.2907 35.8749 54.8841 35.8577 50.9577C35.8577 50.529 35.892 50.1175 35.9263 49.706C36.2347 47.0655 37.7427 44.8708 40.0904 43.602C40.7245 43.2591 41.3242 42.9333 41.924 42.6246C44.563 41.253 46.4994 40.207 47.8703 38.0295C49.2584 35.8519 50.1666 32.3198 50.2523 25.8386C50.3208 20.8834 50.338 16.494 50.338 12.8418V12.6875C48.5044 16.4597 45.3341 20.5233 39.9876 23.661Z" fill="white"/>
<path d="M52.6857 92.0227C51.8288 88.8678 49.3612 83.021 44.0318 82.678C34.8981 82.1122 27.9407 75.5453 27.8722 75.4767C17.8131 68.3782 21.6517 43.0191 23.2625 34.5489C23.5024 49.466 27.4609 58.2791 36.2519 63.7659C43.3635 68.1896 46.2081 71.5331 46.2081 71.5331C44.9914 67.1951 39.2336 63.1486 37.8113 61.8455C30.0828 54.7813 26.7583 47.6142 27.2553 40.3786C27.718 33.4858 32.1734 27.056 39.4735 22.7695C47.4762 18.0715 50.338 11.3159 51.3319 6.65214C51.3662 11.0073 51.3833 17.6428 51.2633 25.8558C51.092 38.9726 47.6133 40.7901 42.3867 43.5334C41.8041 43.8421 41.2043 44.1507 40.5702 44.4936C38.4796 45.6424 37.2286 47.4771 36.9373 49.8261C36.3375 54.6441 39.7134 60.9882 45.9682 66.835C53.4054 73.7792 53.0798 87.1189 52.6857 92.0227Z" fill="white"/>
<path d="M55.4617 90.6339C55.1533 84.5299 55.5817 72.8876 62.402 66.5093C68.9309 60.4224 72.4439 53.7526 71.8098 48.6773C71.5014 46.1568 70.1476 44.1679 67.9027 42.9334C67.2687 42.5904 66.6689 42.2647 66.0692 41.956H66.0177C60.7055 39.1441 57.1925 37.3094 57.004 23.9526C56.9012 16.717 56.9012 10.733 56.9183 6.48072C58.3749 11.1616 61.6137 16.8713 68.7082 21.0378C76.1625 25.41 80.7036 31.9427 81.1834 38.9726C81.7832 47.7 76.1796 56.9589 65.0238 65.7377C64.167 66.4236 61.8022 69.4241 61.3738 70.3157C60.9454 71.1902 61.1167 72.2704 61.1167 72.2704C61.1167 72.2704 61.2881 71.7046 62.0764 71.0359C62.8646 70.3672 65.1438 67.881 72.3753 63.3887C81.0292 58.0048 85.1248 49.7061 85.8445 35.9378C87.541 46.1568 89.9744 68.3954 80.7208 74.928H80.7036V74.9623C79.9325 75.6653 73.0951 81.7865 64.1499 82.3352C59.0775 82.6438 56.5242 87.6333 55.4446 90.6339" fill="white"/>
</svg>
