<svg xmlns="http://www.w3.org/2000/svg" viewBox="0 0 215.97 125.76"><defs><style>.cls-1{fill:#04304a;}.cls-2{fill:#010102;}.cls-3{fill:#1b243d;}.cls-4{fill:#f99d28;fill-rule:evenodd;}.cls-5{fill:#009fe2;}</style></defs><g id="Layer_2" data-name="Layer 2"><g id="Layer_1-2" data-name="Layer 1"><path class="cls-1" d="M37.87,94.65c.16,4.29,3.61,5.64,7.28,5.64,2.78,0,6.55-.68,6.55-4.34s-4.4-4.34-8.85-5.41S34,87.89,34,82.31C34,76.45,39.39,74,44.11,74c6,0,10.74,2,11.1,9.13H50.76c-.31-3.72-3.35-4.9-6.29-4.9-2.67,0-5.76.79-5.76,3.72,0,3.43,4.71,4,8.85,5.07,4.46,1.07,8.86,2.65,8.86,8.28,0,6.93-6,9.19-11.53,9.19-6.08,0-11.21-2.65-11.48-9.87Z"/><path class="cls-1" d="M75.5,93.7c0,2.64-2.42,6.59-8.29,6.59C64.49,100.29,62,99.16,62,96c0-3.55,2.52-4.68,5.45-5.24s6.35-.62,8.08-2ZM82.72,100a3.64,3.64,0,0,1-1.36.28C80,100.29,80,99.28,80,97V82c0-6.82-5.29-8-10.17-8-6,0-11.21,2.54-11.47,9.75h4.45c.21-4.28,3-5.52,6.76-5.52,2.83,0,6,.67,6,4.84,0,3.61-4.19,3.27-9.12,4.29-4.61,1-9.17,2.36-9.17,9,0,5.81,4,8.18,9,8.18A11.68,11.68,0,0,0,75.76,100c0,3.15,1.46,4.51,3.77,4.51a5.7,5.7,0,0,0,3.19-.79Z"/><path class="cls-1" d="M86.86,94.65c.16,4.29,3.62,5.64,7.28,5.64,2.78,0,6.55-.68,6.55-4.34s-4.4-4.34-8.85-5.41S83,87.89,83,82.31C83,76.45,88.38,74,93.1,74c6,0,10.74,2,11.11,9.13H99.75c-.31-3.72-3.35-4.9-6.29-4.9-2.67,0-5.76.79-5.76,3.72,0,3.43,4.72,4,8.85,5.07,4.46,1.07,8.86,2.65,8.86,8.28,0,6.93-6,9.19-11.53,9.19-6.08,0-11.21-2.65-11.47-9.87Z"/><path class="cls-1" d="M19.09,82.67l-.74-.89a2.73,2.73,0,0,0-3.94-.2,2.78,2.78,0,0,0-.59,4,4,4,0,0,1,.34.41"/><path class="cls-1" d="M14.14,85.93l5.53,6.65c3.95,4.79,2.18,10.71-3.18,14.07-4.72,3-13.4,1.91-16.38-3,2.31,6.84,10.08,11.31,18.67,9.16,7.45-1.86,15.77-11.44,6.67-22.48L18.69,82.2"/><path class="cls-1" d="M14.87,96.19l-5.1-6.13C5.82,85.26,7.59,79.35,13,76c4.72-3,13.39-1.91,16.38,3C27,72.1,19.25,67.64,10.66,69.79,3.21,71.65-5.12,81.22,4,92.27l6.45,7.79"/><path class="cls-1" d="M9.41,98.86,11,100.72a2.73,2.73,0,0,0,3.94.2,2.78,2.78,0,0,0,.59-4s-.61-.73-1.48-1.78"/><path class="cls-2" d="M103.58,103.76a1.4,1.4,0,1,1,1.4,1.44,1.39,1.39,0,0,1-1.4-1.44m1.4,1.73a1.73,1.73,0,1,0-1.75-1.73,1.72,1.72,0,0,0,1.75,1.73m-.37-1.59H105l.52.86h.34l-.56-.87a.52.52,0,0,0,.51-.55c0-.39-.23-.56-.7-.56h-.75v2h.29Zm0-.25V103H105c.21,0,.44,0,.44.29s-.23.33-.48.33Z"/><path class="cls-2" d="M30.44,103.76a1.4,1.4,0,1,1,1.4,1.44,1.39,1.39,0,0,1-1.4-1.44m1.4,1.73a1.73,1.73,0,1,0-1.75-1.73,1.73,1.73,0,0,0,1.75,1.73m-.37-1.59h.35l.52.86h.34l-.56-.87a.52.52,0,0,0,.51-.55c0-.39-.23-.56-.7-.56h-.76v2h.3Zm0-.25V103h.41c.21,0,.43,0,.43.29s-.22.33-.48.33Z"/><path class="cls-3" d="M36.11,17.18a7.41,7.41,0,0,0,.3,2.35,12.66,12.66,0,0,0,.86,1.89,1.21,1.21,0,0,1,.18.6,1,1,0,0,1-.51.78l-1.66,1.11a1.32,1.32,0,0,1-.69.23,1.12,1.12,0,0,1-.78-.37,6.11,6.11,0,0,1-.94-1.22c-.26-.45-.53-1-.81-1.55a9.73,9.73,0,0,1-7.74,3.64,7.23,7.23,0,0,1-5.25-1.88,6.78,6.78,0,0,1-1.93-5.07,6.79,6.79,0,0,1,2.39-5.41A9.58,9.58,0,0,1,26,10.22a19.54,19.54,0,0,1,2.79.21c1,.14,2,.33,3,.58V9.08c0-2-.42-3.41-1.25-4.22s-2.26-1.22-4.28-1.22A12.11,12.11,0,0,0,23.43,4a20.82,20.82,0,0,0-2.84.89,7.35,7.35,0,0,1-.92.35,1.64,1.64,0,0,1-.41.07c-.37,0-.56-.28-.56-.83V3.18a1.64,1.64,0,0,1,.19-.92,2,2,0,0,1,.74-.56A17.73,17.73,0,0,1,22.94.51,16,16,0,0,1,27,0c3.13,0,5.43.71,6.89,2.15s2.18,3.58,2.18,6.47v8.56m-10.68,4a8.58,8.58,0,0,0,2.72-.48A5.77,5.77,0,0,0,30.63,19a4.16,4.16,0,0,0,.9-1.68,8.78,8.78,0,0,0,.26-2.28V14a24.46,24.46,0,0,0-2.43-.44,18.92,18.92,0,0,0-2.46-.16A6,6,0,0,0,23,14.42a3.7,3.7,0,0,0-1.29,3,3.67,3.67,0,0,0,1,2.78,3.77,3.77,0,0,0,2.76,1m21.14,2.86a1.61,1.61,0,0,1-1-.26,2.06,2.06,0,0,1-.56-1L38.83,2.4a5.07,5.07,0,0,1-.23-1.06.58.58,0,0,1,.65-.65h2.57a1.68,1.68,0,0,1,1,.25,2.25,2.25,0,0,1,.53,1l4.42,17.41L51.91,2a1.93,1.93,0,0,1,.51-1A1.79,1.79,0,0,1,53.48.69H55.6a1.81,1.81,0,0,1,1.06.25,1.93,1.93,0,0,1,.5,1l4.15,17.64L65.87,2a2.25,2.25,0,0,1,.53-1,1.67,1.67,0,0,1,1-.25h2.44a.57.57,0,0,1,.65.65,1.58,1.58,0,0,1,0,.41,6.4,6.4,0,0,1-.18.65L63.94,22.76a2.06,2.06,0,0,1-.56,1,1.61,1.61,0,0,1-1,.26H60.11a1.66,1.66,0,0,1-1.06-.28,2,2,0,0,1-.5-1.06l-4.1-17-4.06,17a2,2,0,0,1-.5,1.06,1.68,1.68,0,0,1-1.06.28Zm33.81.69a18.31,18.31,0,0,1-4.06-.46,11.31,11.31,0,0,1-3-1.07,1.51,1.51,0,0,1-1-1.47V20.41c0-.56.19-.83.6-.83a1.45,1.45,0,0,1,.48.09c.17.06.39.15.67.28a14.06,14.06,0,0,0,2.9.92,15.83,15.83,0,0,0,3.13.32A7.06,7.06,0,0,0,84,20.31a2.79,2.79,0,0,0,1.35-2.48A2.51,2.51,0,0,0,84.59,16a6.83,6.83,0,0,0-2.65-1.39l-3.82-1.19a8.24,8.24,0,0,1-4.22-2.68,6.25,6.25,0,0,1-1.31-3.82A5.77,5.77,0,0,1,73.31,4,6.88,6.88,0,0,1,75.2,1.82,8.28,8.28,0,0,1,77.94.46,11.87,11.87,0,0,1,81.25,0,15.32,15.32,0,0,1,83,.11a16.61,16.61,0,0,1,1.7.31c.54.12,1,.26,1.5.41a6.4,6.4,0,0,1,1.1.46,2.75,2.75,0,0,1,.79.64,1.53,1.53,0,0,1,.23.88V4.06c0,.55-.2.82-.6.82a2.87,2.87,0,0,1-1-.32,12.29,12.29,0,0,0-5.06-1,6.9,6.9,0,0,0-3.5.74,2.5,2.5,0,0,0-1.24,2.34,2.48,2.48,0,0,0,.78,1.87A7.67,7.67,0,0,0,80.61,10l3.73,1.2a8.1,8.1,0,0,1,4.08,2.53,6,6,0,0,1,1.22,3.68A6.7,6.7,0,0,1,89,20.43,7.06,7.06,0,0,1,87,22.76a8.72,8.72,0,0,1-2.92,1.47,13,13,0,0,1-3.73.51"/><path class="cls-4" d="M85.36,37.54c-8.67,6.39-21.23,9.79-32,9.79A58,58,0,0,1,14.16,32.4c-.81-.73-.09-1.74.89-1.17a78.77,78.77,0,0,0,39.17,10.4A78,78,0,0,0,84.1,35.51c1.46-.62,2.69,1,1.26,2"/><path class="cls-4" d="M89,33.42c-1.11-1.42-7.33-.67-10.12-.34-.84.1-1-.64-.21-1.17,5-3.49,13.09-2.48,14-1.31s-.25,9.32-4.89,13.21c-.73.6-1.4.28-1.09-.51,1-2.61,3.39-8.46,2.28-9.88"/><path class="cls-3" d="M110.29,23.36a3.79,3.79,0,0,1-2.76-1,3.55,3.55,0,0,1-1-2.67,3.59,3.59,0,0,1,1.27-2.91,5.19,5.19,0,0,1,3.43-1,12.44,12.44,0,0,1,3.62.58V14.19a2.89,2.89,0,0,0-.74-2.21,3.55,3.55,0,0,0-2.42-.67,12.11,12.11,0,0,0-3.69.63,1.29,1.29,0,0,1-.38.08c-.17,0-.25-.11-.25-.33v-.4a.58.58,0,0,1,.07-.32.63.63,0,0,1,.25-.19,11.5,11.5,0,0,1,4.22-.78,4.94,4.94,0,0,1,3.3.93,3.56,3.56,0,0,1,1.08,2.84v8.94a.34.34,0,0,1-.38.38h-.53a.37.37,0,0,1-.41-.38l-.1-1.09a7.2,7.2,0,0,1-4.55,1.74m.2-1.31a6.32,6.32,0,0,0,2.08-.39,11.09,11.09,0,0,0,2.25-1.1V17.4a12.82,12.82,0,0,0-3.29-.45Q108,17,108,19.68a2.32,2.32,0,0,0,.63,1.76,2.58,2.58,0,0,0,1.87.61"/><path class="cls-3" d="M125.46,23.36A5.68,5.68,0,0,1,121,21.68a7.18,7.18,0,0,1-1.51-4.93A7.1,7.1,0,0,1,121,11.81a5.72,5.72,0,0,1,4.47-1.71,7.46,7.46,0,0,1,2.66.48c.2.07.3.24.3.53v.35q0,.33-.3.33a.75.75,0,0,1-.2,0l-.36-.08a8.22,8.22,0,0,0-2-.25,4.4,4.4,0,0,0-3.47,1.22A5.88,5.88,0,0,0,121,16.59v.31a5.75,5.75,0,0,0,1.09,3.87A4.26,4.26,0,0,0,125.53,22a8.32,8.32,0,0,0,2.19-.33l.4-.1.19,0q.3,0,.3.33v.35a.52.52,0,0,1-.27.53,7.41,7.41,0,0,1-2.88.58"/><path class="cls-3" d="M134.52,23.36a3.79,3.79,0,0,1-2.76-1,3.55,3.55,0,0,1-1-2.67A3.62,3.62,0,0,1,132,16.79a5.19,5.19,0,0,1,3.43-1,12.38,12.38,0,0,1,3.61.58V14.19a2.88,2.88,0,0,0-.73-2.21,3.55,3.55,0,0,0-2.42-.67,12.11,12.11,0,0,0-3.69.63,1.29,1.29,0,0,1-.38.08c-.17,0-.26-.11-.26-.33v-.4a.51.51,0,0,1,.09-.32.52.52,0,0,1,.25-.19,11.46,11.46,0,0,1,4.22-.78,4.91,4.91,0,0,1,3.29.93,3.56,3.56,0,0,1,1.08,2.84v8.94a.34.34,0,0,1-.38.38h-.53a.37.37,0,0,1-.41-.38l-.1-1.09a7.18,7.18,0,0,1-4.55,1.74m.21-1.31a6.27,6.27,0,0,0,2.07-.39,10.78,10.78,0,0,0,2.24-1.1V17.4a12.69,12.69,0,0,0-3.28-.45c-2.36,0-3.53.91-3.53,2.73a2.29,2.29,0,0,0,.63,1.76,2.57,2.57,0,0,0,1.87.61"/><path class="cls-3" d="M149.13,23.36a4.87,4.87,0,0,1-4-1.75,7.39,7.39,0,0,1-1.45-4.82,7.69,7.69,0,0,1,1.47-5,4.85,4.85,0,0,1,4-1.83,6.2,6.2,0,0,1,4.24,1.67V4.77a.34.34,0,0,1,.38-.38h.68a.33.33,0,0,1,.38.38V22.71a.33.33,0,0,1-.38.38H154a.38.38,0,0,1-.42-.38l-.11-1a7.4,7.4,0,0,1-2.08,1.24,6.1,6.1,0,0,1-2.21.45m.33-1.31a6.52,6.52,0,0,0,4-1.62V13a7.6,7.6,0,0,0-2-1.25,5.32,5.32,0,0,0-2.06-.4,3.64,3.64,0,0,0-3.07,1.37,6.56,6.56,0,0,0-1,4q0,5.33,4.25,5.33"/><path class="cls-3" d="M164.19,23.47a5.74,5.74,0,0,1-4.53-1.71,7.41,7.41,0,0,1-1.51-5.06,7.31,7.31,0,0,1,1.53-4.95A5.36,5.36,0,0,1,164,10a4.59,4.59,0,0,1,3.52,1.31,5.33,5.33,0,0,1,1.23,3.77,8.06,8.06,0,0,1-.1,1.51.41.41,0,0,1-.43.39h-8.56a5.76,5.76,0,0,0,1.16,3.91,4.48,4.48,0,0,0,3.51,1.26,9.56,9.56,0,0,0,3.46-.63,1.34,1.34,0,0,1,.45-.12.22.22,0,0,1,.18.08.35.35,0,0,1,.08.22v.38a.53.53,0,0,1-.28.53,9.25,9.25,0,0,1-4,.86m3.11-7.66c0-.24,0-.51,0-.84a3.87,3.87,0,0,0-.88-2.75,3.45,3.45,0,0,0-2.61-.93c-2.66,0-4.06,1.5-4.21,4.52Z"/><path class="cls-3" d="M172.27,23.09a.34.34,0,0,1-.38-.38v-12a.33.33,0,0,1,.38-.38h.51a.38.38,0,0,1,.43.38l.1,1a9.38,9.38,0,0,1,2.39-1.32,7.17,7.17,0,0,1,2.43-.45,3.12,3.12,0,0,1,3.19,1.94,9.65,9.65,0,0,1,2.52-1.44,7.67,7.67,0,0,1,2.66-.5,3.44,3.44,0,0,1,2.65,1,4.06,4.06,0,0,1,.91,2.86v8.87a.34.34,0,0,1-.38.38H189a.34.34,0,0,1-.38-.38V14.45a4,4,0,0,0-.58-2.39,2.18,2.18,0,0,0-1.84-.75,7.65,7.65,0,0,0-4.58,1.59,9.77,9.77,0,0,1,.08,1.19v8.62a.34.34,0,0,1-.38.38h-.68a.33.33,0,0,1-.38-.38V14.45a4,4,0,0,0-.58-2.39,2.21,2.21,0,0,0-1.85-.75,7.6,7.6,0,0,0-4.5,1.54v9.86a.33.33,0,0,1-.37.38h-.69"/><path class="cls-3" d="M194.15,28.59a3.75,3.75,0,0,1-1.16-.17.48.48,0,0,1-.38-.51v-.35c0-.22.1-.33.31-.33a1.12,1.12,0,0,1,.27,0,2.68,2.68,0,0,0,.33,0l.54,0a2,2,0,0,0,1.32-.43,4.35,4.35,0,0,0,1-1.54l.86-2.13-5-12.22a1.13,1.13,0,0,1-.1-.33c0-.19.1-.28.3-.28h.81a.42.42,0,0,1,.43.33l4.22,10.86,4.27-10.86a.42.42,0,0,1,.43-.33h.76c.2,0,.3.09.3.28a1.61,1.61,0,0,1-.1.33l-6,14.78A5.47,5.47,0,0,1,196.15,28a3,3,0,0,1-2,.64"/><path class="cls-5" d="M216,113.37c-.24,0-.48,0-.71,0H124.75c-.13,0-.27,0-.4,0s-.37-.08-.35-.34,0-.24,0-.36V67.36c0-.67,0-.68.69-.68h67.52c.69,0,.69,0,.69.69v3.95c0,.65,0,.65-.63.65H130c-.69,0-.7,0-.7.68v34.7c0,.66,0,.66.67.66h80c.76,0,.69.09.69-.71V95.61c0-.59,0-.59.59-.59H216Z"/><path class="cls-5" d="M216,80.1l-4.67,0c-.69,0-.69,0-.69-.66,0-2.3,0-4.59,0-6.88,0-.43-.12-.57-.56-.56-2.33,0-4.67,0-7,0-.39,0-.55-.09-.54-.52,0-1.44,0-2.88,0-4.32,0-.31.07-.46.42-.46l13,0Z"/><path class="cls-5" d="M216,124.16c-.36,0-.78.19-1-.25-1,.51-1.75.44-2.31-.2a2.18,2.18,0,0,1-.11-2.51c.54-.75,1.21-.85,2.5-.34v-1.43c0-.61,0-.61.61-.63a2.09,2.09,0,0,0,.35,0Zm-1.92-2.83a1,1,0,0,0-1,1.06,1,1,0,1,0,2,0A1,1,0,0,0,214.05,121.33Z"/><path class="cls-5" d="M166.46,90c0-3.11,0-6.21,0-9.31,0-.43.12-.55.55-.54,2.87,0,5.73,0,8.59,0a10.31,10.31,0,0,1,6.25,2,8.89,8.89,0,0,1,3.45,6.22A10.74,10.74,0,0,1,184.23,95a9,9,0,0,1-6.78,4.66,13.79,13.79,0,0,1-2.23.19c-2.74,0-5.48,0-8.22,0-.44,0-.55-.13-.55-.56C166.47,96.2,166.46,93.08,166.46,90Zm5.36-4.92a1.66,1.66,0,0,0,0,.22q0,4.7,0,9.39c0,.32.14.38.41.38,1,0,2.07,0,3.1,0a4.43,4.43,0,0,0,4.35-3.14,6.59,6.59,0,0,0,0-3.63,4,4,0,0,0-2.61-2.93A13.62,13.62,0,0,0,171.82,85.05Z"/><path class="cls-5" d="M159.69,87.31l-.39-.54a4.9,4.9,0,0,0-8.83,2.84,5.36,5.36,0,0,0,1.44,4.2,5.11,5.11,0,0,0,7.57-.68l.32-.43L163,95c.24.17.47.36.73.51s.32.38.1.66a9.66,9.66,0,0,1-6.13,3.86c-3.71.66-7.11,0-9.91-2.68a9.33,9.33,0,0,1-2.73-5.63,10.65,10.65,0,0,1,1.44-7.38A9.4,9.4,0,0,1,153.09,80,10.8,10.8,0,0,1,162,82a8.38,8.38,0,0,1,2.34,2.76Z"/><path class="cls-5" d="M187.65,90c0-3.1,0-6.2,0-9.3,0-.45.11-.59.57-.58,1.39,0,2.79,0,4.18,0,.42,0,.53.11.53.52q0,6.85,0,13.71c0,.67,0,.67.66.67,2.77,0,5.54,0,8.32,0,.44,0,.59.1.58.57,0,1.29,0,2.58,0,3.87,0,.3-.08.41-.4.41-4.66,0-9.32,0-14,0-.43,0-.44-.22-.44-.53C187.65,96.22,187.65,93.11,187.65,90Z"/><path class="cls-5" d="M142.74,90c0,3.1,0,6.2,0,9.3,0,.46-.13.59-.58.58-1.41,0-2.82,0-4.23,0-.37,0-.49-.11-.49-.49q0-9.39,0-18.78c0-.38.12-.49.49-.48,1.42,0,2.85,0,4.27,0,.41,0,.54.1.53.52C142.73,83.76,142.74,86.87,142.74,90Z"/><path class="cls-5" d="M138.94,121.52c0-.71,0-1.41,0-2.12,0-.37.12-.46.46-.45.66,0,1.32,0,2,0a2.6,2.6,0,0,1,.14,5.17c-.73,0-1.47,0-2.2,0-.31,0-.38-.14-.38-.42C139,123,138.94,122.27,138.94,121.52Zm1,.07h0V122c0,1.47-.27,1.26,1.34,1.23a1.5,1.5,0,0,0,1.52-1.33,1.62,1.62,0,0,0-1.17-2,11.78,11.78,0,0,0-1.34-.07c-.24,0-.35.11-.35.35C139.93,120.66,139.92,121.13,139.92,121.59Z"/><path class="cls-5" d="M187.38,120.16a2.92,2.92,0,0,0-1.92-.36c-.32.09-.6.22-.63.59s.31.52.61.6.76.14,1.14.22c.84.2,1.28.65,1.31,1.33a1.54,1.54,0,0,1-1.15,1.57,3.43,3.43,0,0,1-3.12-.54L184,123c.68.14,1.28.27,1.89.38a.62.62,0,0,0,.43-.08c.2-.16.47-.37.5-.59s-.29-.44-.5-.51c-.43-.16-.9-.19-1.35-.31a1.31,1.31,0,0,1-1.18-1.31,1.5,1.5,0,0,1,1.15-1.57,3.63,3.63,0,0,1,2.86.39Z"/><path class="cls-5" d="M163.83,123.59l.39-.61,1.77.39a.81.81,0,0,0,.31,0c.37-.07.74-.19.76-.63s-.35-.52-.67-.6-.77-.14-1.14-.23c-.81-.2-1.2-.6-1.24-1.22A1.53,1.53,0,0,1,165.1,119a3.5,3.5,0,0,1,2.9.41l-.39.69a6.86,6.86,0,0,0-1.2-.34,2.67,2.67,0,0,0-1.08.18.62.62,0,0,0-.28.5.6.6,0,0,0,.33.41,5.44,5.44,0,0,0,.9.25,9.32,9.32,0,0,1,.91.23,1.23,1.23,0,0,1,.91,1.15,1.45,1.45,0,0,1-.79,1.45A3.41,3.41,0,0,1,163.83,123.59Z"/><path class="cls-5" d="M146.77,124.68a1.77,1.77,0,0,0,1.89.06.88.88,0,0,0,.3-1,1.49,1.49,0,0,1-1.55.34,2.1,2.1,0,0,1-.89-.64,2,2,0,0,1,.13-2.38c.57-.65,1.3-.7,2.29-.16.12-.45.48-.3.75-.26.1,0,.2.32.2.5,0,.85,0,1.71,0,2.56.07,1.75-1.13,2.24-2.53,2l-.3-.08C146.38,125.45,146.34,125.35,146.77,124.68Zm1.34-3.36a1,1,0,0,0-1,1,1,1,0,0,0,1,1,1,1,0,0,0,0-2Z"/><path class="cls-5" d="M203.12,123.89c-1.05.55-1.81.46-2.38-.24a2.15,2.15,0,0,1,0-2.55c.57-.69,1.34-.77,2.4-.22a3.44,3.44,0,0,0,0-.43c0-.42,0-.84,0-1.26s.16-.39.45-.39.44,0,.44.39c0,1.45,0,2.9,0,4.35,0,.21,0,.54-.15.58A.54.54,0,0,1,203.12,123.89Zm-1.87-1.54a1,1,0,1,0,2,0,1,1,0,1,0-2,0Z"/><path class="cls-5" d="M129.69,120.78a6.49,6.49,0,0,1,1.25-.26,1.18,1.18,0,0,1,1.2,1.16c0,.72,0,1.44,0,2.15,0,.34-.2.34-.44.35s-.44,0-.43-.37c0-.52,0-1,0-1.57s-.29-.9-.78-.9-.8.32-.81.91,0,1,0,1.53-.21.4-.49.4-.43-.09-.43-.41c0-1.54,0-3.09,0-4.63,0-.37.21-.35.46-.36s.47,0,.46.37C129.68,119.71,129.69,120.27,129.69,120.78Z"/><path class="cls-5" d="M194.29,120.83a3.19,3.19,0,0,1,.5-.24c.42-.09.58.08.56.53,0,.8,0,1.61,0,2.42,0,.21-.09.56-.19.59a1.41,1.41,0,0,1-.79-.15,1.7,1.7,0,0,1-2.38-.38,2.09,2.09,0,0,1,.07-2.53A1.63,1.63,0,0,1,194.29,120.83Zm-1.8,1.56a1,1,0,1,0,2,0,1,1,0,0,0-1-1.07A1,1,0,0,0,192.49,122.39Z"/><path class="cls-5" d="M158.46,120.89c.2-.47.56-.27.94-.28v2.17a8.19,8.19,0,0,1,0,.86c0,.18-.11.48-.2.49a1.51,1.51,0,0,1-.74-.15,1.71,1.71,0,0,1-2.44-.43,2.08,2.08,0,0,1,.17-2.54A1.68,1.68,0,0,1,158.46,120.89Zm-1.87,1.49a1,1,0,0,0,1,1.06,1.06,1.06,0,0,0,0-2.11A1,1,0,0,0,156.59,122.38Z"/><path class="cls-5" d="M207.49,120.82a5.57,5.57,0,0,1,.62-.23c.32-.06.42.1.42.41,0,.87,0,1.74,0,2.6,0,.19-.09.51-.18.52a1.38,1.38,0,0,1-.73-.14c-1.2.45-1.89.35-2.45-.42a2.15,2.15,0,0,1,.09-2.47A1.63,1.63,0,0,1,207.49,120.82Zm-1.78,1.54a1,1,0,1,0,1-1A1,1,0,0,0,205.71,122.36Z"/><path class="cls-5" d="M172.28,120.65a13.66,13.66,0,0,1-.95,1.14c-.37.36-.34.64,0,1s.64.85,1,1.29c-.8.21-1,.14-1.41-.44-.19-.27-.37-.54-.58-.79a.39.39,0,0,0-.34-.14c-.08,0-.16.19-.17.3a4.19,4.19,0,0,0,0,.71c0,.33-.13.45-.45.45s-.41-.16-.41-.45q0-2.27,0-4.53c0-.3.1-.42.42-.42s.45.11.44.44c0,.76,0,1.52,0,2.29a1,1,0,0,0,.15.38,1.4,1.4,0,0,0,.41-.19,1.46,1.46,0,0,0,.37-.45A1.2,1.2,0,0,1,172.28,120.65Z"/><path class="cls-5" d="M133.84,122.68a1,1,0,0,0,1.41.75c.55-.21.55-.21.92.35a2.15,2.15,0,0,1-2,.43,1.61,1.61,0,0,1-1.27-1.19,1.85,1.85,0,0,1,1.91-2.52,1.71,1.71,0,0,1,1.53,1.92.46.46,0,0,1-.36.25C135.3,122.7,134.59,122.68,133.84,122.68Zm1.59-.64a.79.79,0,1,0-1.57,0Z"/><path class="cls-5" d="M197.24,120.92a1.41,1.41,0,0,1,2.42,1.2c0,.57,0,1.14,0,1.71,0,.34-.2.35-.44.34s-.5,0-.49-.33c0-.56,0-1.11,0-1.66s-.27-.83-.73-.84a.79.79,0,0,0-.85.84c0,.52,0,1,0,1.57,0,.35-.14.43-.45.43s-.49-.08-.48-.45c0-.88,0-1.76,0-2.64,0-.17.11-.44.23-.48A.56.56,0,0,1,197.24,120.92Z"/><path class="cls-5" d="M125.64,122c0-.56,0-1.13,0-1.7,0-.29-.1-.41-.38-.41s-.57,0-.86,0-.4-.18-.4-.47.06-.43.4-.43c1.16,0,2.33,0,3.5,0,.35,0,.37.18.37.45s0,.47-.38.45-.42,0-.63,0c-.65,0-.65,0-.65.64v3.14c0,.51-.31.73-.78.52a.42.42,0,0,1-.18-.35C125.63,123.18,125.64,122.57,125.64,122Z"/><path class="cls-5" d="M178.05,123.89l.33-.62c.35.09.68.21,1,.26a1.84,1.84,0,0,0,.7-.07c.11,0,.25-.2.24-.28a.48.48,0,0,0-.25-.32,4.1,4.1,0,0,0-.79-.16c-.75-.12-1.09-.46-1.08-1.08a1.1,1.1,0,0,1,1.13-1.1,2.8,2.8,0,0,1,1.82.33l-.28.61-.94-.23a.68.68,0,0,0-.4,0,1.9,1.9,0,0,0-.42.34c.13.11.23.27.38.32.3.09.62.11.92.19a.94.94,0,0,1,.84.86,1,1,0,0,1-.65,1.12A3,3,0,0,1,178.05,123.89Z"/><path class="cls-5" d="M152.27,121.31v-.65s.08-.06.11-.06c.53.07.65-.21.59-.66s.06-.45.41-.45.48.09.48.45c0,.65,0,.63.67.66.22,0,.54-.18.64.2s0,.55-.47.56c-.86,0-.85-.16-.85.85,0,1.23.09,1.3,1.29,1.09l.3.6a1.82,1.82,0,0,1-1.76.27,1.11,1.11,0,0,1-.7-1.06c0-.34,0-.69,0-1C153,121.42,153,121.42,152.27,121.31Z"/><path class="cls-5" d="M188.84,120.54a3.38,3.38,0,0,0,0-.54c0-.39.12-.53.52-.51s.39.11.38.4c0,.75-.07.7.7.7H191c.2.7.15.77-.51.77-.1,0-.21,0-.31,0-.36,0-.48.13-.46.47s0,.6,0,.9c0,.58.33.78.89.66.16,0,.41,0,.48.08.28.35.22.49-.19.66-.89.37-2.09.13-2.06-1.25a7.62,7.62,0,0,0,0-1.17c0-.12-.18-.33-.29-.33-.32,0-.4-.15-.4-.44s.17-.37.43-.36A.8.8,0,0,0,188.84,120.54Z"/><path class="cls-5" d="M174.69,121.46c0-.73,0-1.46,0-2.2,0-.31,0-.49.43-.48s.46.11.46.46c0,1.48,0,3,0,4.44,0,.31,0,.5-.42.5s-.47-.18-.46-.52C174.7,122.93,174.69,122.19,174.69,121.46Z"/><path class="cls-5" d="M160.34,118.82l.37,0c.38-.06.52.09.51.49,0,1.46,0,2.93,0,4.39,0,.36-.09.51-.48.52s-.4-.23-.4-.52Z"/><path class="cls-5" d="M177.37,118.85c0,1.68,0,3.34,0,5,0,.31-.19.33-.42.32s-.47,0-.46-.32c0-.52,0-1,0-1.57V119.5C176.49,118.71,176.51,118.7,177.37,118.85Z"/><path class="cls-5" d="M210.4,120.77a10,10,0,0,1,1-.26c.29-.05.52,0,.38.42a2.26,2.26,0,0,0-.1.48l-.43-.06a.79.79,0,0,0-.93.8c0,.51,0,1,0,1.53,0,.31,0,.5-.42.5s-.47-.19-.46-.52c0-.82,0-1.65,0-2.47a.81.81,0,0,1,.18-.57C209.86,120.46,210.27,120.62,210.4,120.77Z"/><path class="cls-5" d="M144.6,120.65l.16-.05c.76-.06.76-.06.76.71s0,1.62,0,2.42c0,.38-.16.45-.49.45s-.45-.08-.44-.43C144.62,122.72,144.6,121.69,144.6,120.65Z"/><path class="cls-5" d="M151.74,120.59c0,1.14,0,2.22,0,3.29,0,.3-.2.3-.4.29s-.5.09-.51-.26c0-1,0-2.06,0-3.09,0-.08.16-.2.25-.22A3.42,3.42,0,0,1,151.74,120.59Z"/><path class="cls-5" d="M173.77,122.4c0,.47,0,.93,0,1.39,0,.31-.13.39-.41.39s-.48,0-.48-.36c0-1,0-1.95,0-2.92,0-.38.28-.3.5-.31s.4,0,.39.34C173.75,121.42,173.77,121.91,173.77,122.4Z"/><path class="cls-5" d="M173.28,119.91a.53.53,0,0,1-.54-.57.54.54,0,0,1,.6-.57.51.51,0,0,1,.53.59A.53.53,0,0,1,173.28,119.91Z"/><path class="cls-5" d="M151.24,119.91a.57.57,0,0,1,0-1.14.57.57,0,1,1,0,1.14Z"/><path class="cls-5" d="M144.93,119.91c-.26,0-.43-.23-.43-.58a.51.51,0,0,1,.56-.56.55.55,0,0,1,.57.6C145.61,119.7,145.37,119.92,144.93,119.91Z"/></g></g></svg>