<svg xmlns="http://www.w3.org/2000/svg" viewBox="0 0 181.79 185.56"><defs><style>.cls-1{fill:#033676;}</style></defs><g id="Layer_2" data-name="Layer 2"><g id="Layer_1-2" data-name="Layer 1"><path class="cls-1" d="M94.68,16.85c-3,3.55-3,4.19-.55,7.45,1.89,2.56,4,5,5.65,7.7.69,1.12,1.13,3.17.55,4.11s-2.58,1.54-3.9,1.45c-3.46-.22-6.88-1-10.32-1.39-3.17-.39-4.29.37-4.8,3.53-.92,5.71-1.73,11.45-2.48,17.18-.37,2.79.68,4,3.64,4.49,3.43.53,6.91.79,10.3,1.54,1.3.28,3.19,1.45,3.35,2.44.2,1.23-.82,3.05-1.87,4-2.51,2.24-5.37,4.09-8,6.15s-2.85,3.36-1,5.86q5.13,7,10.43,13.9c1.78,2.3,3.25,2.46,5.71.69,2.82-2,5.48-4.3,8.4-6.16,1.14-.72,3.28-1.31,4.1-.73,1,.71,1.59,2.72,1.54,4.14a81.76,81.76,0,0,1-1.16,8.6c-.71,5.11-.11,5.91,5,6.63l17.61,2.5a51.65,51.65,0,0,1-12.58,11.33,19,19,0,0,0-8.77,16.66c0,1.74,0,3.48,0,5.22,0,2.12.06,4.25,0,6.37-.25,5.58-4.05,9.44-9.63,9.52q-12.6.16-25.2,0c-5.8-.07-9.56-4-9.75-10-.13-3.66-.1-7.34,0-11a18.46,18.46,0,0,0-8.63-16.69,58,58,0,0,1-24.28-33.1C31.21,66.07,41,39.59,61.15,26.46a58,58,0,0,1,29.05-9.6C91.53,16.79,92.87,16.85,94.68,16.85Zm1.37,117.58a23.12,23.12,0,0,0-3.11-12.64c-3.45-6.48-9.2-10.06-15.71-13-26.5-12.06-30.22-48-6.87-65.38.74-.55,1.44-1.16,2.26-1.82l-3.34-5.09c-1.06.71-1.88,1.21-2.65,1.77a44.67,44.67,0,0,0-9.5,62.13c5.32,7.2,12.29,12.11,20.45,15.6,6.7,2.86,10.9,8,11.9,15.26.42,3,1.56,3.72,4.17,3.35C94.31,134.5,95,134.5,96.05,134.43Zm-6.15,6.78v4.45c0,5.38,0,5.38,5.56,4.71.17,0,.32-.2.77-.48v-3.83C96.23,140.44,96.23,140.44,89.9,141.21Z"/><path class="cls-1" d="M85.5,55.31c.58-4.2,1.14-8.17,1.75-12.52,2.77.38,5.32.66,7.85,1.09,4.51.76,8.27-.34,10.83-4.31,2.29-3.54,1.86-7.5-1.11-11.58-1.53-2.09-3.09-4.17-4.89-6.59l10.15-7.63c1.83,2.44,3.53,4.63,5.18,6.86,2.69,3.64,6.27,5.17,10.65,4s6.42-4.34,7-8.66c.36-2.66.78-5.31,1.23-8.27l12.52,1.73c-.36,2.65-.61,5.11-1,7.53-.8,4.59.16,8.49,4.25,11.14,3.65,2.36,7.51,1.89,11.79-1.27,2-1.48,4-3,6.37-4.7,2.57,3.39,5,6.65,7.66,10.09-2.41,1.83-4.64,3.5-6.84,5.2-3.75,2.91-5.2,6.64-4,10.66,1.27,4.29,4.38,6.4,8.68,7,2.65.38,5.3.78,8.26,1.22-.59,4.25-1.14,8.22-1.73,12.52-2.93-.39-5.68-.68-8.39-1.13A9.59,9.59,0,0,0,161.39,72c-2.24,3.34-1.92,7.38.74,11.1,1.68,2.34,3.44,4.61,5.3,7.1l-10.18,7.63c-1.79-2.37-3.47-4.57-5.13-6.79C149.43,87.46,146,85.87,141.5,87c-4,1-6.42,4.2-7.12,8.9-.38,2.56-.1,6.13-1.63,7.33s-4.89-.08-7.45-.35c-1.5-.16-3-.49-4.67-.77.43-3.11.85-6,1.21-8.81.54-4.12-.84-7.47-4.36-9.7a9,9,0,0,0-10.38.2c-2.63,1.74-5.12,3.71-7.88,5.73l-7.58-10.1c2.32-1.77,4.41-3.42,6.56-5,3.72-2.72,5.49-6.26,4.26-10.81s-4.48-6.54-8.9-7.11C91,56.18,88.44,55.75,85.5,55.31Zm48.05,19.54a19.07,19.07,0,1,0-18.93-19.29A19.17,19.17,0,0,0,133.55,74.85Z"/><path class="cls-1" d="M10.07,134.68c1.86-2.69,3.34-4.7,4.68-6.81,2.75-4.33,1-8.82-4-10.14A15.75,15.75,0,0,0,7.08,117c-3.45-.08-4-1.92-4.06-5,0-2.9,1-4,3.66-4.2a22.22,22.22,0,0,0,4.23-.93c4.81-1.33,6.55-5.71,3.91-10-1.32-2.13-2.8-4.15-5-7.22a27.77,27.77,0,0,0,3.41-2.17,25,25,0,0,0,2.62-3c1.82,1.2,3.33,2.17,4.81,3.19,6.27,4.28,9.48,3.41,12.66-3.72.79,3.17,1.51,6.09,2.29,9.2-10.72,2.9-16.93,9.46-16.45,21a18.31,18.31,0,0,0,13.17,16.35c9.66,2.66,17.2-.74,22.78-9.17,3.88,3,8.31,5,10.73,9.53.84,1.56.91,2.71-.53,4-1.76,1.63-3.22,3.56-4.87,5.42-2.55-1.73-4.5-3.13-6.51-4.42-4.59-2.95-9.11-1.15-10.46,4.15a21.65,21.65,0,0,0-.86,4.25c-.13,2.7-1.54,3.23-4,3.14-4.31-.16-4.55,0-5.16-4.44-1.31-9.51-7.4-10.55-13.71-5.48-4.17,3.36-3,2.95-6.65-.46C12.2,136.14,11.12,135.47,10.07,134.68Z"/><path class="cls-1" d="M80.75,176.16h24.64c1.51,5.5-1.31,9.33-6.81,9.38-3.48,0-7,0-10.42,0C82.17,185.52,79.72,182.53,80.75,176.16Z"/><path class="cls-1" d="M80.69,169.42c-.88-6.23-.88-6.23,5-6.23h16.48c3.8,0,3.81,0,3.75,3.78,0,.75-.11,1.5-.17,2.45Z"/><path class="cls-1" d="M27.55,38.46,5.31,22.55,9,17.34,31.22,33.23Z"/><path class="cls-1" d="M32.57,1.67,38.69,0C40.86,8.45,43,16.78,45.24,25.47L39.05,27C36.87,18.47,34.76,10.23,32.57,1.67Z"/><path class="cls-1" d="M0,55.06,25.34,48.7,27,54.86,1.52,61.22Z"/><path class="cls-1" d="M148.41,140.23l4.07-4.88,19,15.83-4,5Z"/><path class="cls-1" d="M164.75,118.69c3,0,6,.12,9,0,2.5-.13,2.29,1.47,2.18,3s.79,3.48-2.06,3.44c-6.07-.08-12.14,0-18.22,0-3.09,0-1.81-2.29-2-3.74-.24-1.61,0-2.81,2.2-2.7C158.76,118.8,161.76,118.69,164.75,118.69Z"/><path class="cls-1" d="M134.7,144.34h6v21.89h-6Z"/><path class="cls-1" d="M139.28,106.77c.54-3.77.94-7.57,1.68-11.3a2.85,2.85,0,0,1,4-2.28c2.43.74,1.4,2.34.72,3.67-1.73,3.43-3.57,6.81-5.36,10.21Z"/></g></g></svg>