<svg xmlns="http://www.w3.org/2000/svg" viewBox="0 0 155.94 150.91"><defs><style>.cls-1{fill:#033676;}</style></defs><g id="Layer_2" data-name="Layer 2"><g id="Layer_1-2" data-name="Layer 1"><path class="cls-1" d="M78,45c-.7-.62-1.3-1.18-1.93-1.7A12.4,12.4,0,0,0,61.5,42.05a12.23,12.23,0,0,0-5.81,13.34,2.87,2.87,0,0,1-1.12,3.2c-5.72,5.18-5.66,13.38-.09,18.69a3.79,3.79,0,0,1,1.13,2.86A12.79,12.79,0,0,0,67,95.51c3.26.37,3.4.53,3.41,3.9,0,3.66,0,7.33,0,11.26-2.51,0-4.76.08-7-.06A2.19,2.19,0,0,1,62,109.29c-1.44-4.48-4.36-7.79-7.85-10.82-19.81-17.2-18.39-48,3.1-62C70.57,27.82,84.65,27.59,98,36.1s19.23,21.33,17.21,37.24A39.3,39.3,0,0,1,101,99.14a20.91,20.91,0,0,0-7,9.94,2,2,0,0,1-2.33,1.62c-1.92-.1-3.85,0-6.12,0,0-4.58-.12-9.07.13-13.53,0-.59,1.87-1.43,2.94-1.56,7-.81,12.26-6.54,11.87-13.23a12.68,12.68,0,0,1-.33-2.22,4.45,4.45,0,0,1,.86-2.54c6.12-5.88,6.11-13.43,0-19.41a3.11,3.11,0,0,1-.8-2.32c1-6.24-1.2-11.33-6.25-14.09s-10.37-1.86-15,2.35C78.68,44.4,78.35,44.64,78,45Z"/><path class="cls-1" d="M93.31,60c.8.31,1.91.67,3,1.18A7.46,7.46,0,0,1,98.59,73c-.89.93-1.6,1.21-2.74.28a11.22,11.22,0,0,0-7.68-2.75V75a28.42,28.42,0,0,1,4.14,1.82,7.31,7.31,0,0,1,3.06,7.91,8.07,8.07,0,0,1-6.93,5.74c-6.08.7-7.94,2.81-8,9v11h-5c0-3.94,0-7.86,0-11.77,0-5.17-2.4-7.75-7.47-8.16-6.58-.53-9.59-6.62-6-12.2.39-.62.76-1.26,1.34-2.21-1.23-.48-2.29-.85-3.32-1.31a7.47,7.47,0,0,1-2.84-11.75c1-1.12,1.75-1.52,3.11-.4a10.77,10.77,0,0,0,7.52,2.61c0-1.58,0-3.06,0-4.54-5.6-2-7.86-4.73-7.34-8.9a7.7,7.7,0,0,1,6.68-6.53c4.19-.43,7,1.95,8.69,7.4h4.39c1.85-6.1,5.73-8.7,10.38-7,2.84,1.06,4.9,3.17,4.84,6.11C95.34,54.45,94.11,57,93.31,60Z"/><path class="cls-1" d="M17.69,5A12.57,12.57,0,1,1,5,17.57,12.58,12.58,0,0,1,17.69,5Z"/><path class="cls-1" d="M130.8,25a12.57,12.57,0,1,1,12.45,12.76A12.57,12.57,0,0,1,130.8,25Z"/><path class="cls-1" d="M92.91,136c.2,8.09-6.74,14.92-15,14.91S62.78,144,63,136Z"/><path class="cls-1" d="M5,123.09a12.57,12.57,0,1,1,12.48,12.73A12.58,12.58,0,0,1,5,123.09Zm12.57,7.68a7.53,7.53,0,1,0-7.53-7.52A7.58,7.58,0,0,0,17.6,130.77Z"/><path class="cls-1" d="M138.44,125.77a12.57,12.57,0,1,1-12.67,12.54A12.59,12.59,0,0,1,138.44,125.77Zm-.1,5a7.53,7.53,0,1,0,7.52,7.52A7.57,7.57,0,0,0,138.34,130.82Z"/><path class="cls-1" d="M35.07,70.43c-6.07,0-12,0-17.94,0a3.44,3.44,0,0,0-3.48,1.7,7.06,7.06,0,0,1-8.34,3,7.52,7.52,0,0,1,0-14.37,7.07,7.07,0,0,1,8.36,3,3.43,3.43,0,0,0,3.46,1.73c5.93-.06,11.87,0,18,0Z"/><path class="cls-1" d="M120.87,65.39c6.09,0,12,0,18,0a3.42,3.42,0,0,0,3.46-1.72,7.08,7.08,0,0,1,8.35-3,7.52,7.52,0,0,1,0,14.37,7.06,7.06,0,0,1-8.34-3,3.45,3.45,0,0,0-3.48-1.71c-5.93.06-11.86,0-17.95,0Z"/><path class="cls-1" d="M140.65,120.64h-4.83V108.29c0-3.84,0-7.69,0-11.54,0-2.93-.76-3.67-3.75-3.67-6.1,0-12.2,0-18.33,0,.82-4.08,1.92-5,5.61-5,4.43,0,8.87,0,13.3,0,5.08,0,8.19,3.07,8.21,8.09,0,7.86,0,15.73,0,23.59A5.21,5.21,0,0,1,140.65,120.64Z"/><path class="cls-1" d="M78,120.74c-7.13,0-14.25,0-21.38,0-1.82,0-3.6-.23-3.66-2.43-.06-2.39,1.8-2.64,3.71-2.63q21.38,0,42.74,0c1.83,0,3.61.23,3.67,2.44.06,2.38-1.79,2.64-3.71,2.63C92.19,120.72,85.07,120.74,78,120.74Z"/><path class="cls-1" d="M77.92,130.8c-7.13,0-14.25,0-21.37,0-1.83,0-3.6-.25-3.64-2.46,0-2.39,1.83-2.6,3.74-2.6q21.38,0,42.74,0c1.83,0,3.61.25,3.64,2.45,0,2.39-1.83,2.62-3.74,2.61C92.17,130.78,85,130.8,77.92,130.8Z"/><path class="cls-1" d="M80.27,25.06H75.45c0-2.81-.06-5.54,0-8.27a3,3,0,0,0-1.56-3,7.16,7.16,0,0,1-3.12-8.49,7.52,7.52,0,0,1,14.35,0,7.16,7.16,0,0,1-3.09,8.5,3,3,0,0,0-1.58,3c.08,2.5,0,5,0,7.51A5.47,5.47,0,0,1,80.27,25.06Z"/><path class="cls-1" d="M20.12,105.56h-4.9a79.14,79.14,0,0,1,.07-9,7.09,7.09,0,0,1,6.83-6c5.94-.13,11.88-.09,17.82,0a3.05,3.05,0,0,1,2,1.11,34.77,34.77,0,0,1,2.32,3.62,17.08,17.08,0,0,1-2,.25c-5,0-10,.05-15.07,0-7.21-.07-7.15-.28-7,6.93C20.14,103.49,20.12,104.47,20.12,105.56Z"/><path class="cls-1" d="M15.34,35.23h4.33c.15.18.33.3.34.43.47,4.54.5,4.57,5.23,4.57H45c-1.7,3.28-3.27,5.6-7.43,5.16-4.64-.49-9.37-.1-14.05-.12C17.55,45.24,14.46,41.53,15.34,35.23Z"/><path class="cls-1" d="M129,36l3.5,3.23c-3,3.91-6.31,6.83-11.62,6a7,7,0,0,0-2.5,0c-4.1.93-5.73-1.8-7.6-5.07,3.41,0,6.48-.2,9.52.06s5.56-.57,7.44-3.08A9.34,9.34,0,0,1,129,36Z"/><path class="cls-1" d="M17.71,126.72c-1.19-1.5-2.54-2.48-2.43-3.25.13-1,1.44-1.81,2.24-2.71.86.85,2.22,1.6,2.4,2.57C20.07,124.1,18.79,125.16,17.71,126.72Z"/><path class="cls-1" d="M141.19,139c-1,.61-2.07,1.76-3,1.67s-2.29-1.71-2.14-2.34a3.68,3.68,0,0,1,2.52-2.3c.77-.11,1.75,1.22,2.64,1.92Z"/></g></g></svg>