<svg xmlns="http://www.w3.org/2000/svg" width="90.937" height="90.888" viewBox="0 0 90.937 90.888"><path d="M70.281,18.24a.814.814,0,0,0,0-.133,34.1,34.1,0,0,0-60.208,0,.814.814,0,0,0,0,.133A33.8,33.8,0,0,0,6,34.078a33.154,33.154,0,0,0,1.231,9.037,7.427,7.427,0,0,1,3.562-1.459,30.312,30.312,0,0,1-.909-5.684H25.04c0,1.895.152,3.789.322,5.684h3.789c-.189-1.895-.3-3.789-.36-5.684h9.473v5.684h3.789V35.973h9.473c0,1.895-.171,3.789-.36,5.684h3.789c.171-1.895.284-3.789.322-5.684H70.433a30.314,30.314,0,0,1-.909,5.684,7.427,7.427,0,0,1,3.562,1.4,33.154,33.154,0,0,0,1.118-8.98A33.8,33.8,0,0,0,70.281,18.24ZM24.945,32.183H9.789a30.161,30.161,0,0,1,2.993-11.367H26.044a74.72,74.72,0,0,0-1.1,11.367ZM26.84,17.027H15.056A30.445,30.445,0,0,1,32.107,4.883,34.1,34.1,0,0,0,26.84,17.027ZM38.207,32.183H28.734a67.863,67.863,0,0,1,1.175-11.367h8.3Zm0-15.156H30.818c1.8-6.726,4.566-11.367,7.389-12.75ZM42,4.277c2.823,1.383,5.684,6.025,7.389,12.75H42Zm0,27.906V20.816h8.26a67.861,67.861,0,0,1,1.212,11.367Zm6.119-27.3A30.445,30.445,0,0,1,65.166,17.027h-11.8A34.1,34.1,0,0,0,48.115,4.883Zm7.142,27.3a74.719,74.719,0,0,0-1.08-11.367H67.44a30.161,30.161,0,0,1,2.974,11.367Z" transform="translate(5.367 -0.026)" fill="#424242"/><rect width="7.578" height="7.578" rx="1" transform="translate(0 71.942)" fill="#023676"/><rect width="7.578" height="7.578" rx="1" transform="translate(83.359 71.942)" fill="#023676"/><rect width="7.578" height="7.578" rx="1" transform="translate(11.367 83.309)" fill="#023676"/><rect width="7.578" height="7.578" rx="1" transform="translate(71.992 83.309)" fill="#023676"/><path d="M19.262,34V45.367a1.9,1.9,0,0,1-1.895,1.895H6V43.473h9.473V34ZM74.2,43.473v3.789H62.836a1.9,1.9,0,0,1-1.895-1.895V34H64.73v9.473ZM62.836,54.84v3.789H47.68a1.9,1.9,0,0,1-1.895-1.895V34h3.789V54.84ZM34.418,34V56.734a1.9,1.9,0,0,1-1.895,1.895H17.367V54.84H30.629V34Z" transform="translate(5.367 30.364)" fill="#424242"/><path d="M67.625,24H10.789A3.789,3.789,0,0,0,7,27.789v7.578a3.789,3.789,0,0,0,3.789,3.789H67.625a3.789,3.789,0,0,0,3.789-3.789V27.789A3.789,3.789,0,0,0,67.625,24ZM20.262,33.473a1.9,1.9,0,0,1-1.895,1.895H14.578a1.9,1.9,0,0,1-1.895-1.895V29.684a1.9,1.9,0,0,1,1.895-1.895h3.789a1.9,1.9,0,0,1,1.895,1.895Zm11.367,0a1.9,1.9,0,0,1-1.895,1.895H25.945a1.9,1.9,0,0,1-1.895-1.895V29.684a1.9,1.9,0,0,1,1.895-1.895h3.789a1.9,1.9,0,0,1,1.895,1.895Zm18.945,0a1.895,1.895,0,0,1-3.789,0V29.684a1.895,1.895,0,0,1,3.789,0Zm7.578,0a1.895,1.895,0,0,1-3.789,0V29.684a1.895,1.895,0,0,1,3.789,0Zm7.578,0a1.895,1.895,0,0,1-3.789,0V29.684a1.895,1.895,0,0,1,3.789,0Z" transform="translate(6.262 21.419)" fill="#023676"/></svg>