<svg xmlns="http://www.w3.org/2000/svg" viewBox="0 0 159.21 158.99"><defs><style>.cls-1{fill:#033676;}</style></defs><g id="Layer_2" data-name="Layer 2"><g id="Layer_1-2" data-name="Layer 1"><path class="cls-1" d="M40.61,108.52c.4-3.72,2-7.68.91-10.57-3.45-8.89-2-18-2.32-26.95-.07-1.55-.38-2.44-2.48-1.71V87.48L25.11,83.27V33.72L24,33.47a10.76,10.76,0,0,0-.75,2.68c-.1,10.44-.13,20.88-.18,31.33,0,4.55-1.53,6.7-4.74,6.72s-4.81-2.15-4.79-6.66q.06-15.8.13-31.58c.05-9,6.13-14.28,15.08-12.94.65.09,1.4,1,1.7,1.7,1.4,3.34,2.67,6.74,3.82,9.69a42.29,42.29,0,0,0,1.95-6.6c.18-1.29-.73-2.74-1.25-4.46h6a5.68,5.68,0,0,1-.5,1.57c-1.25,1.61-.9,3,0,4.76.69,1.36.69,3.08,1,4.75,1.08-2.67,2.43-5.41,3.29-8.29.77-2.63,2.18-3.34,4.82-3.26,7.82.24,12.46,4.75,12.59,12.63,0,2.37,0,4.73,0,7.69,3.3-2.05,6-3.91,8.91-5.44,1.3-.69,3.15-1.33,4.38-.91A6.85,6.85,0,0,1,79,40.22,3.8,3.8,0,0,1,77.28,45c-5.85,3.76-11.72,7.51-17.75,11-3.18,1.84-6.65-.35-6.82-4.18-.2-4.8-.14-9.61-.19-14.41a5.28,5.28,0,0,0,0-1.49,24.52,24.52,0,0,0-1-2.37,8,8,0,0,0-.92,2.52c0,22,0,43.92.14,65.87,0,2.56-.47,4-3.08,5S43,109.91,40.61,108.52Z"/><path class="cls-1" d="M68.76,146.24v12.69H41.66c-.67-4.17.42-8.52-.61-12.64l-1.14,0V159h-10c0-4.87-.42-9.68.11-14.38.56-5,5.13-8.92,10.28-9.32,5-.38,9.93-.24,14.9-.28q6-.06,11.93,0c7.3.07,11.32,3.18,13.38,10.51.35-.91.61-1.62.91-2.31,2-4.59,5.44-7.54,10.38-7.69q14.4-.45,28.82,0a11.44,11.44,0,0,1,10.82,11.27c.15,4,0,8.06,0,12.22h-10c0-2.67.16-5.23-.06-7.76-.13-1.56,1-3.5-1-4.65a38.92,38.92,0,0,0-.84,4.74c-.15,2.46,0,4.94,0,7.61H92.28V146.62H91.11c-1,4,0,8.12-.64,12.32H70.14V146.23Z"/><path class="cls-1" d="M65.45,35.42V29.06c0-6.3,0-12.59,0-18.89,0-3.78,1.16-5,4.87-5q36.8,0,73.58,0c3.87,0,4.93,1.07,4.93,4.85q0,27,0,53.93c0,3.62-1.1,4.72-4.77,4.72q-36.93,0-73.84,0c-3.57,0-4.71-1.19-4.78-4.79-.12-6.34.14-6.72,6.94-9.77v7.4h69.33V12.2c-.83,0-1.71-.12-2.58-.12-21.3,0-42.59,0-63.89-.06-2.3,0-3,.64-2.91,2.93.17,4.88,0,9.78.07,14.66,0,1.48-.22,2.43-1.84,3A37.67,37.67,0,0,0,65.45,35.42Z"/><path class="cls-1" d="M40.73,129.58c-5.79.75-10.2,3-13.41,7.48a2.37,2.37,0,0,1-1.69.77c-4.22.07-8.44,0-13.08,0V130.4a21.74,21.74,0,0,0,0-3.23,8,8,0,0,0-.93-2c-.37.7-1,1.38-1.06,2.1-.14,2.64-.07,5.3-.1,8,0,.8-.09,1.61-.14,2.5H0c.22-4.94.08-9.76.75-14.46a10.89,10.89,0,0,1,10-9c5.12-.36,10.26-.23,15.4-.27,4.46,0,8.93,0,13.82,0A17.4,17.4,0,0,0,40.73,129.58Z"/><path class="cls-1" d="M120.35,129.72a17,17,0,0,0,.59-15.31c1-.08,1.66-.19,2.35-.19,7.54,0,15.08,0,22.62,0,8.39,0,13.21,4.89,13.29,13.3,0,3.3,0,6.6,0,10.13H148.94c0-3.38.08-6.67-.05-10,0-.78-.71-1.54-1.09-2.31a7.38,7.38,0,0,0-.89,2.27c-.1,3.29,0,6.59,0,10.2-4.1,0-8,0-11.83,0a1.8,1.8,0,0,1-1.24-.66C130.49,132.73,126,130.43,120.35,129.72Z"/><path class="cls-1" d="M92.34,129.11,80.88,134l-12.11-5.3a17.59,17.59,0,0,0,.29-14.49h23C89.87,119.49,89.91,124.6,92.34,129.11Z"/><path class="cls-1" d="M117.05,121.52a10.59,10.59,0,1,1-10.52-10.67A10.62,10.62,0,0,1,117.05,121.52Z"/><path class="cls-1" d="M44.28,121a10.55,10.55,0,1,1,10.37,10.75A10.49,10.49,0,0,1,44.28,121Z"/><path class="cls-1" d="M133.62,89.89a10.45,10.45,0,1,1-.25,20.9,10.45,10.45,0,0,1,.25-20.9Z"/><path class="cls-1" d="M15.42,100.11a10.46,10.46,0,1,1,10.27,10.57A10.42,10.42,0,0,1,15.42,100.11Z"/><path class="cls-1" d="M92.9,100.11a10.48,10.48,0,1,1-21,.08,10.48,10.48,0,0,1,21-.08Z"/><path class="cls-1" d="M37.71,19.83A10,10,0,0,1,28,9.65,9.92,9.92,0,0,1,47.83,10,10,10,0,0,1,37.71,19.83Z"/><path class="cls-1" d="M83.33,37.13l-3.5-4c4-3.13,7.89-6.31,12-9.19.68-.48,2.81,0,3.31.71A3.47,3.47,0,0,1,94.67,28C91.08,31.15,87.24,34,83.33,37.13Z"/></g></g></svg>